<svg width="805" height="782" viewBox="0 0 805 782" fill="none" xmlns="http://www.w3.org/2000/svg">
<g clip-path="url(#clip0_398_261)">
<path d="M712.24 688.4V688.38C712.52 687.98 712.8 687.62 713.09 687.33L713.37 687.05L713.39 687.03C713.76 686.69 714.12 686.44 714.49 686.26C714.68 686.17 714.86 686.09 715.05 686.03C716.44 685.55 717.77 685.92 718.99 685.89C719.79 685.87 720.6 685.84 721.4 685.81C722.7 685.76 723.98 685.7 725.26 685.62C726.37 685.56 727.5 685.48 728.61 685.4C729.61 685.32 730.6 685.25 731.6 685.15C733.95 684.95 736.31 684.7 738.64 684.41C740.08 684.24 741.5 684.07 742.92 683.87C744.34 683.68 745.74 683.48 747.15 683.27C750.48 682.76 753.82 682.21 757.14 681.59C761.2 680.85 765.23 680.03 769.24 679.18C770.98 678.81 772.73 678.42 774.46 678.04C776.19 677.65 777.92 677.27 779.65 676.87C780.04 676.78 780.42 676.68 780.79 676.58C781.42 676.41 782.02 676.23 782.61 676.02C783.07 675.87 783.51 675.71 783.94 675.53C785.64 674.85 787.07 674.03 788.25 673.11C794.13 668.46 793.48 661.15 786.34 654.05C786.08 653.77 785.8 653.51 785.52 653.25C784.89 652.66 784.25 652.09 783.64 651.51C783.02 650.92 782.41 650.32 781.79 649.72C780.59 648.52 779.41 647.28 778.36 645.94C777.9 645.34 777.45 644.74 777.02 644.1C776.6 643.47 776.2 642.8 775.83 642.12C775.27 641.1 774.78 640.02 774.38 638.86H774.4C780.45 635.46 786.72 632.58 792.38 628.87C793.18 628.33 793.99 627.79 794.76 627.22C795.22 626.88 795.69 626.54 796.1 626.22C796.52 625.88 796.92 625.54 797.3 625.22C798.06 624.54 798.74 623.89 799.32 623.23C799.71 622.8 800.05 622.35 800.37 621.92C802.98 618.28 802.84 614.81 799.98 611.53C799.79 611.31 799.59 611.1 799.38 610.9C797.91 609.42 795.88 607.98 793.28 606.59C783.99 601.65 775.42 595.79 767.14 589.29C765.98 588.38 764.92 587.44 763.95 586.47C763.63 586.16 763.3 585.82 763.01 585.48C761.68 584.03 760.59 582.5 759.72 580.87C759.53 580.55 759.38 580.21 759.23 579.87C758.92 579.21 758.64 578.51 758.41 577.79V577.77C758.3 577.42 758.19 577.06 758.1 576.69C758.05 576.54 758.01 576.37 757.98 576.21C757.96 576.15 757.95 576.09 757.95 576.04C757.84 575.64 757.76 575.22 757.7 574.81C757.61 574.3 757.55 573.78 757.5 573.24C757.44 572.7 757.41 572.16 757.41 571.59C757.39 570.83 757.41 570.06 757.46 569.28C757.69 565.64 757.41 561.93 756.87 558.25C756.76 557.54 756.65 556.83 756.53 556.12C756.31 554.72 756.05 553.3 755.76 551.88C755.62 551.19 755.48 550.51 755.34 549.81C755.19 549.04 755.08 548.34 755.02 547.68C754.94 546.32 755.11 545.16 755.58 544.12C755.69 543.87 755.81 543.63 755.95 543.39C756 543.33 756.03 543.25 756.07 543.19C756.21 542.96 756.38 542.74 756.56 542.51C756.88 542.09 757.29 541.68 757.75 541.26C758.03 541 758.35 540.75 758.69 540.49C758.86 540.35 759.03 540.23 759.21 540.09C761.36 538.53 763.3 536.82 765.09 535.01C765.99 534.1 766.83 533.16 767.65 532.2C768.47 531.24 769.24 530.26 769.98 529.24C770.97 527.88 771.88 526.49 772.74 525.06C773.6 523.62 774.39 522.16 775.15 520.66C776.26 518.41 777.26 516.08 778.16 513.7C779.06 511.31 779.84 508.87 780.55 506.4C781.4 503.42 782.17 500.44 782.86 497.46C783.54 494.48 784.14 491.52 784.67 488.56C784.84 487.57 785.01 486.58 785.16 485.6C785.47 483.64 785.73 481.66 785.98 479.69C787.89 463.93 787.54 448.31 785.29 432.83V432.81C784.83 429.65 784.27 426.48 783.67 423.33V423.31C783.47 422.32 783.27 421.33 783.07 420.35C782.44 417.4 781.76 414.44 781 411.51C780.4 409.15 779.75 406.79 779.07 404.44C778.55 402.62 777.99 400.8 777.42 398.99C777 397.68 776.57 396.35 776.12 395.04C774.82 391.14 773.4 387.23 771.89 383.34C769.78 377.89 767.88 373.65 772.38 367.95C775.7 363.74 778.45 359.32 780.7 354.74C781.64 352.84 782.49 350.9 783.25 348.94C783.34 348.69 783.45 348.45 783.53 348.21C783.88 347.28 784.21 346.37 784.52 345.45C784.95 344.15 785.35 342.83 785.72 341.51C786.09 340.18 786.41 338.86 786.72 337.51C787.57 333.67 788.16 329.73 788.49 325.75C788.88 321.41 788.95 317.01 788.77 312.57C788.74 311.77 788.69 310.97 788.65 310.16C788.39 305.34 787.92 300.65 787.26 296.05C787.04 294.52 786.8 292.99 786.53 291.48C786.27 289.98 785.99 288.49 785.68 286.99C785.53 286.25 785.37 285.51 785.2 284.77C784.88 283.3 784.54 281.84 784.17 280.39C783.98 279.66 783.8 278.94 783.6 278.23C783.03 276.07 782.4 273.92 781.72 271.81C781.06 269.71 780.33 267.63 779.56 265.56C779.05 264.19 778.53 262.83 777.97 261.47C777.71 260.79 777.43 260.11 777.14 259.45C776 256.76 774.79 254.13 773.5 251.52C773.18 250.87 772.85 250.22 772.51 249.59C771.85 248.29 771.17 247.01 770.46 245.75C769.41 243.84 768.31 241.95 767.17 240.1C766.41 238.87 765.64 237.63 764.84 236.41C763.27 233.99 761.6 231.58 759.87 229.23C759.01 228.06 758.11 226.88 757.22 225.73C752.71 219.93 747.77 214.39 742.43 209.06C736.03 202.69 729.03 196.62 721.5 190.88C719.85 189.63 718.37 188.35 717.01 187.01C714.97 185.02 713.24 182.89 711.79 180.53C711.54 180.13 711.3 179.73 711.08 179.33C710.69 178.65 710.32 177.96 709.98 177.23C709.29 175.81 708.67 174.28 708.11 172.66C702.57 156.61 695.78 141.61 687.77 127.69C686.77 125.95 685.75 124.22 684.7 122.52C683.67 120.81 682.62 119.12 681.54 117.46C680.46 115.79 679.36 114.13 678.25 112.49C674.92 107.58 671.4 102.81 667.69 98.2C662.78 92.04 657.55 86.16 652.03 80.54C649.98 78.44 647.88 76.4 645.75 74.41C644.25 72.97 642.74 71.57 641.2 70.23C637.54 66.94 633.79 63.79 629.92 60.74C618.93 52.1 607.05 44.27 594.25 37.28C594.23 37.28 594.23 37.26 594.23 37.26C590.57 35.28 586.84 33.36 583.04 31.49C581.79 30.89 580.56 30.29 579.31 29.68C575.58 27.92 571.81 26.24 568.04 24.63C560.51 21.45 552.9 18.61 545.24 16.11C541.41 14.88 537.57 13.7 533.73 12.64C532.43 12.29 531.15 11.93 529.86 11.59C527.3 10.91 524.72 10.28 522.14 9.68H522.12C519.54 9.08 516.95 8.52 514.36 8C511.77 7.48 509.17 6.98 506.57 6.53C472.63 0.68 437.91 1.25 402.95 7.95C393.88 9.69 384.95 11.64 376.19 13.8C368.26 15.76 360.46 17.89 352.81 20.19C346.76 22.01 340.79 23.94 334.91 25.98C328.46 28.22 322.1 30.58 315.85 33.09C312.58 34.37 309.35 35.71 306.14 37.09C300.52 39.5 294.98 42.01 289.53 44.64C285.9 46.38 282.31 48.19 278.74 50.04C276.97 50.95 275.19 51.89 273.43 52.85C270.78 54.27 268.15 55.72 265.56 57.2C262.97 58.68 260.37 60.18 257.83 61.72C252.71 64.78 247.67 67.95 242.72 71.26C239.42 73.45 236.16 75.69 232.94 77.99C229.78 80.24 226.64 82.53 223.56 84.89C218.78 88.52 214.07 92.27 209.45 96.13C205.62 99.32 201.84 102.61 198.14 105.99C194.5 109.29 190.92 112.67 187.4 116.13C185.98 117.53 184.56 118.94 183.16 120.36C150.86 153.05 123.65 192.36 101.69 238.44C83.4601 276.65 72.0301 316.72 68.2801 358.87C68.1101 360.71 67.8001 362.33 67.3101 363.76C66.6001 365.77 65.5201 367.43 63.9301 368.9C63.2401 369.53 62.4601 370.13 61.5801 370.71C61.4301 370.8 61.2901 370.9 61.1301 370.99C60.9901 371.08 60.8401 371.18 60.6701 371.27C58.4301 372.61 56.2601 374 54.1601 375.47C52.0601 376.92 50.0501 378.43 48.0901 380.01C36.4101 389.44 27.3201 400.95 20.3101 414.13C19.5401 415.6 18.7801 417.08 18.0601 418.57C15.8801 423.08 13.9201 427.77 12.1801 432.63C11.1501 435.47 10.2201 438.32 9.36012 441.18C8.94012 442.62 8.53012 444.05 8.14012 445.49C7.75012 446.93 7.38012 448.36 7.04012 449.8C6.22012 453.26 5.51012 456.71 4.91012 460.19C4.31011 463.67 3.83012 467.13 3.46012 470.62C2.49012 479.96 2.30012 489.36 2.87012 498.79C2.93012 499.69 2.99012 500.56 3.06012 501.46C3.26012 504.11 3.54012 506.78 3.85012 509.45C4.00012 510.64 4.16012 511.83 4.31012 513C4.48012 514.19 4.67012 515.38 4.85012 516.57C5.02012 517.62 5.19012 518.65 5.36012 519.7C6.02012 523.6 6.76012 527.45 7.57012 531.26L8.40012 535.06C8.86012 537.07 9.34012 539.07 9.84012 541.05C10.0901 542.05 10.3501 543.04 10.6101 544.03C11.1301 545.99 11.6701 547.95 12.2301 549.89C12.8001 551.85 13.3901 553.78 13.9901 555.69C14.6101 557.6 15.2401 559.5 15.8901 561.37V561.39C16.5501 563.27 17.2201 565.14 17.9101 566.99C23.8501 582.76 31.4101 597.46 40.8101 610.91C42.4601 613.29 44.1701 615.62 45.9501 617.92C46.5401 618.69 47.1401 619.45 47.7401 620.2C48.9601 621.71 50.1801 623.21 51.4401 624.69C53.3201 626.91 55.2701 629.09 57.2701 631.22C58.6101 632.66 59.9701 634.06 61.3801 635.45C74.5901 648.65 90.2101 660.17 108.5 669.85C111.83 671.61 114.69 673.12 117.13 674.46C117.75 674.8 118.32 675.12 118.87 675.45C119.7 675.93 120.48 676.39 121.18 676.84C122.12 677.44 122.97 678.01 123.71 678.57C124.27 678.99 124.76 679.4 125.19 679.82C125.34 679.96 125.5 680.1 125.62 680.24C128.57 683.3 128.44 686.41 125.68 691.74C125.28 692.5 124.83 693.3 124.32 694.15C124.07 694.58 123.81 695.03 123.52 695.49C122.13 697.77 120.4 700.4 118.37 703.45V703.47C117.97 704.07 117.55 704.7 117.12 705.35C116.5 706.28 115.79 707.19 115.11 708.1C114.88 708.41 114.66 708.72 114.45 709.03C112.57 711.75 111.33 714.59 114.02 718.06C114.25 718.35 114.48 718.63 114.75 718.86C115.06 719.18 115.38 719.46 115.71 719.69C116.03 719.92 116.37 720.14 116.73 720.31C117.01 720.43 117.3 720.56 117.58 720.66C120.6 721.71 124.17 720.8 127.46 720.26C131.18 719.66 134.88 719.03 138.71 718.36C143.14 717.59 147.72 716.79 152.62 715.92C154.7 715.55 156.85 715.18 159.07 714.79C159.07 714.79 165.73 712.15 166.58 714.19C167.43 716.23 166.75 724.17 166.81 729.45C166.86 734.73 167.16 748.91 166.1 757.46C165.48 762.24 164.2 767.46 168.83 770.69C173.71 774.05 177.84 770.41 181.95 767.93C197.94 758.3 212.54 746.85 227.82 730.97C226.92 744.77 226.26 755.05 225.55 765.29C225.21 770.17 224.81 775.11 230.06 777.9C234.54 780.29 238.41 778.3 242.3 776.03C270.1 760.01 295.81 741.34 316.09 716.21C321.75 709.19 325.5 709.88 332.93 714.39C332.93 714.39 423.09 778.85 538.24 770.3C658.26 761.4 712.32 688.43 712.32 688.43L712.24 688.4Z" fill="#010101" stroke="black" stroke-width="5"/>
<path d="M307.63 701.7C288.86 722.22 269.93 742.59 242.72 756.27C242.78 741.76 243.15 729.64 242.75 717.56C242.6 712.96 241.86 707.59 235.85 706.21C230.7 705.04 228.06 708.73 224.99 711.92C212.78 724.68 200.54 737.41 182.72 749.38C183.76 733.77 185.33 721.37 185.24 709.01C185.06 689.56 180.76 687.2 163.31 694.99C154.66 698.86 146.16 703.36 136.04 702.6C140.76 682.69 140.76 682.6 160.09 682.6C196.56 682.6 224.39 666.46 245.28 637.23C248.04 633.33 248.81 631.96 251.47 628C251.62 627.79 250.03 628.12 251.62 627.79C264.26 653.93 285.89 681.93 307.64 701.71L307.63 701.7Z" fill="#FEFEFE"/>
<path d="M754.89 643.1C760.01 648.78 764.77 654.79 770.66 661.84C756.09 664.29 742.99 666.47 727.65 669.02C734.64 656.96 741.52 646.93 745.14 635C748.79 623.01 752.93 611.07 756.21 598.16C758.42 599.39 760.29 599.85 761.3 601.04C766.3 606.96 777.71 610 777.13 616.81C776.55 623.31 765.04 623.04 758.48 625.95C749.22 630.06 748.11 635.55 754.89 643.1Z" fill="#F5F5F5"/>
<path d="M205.84 573.25C205.47 578.93 205.32 584.6 204.64 590.24C204.03 595.21 202.46 600.24 196.05 599.44C190.01 598.67 190.53 593.4 190.8 589.13C191.97 571.71 193.56 554.25 190.49 536.89C182.08 489.28 158.37 450.84 120.15 421.33C117.88 419.55 113.46 418.88 114.69 415.1C116.19 410.47 120.67 412.22 123.62 413.29C128.07 414.92 132.7 416.88 136.29 419.85C184.24 459.7 208.93 510.22 205.83 573.23L205.84 573.25Z" fill="white"/>
<path d="M725.44 505.82C703.14 462.79 692.43 415.87 692.24 367.11C692.15 348.67 693.01 348.54 673.91 347.88C643.88 346.8 614.4 351.21 584.61 354.84C472.43 368.48 362.97 392.88 256.82 431.84C239.1 438.34 239.36 438.43 247.81 455.7C269.37 499.95 276.61 546.05 264.52 594.28C262.68 601.58 262.96 607.55 266.28 614.22C289.09 660.01 321.86 695.26 368.57 718.24C409.13 738.15 450.94 751.5 502.36 755.54C509.01 756.34 522.11 755.97 535.16 755.02C588.34 751.19 637.1 735.76 677.18 698.95C687.4 689.55 696.02 678.45 705.9 668.67C717.71 656.96 723.25 640.71 729.31 624.63C745.27 582.33 746.43 546.36 725.44 505.83V505.82Z" fill="white"/>
<path d="M653.15 675.184C634.24 680.284 616.13 673.314 599.29 665.804C565.4 651.104 529.61 652.694 495.75 668.814C477.07 678.204 457.33 684.954 436.93 689.474C417.42 695.114 395.27 689.034 382.53 673.074C371.5 660.154 371.62 640.624 380.28 625.894C389.86 610.374 405.91 601.124 422.2 593.944C449.31 581.654 471.95 573.994 497.77 573.284C532.81 569.564 567.64 570.374 597.46 575.824C621.18 579.304 645.97 589.014 660.21 609.094C667.97 620.084 674.48 633.424 674.51 646.914C674.61 659.804 666.5 671.834 653.46 675.094L653.15 675.184ZM438.17 659.344C434.37 648.304 430.78 636.914 427.34 625.654C425.44 620.504 424.71 613.174 420.34 611.624C415.35 610.664 410.57 615.254 406.41 617.924C396.29 625.424 387.19 637.114 387.4 650.064C388.36 671.124 407.05 682.374 426.95 678.664C440.92 676.434 443.52 674.194 438.26 659.644L438.16 659.344L438.17 659.344ZM490.56 645.244C487.3 634.594 484.45 623.624 483.53 612.434C482.72 606.244 483.62 596.744 479.6 593.024C476.06 589.944 469.25 591.524 464.75 592.144C449.93 594.324 437.87 599.384 438.83 614.274C439.29 627.364 444.64 641.394 448.15 653.274C451.38 665.554 456.51 670.854 469.64 665.194C474.34 663.284 478.97 661.164 483.5 658.854C488.94 656.354 492.57 651.424 490.63 645.524L490.56 645.244ZM538.94 590.544C537.1 585.294 531.9 584.864 526.37 585.454C519.94 586.094 513.52 586.824 507.06 587.624C494.83 588.774 495.56 595.894 497.56 606.464C498.95 614.914 499.64 623.474 501.32 631.934C503.56 642.894 506.92 645.674 517.47 644.664C525.09 643.384 535.66 643.464 540.77 637.044C544.55 631.614 543.73 622.734 542.96 615.924C541.49 607.584 540.97 599.004 539.03 590.794L538.94 590.544ZM571.86 585.594C547.56 581.964 553.89 596.104 555.39 612.474C555.88 616.784 555.89 620.914 555.28 625.094C554.81 629.224 553.6 634.334 556.1 637.924C558.53 641.334 564.27 641.744 569.6 642.574C576.98 643.094 588.04 647.964 594.35 645.324C597.67 643.474 599.11 639.314 600.9 634.774C602.74 629.674 604.46 624.154 606 618.684C611.44 600.334 610.16 591.154 589.74 588.094C583.97 587.014 577.84 586.274 572.16 585.624L571.86 585.594ZM644.7 611.414C642.18 608.764 639.37 606.514 636.46 604.314C629.73 599.144 623.69 594.334 622.49 605.564C620.72 619.574 617.39 631.284 611.96 642.894C606.49 654.174 611.59 657.954 622.4 660.364C630.36 662.294 638.42 664.884 646.15 663.434C652.14 662.214 658.1 658.574 660.26 653.604C661.7 650.014 660.96 646.284 660.26 642.504C657.92 631.814 652.29 619.424 644.93 611.634L644.72 611.414L644.7 611.414Z" fill="#010101"/>
<path d="M395.95 428.67C401.57 429.28 407.23 429.47 412.87 429.85C422.76 430.97 433.67 429.89 441.47 436.29C442.93 437.48 435.51 449.04 432.66 456.01C421.71 482.77 439.19 512.9 467.76 516.77C483.65 518.92 501.43 507.51 502.65 492.25C504.01 475.23 502.34 457.85 489.38 444.74C463.49 418.55 430.81 412.57 395.68 414.87C391.79 415.13 388.92 417.23 388.63 421.25C388.28 426.16 391.69 428.22 395.96 428.68L395.95 428.67Z" fill="#010101"/>
<path d="M610.63 486.17C621.85 492.48 631.67 488.02 640.62 480.77C662.51 463.02 660.56 431.66 636.1 417.26C627.12 411.97 627.04 408.26 635.4 403.3C642.87 398.87 650.55 394.81 658.07 390.46C660.91 388.82 665.48 387.97 664.12 383.32C662.77 378.72 658.61 378.36 654.47 378.96C652.75 379.21 651.03 379.53 649.34 379.95C619.89 387.44 591.63 422.02 589.98 452.53C589.32 468.36 597.66 478.86 610.62 486.16L610.63 486.17Z" fill="black"/>
<path d="M557.69 702.03C555.33 711.62 542.46 709.35 534.82 710.04C523.72 710.34 513.78 710.27 503.41 706.7C499.12 705.2 494.2 703.56 491.19 700.13C487.88 696.45 489.61 691.17 494.65 690.38C500.09 689.57 505.78 691.62 511.23 691.99C521.4 693.15 532.29 692.92 543 693.01C548.86 692.96 558.39 694.09 557.72 701.78L557.69 702.02V702.03Z" fill="#060606"/>
<path d="M515.95 553.04C524.85 557.6 549.07 561.67 558.64 558.6C563.99 556.84 564.94 550.59 559.79 547.86C553 544.69 544.34 545.24 537.23 544.2C530.98 544.15 516.98 540.7 513.53 546.83C512.49 548.84 513.43 551.31 515.71 552.88L515.94 553.04H515.95Z" fill="#111111"/>
<path d="M542.04 503.71C544.98 505.75 547.98 505.14 550.37 502.88C552.56 500.81 554.18 498.13 556.26 495.92C562.72 489.05 569.82 482.35 579.82 488.32C586.48 492.29 584.6 507.06 577.15 515.46C575.72 517.08 573.92 518.36 572.34 519.85C569.25 522.76 565.05 525.02 569.59 530.38C573.68 535.21 577.48 534.75 582 531.58C592.68 524.09 598.02 513.57 599.52 502.18C600.57 484.73 590.16 471.14 575.99 470.05C561.3 468.92 541.15 483.78 539.64 496.78C539.32 499.55 539.62 502.04 542.04 503.72V503.71Z" fill="#040404"/>
<path d="M615.71 658.304C605.92 654.904 610.6 645.664 614.02 638.264C617.62 629.884 620.1 620.794 621.61 611.644C623.43 596.124 625.08 595.304 637.47 605.074C650.96 614.014 661.34 636.664 661.05 650.284C660.6 656.084 655.93 659.724 650.58 662.104C639.36 666.484 626.97 661.464 615.98 658.424L615.71 658.314L615.71 658.304Z" fill="#FCFCFC"/>
<path d="M579.34 644.374C574.73 643.284 570.23 642.654 565.59 641.974C559.41 641.214 554.54 638.984 554.61 632.874C554.5 629.474 555.27 626.024 555.57 622.634C556.78 612.864 552.75 602.004 553.82 592.144C555.04 583.534 564.91 584.974 572.01 585.604C577.76 586.254 583.92 587.004 589.75 588.094C608.07 591.484 611.55 597.024 606.93 615.204C605.24 621.774 603.12 628.594 600.91 634.774C599.62 638.114 598.44 641.484 596.05 644.064C592.62 647.824 585.48 645.624 579.65 644.454L579.34 644.384L579.34 644.374Z" fill="#FCFCFC"/>
<path d="M543.09 631.364C541.3 643.294 526.88 643.194 517.48 644.674C506.93 645.684 503.58 642.904 501.33 631.944C499.56 622.964 498.86 613.904 497.32 604.944C495.35 595.014 495.73 588.794 506.75 587.684C513.1 586.874 519.411 586.174 525.741 585.524C532.99 584.524 538.81 585.814 539.82 594.094C540.99 606.364 544.8 618.654 543.13 631.074L543.07 631.364L543.09 631.364Z" fill="#FCFCFC"/>
<path d="M487.76 656.104C482.51 660.084 475.94 662.394 469.94 665.074C458.06 670.204 452.02 667.034 448.72 655.134C445.48 644.184 440.96 632.014 439.3 619.984C437.09 606.184 441.44 596.894 457.83 593.524C463.09 592.404 468.99 591.124 474.4 591.234C483.35 591.314 482.63 601.324 483.19 607.724C483.73 616.774 485.15 625.594 487.44 634.324C488.94 641.594 494.49 650.394 487.98 655.924L487.77 656.114L487.76 656.104Z" fill="#FDFDFD"/>
<path d="M426.81 678.704C398.23 684.254 376.79 657.144 393.07 631.914C398.08 624.184 405.07 618.284 413 613.544C415.45 612.124 418.73 610.504 421.29 612.064C425.3 614.794 426.53 624.404 428.57 629.664C432.16 642.234 436.94 654.444 440.41 667.044C442.98 675.934 435.11 677.304 427.13 678.654L426.81 678.704Z" fill="#FCFCFC"/>
<path d="M643.5 185.57C636.57 185.11 629.57 184.16 622.64 184.28C548.56 185.32 475.82 197.04 403.67 212.81C334.99 227.81 267.59 247.29 203.02 275.54C192.77 280.02 180.9 284.01 175.84 294.22C166.08 313.76 160.62 334.99 157.16 356.68C156.18 362.75 157.59 366.13 163.54 368.86C188.27 380.18 208.51 397.36 224.46 419.14C230.56 427.48 235.73 424.54 244.84 420.28C280.88 403.44 320.89 391.02 359.12 380.59C456.39 354.02 550.36 336.87 651.04 330.12C674.94 328.52 702.13 332.42 724.83 342.57C730.84 345.24 736.46 349.13 732.25 356.37C728.63 362.57 723.51 358.92 718.72 356.25C707.43 349.99 704.21 351.99 704 364.87C703.94 368.37 704.83 371.9 704.52 375.33C703.72 385.15 708.14 386.83 717.1 385.55C754.31 380.3 776.83 353.25 775.57 314.44C773.24 242.96 717.19 187.93 643.51 185.57H643.5Z" fill="white"/>
<path d="M651.89 164.09C643.02 164.07 634.04 163.36 625.13 163.42C622.51 163.24 618.59 163.77 617.15 161.33C614.98 152.14 609.57 141.48 594.65 119.74C588.27 110.45 582.67 102.7 575.82 93.35C574.89 92.14 573.39 89.68 574.18 88.87C574.65 88.19 576.03 88.12 577.86 88.5C611.79 99.04 639.82 121.22 655.41 153.22C657.88 158.11 659.85 163.86 652.13 164.08L651.89 164.1V164.09Z" fill="#FEFEFE"/>
<path d="M598.22 162.87C597.26 164 594.78 164.18 593.06 164.26C579.4 164.73 565.69 165.61 552.08 166.9C541.12 168.6 542.32 161.06 539.04 153.14C536 144.56 532.1 135.14 528.81 128.19C521.62 112.93 512.78 98.33 505.63 83.02C502.98 75.48 513.65 76.56 518.34 76.64C539.51 77.1 555.59 87.09 566.22 105.39C575.89 120.38 588.38 141.83 597.04 157.44C597.95 159.02 599.27 161.69 598.3 162.76L598.22 162.86V162.87Z" fill="#FEFEFE"/>
<path d="M523.57 170.13C522.28 171.91 519.26 172.09 517.08 172.43C505.86 173.89 494.65 175.56 483.47 177.39C474.58 179.3 473.67 174.34 472.05 167.05C466.31 142.88 454.78 112.84 445.73 89.3C445.11 87.17 444.9 84.64 446.15 83.06C447.08 81.75 448.67 80.93 450.7 80.3C454.91 79.07 459.76 78.25 464.18 77.49C484.57 73.08 487.39 84.94 495.93 100.24C505.48 118.05 513.15 136.7 519.62 155.8C520.69 158.65 522.17 162.03 523.33 165.11C523.9 166.63 524.41 168.84 523.66 169.99L523.57 170.13Z" fill="#FEFEFE"/>
<path d="M454.25 181.27C453.2 182.79 450.98 183.49 449.06 183.88C436.25 186.32 423.31 188.89 410.47 191.57C404.78 192.97 401.14 192.14 400.38 185.69C396.71 165.17 392.17 137.6 389.3 117.23C388.58 111.41 387.19 104.18 390.99 99.23C394.02 95.47 399.39 93.59 404.12 91.99C409.77 90.24 417.91 87.18 423.05 88.66C429.97 90.65 432.76 104.47 435.22 111.36C438.61 122.34 442.47 134.65 446.55 147.91C448.99 155.87 451.35 163.61 453.28 170.32C454.02 173.77 456.16 177.78 454.36 181.11L454.26 181.26L454.25 181.27Z" fill="#FEFEFE"/>
<path d="M382.52 197.46C381.11 199.21 378.42 199.74 376.24 200.32C367.1 202.6 357.97 205.05 348.9 207.53C346.39 208.18 343.1 208.97 341.21 206.91C340.16 205.82 339.62 203.78 339.31 202.11C335.71 183.22 334.2 156.79 334.92 137.8C335.28 123.46 340.1 117.76 353.16 112.16C356.24 110.68 359.3 109.15 362.36 107.61C366.05 105.91 369.64 103.29 372.11 104.76C373.7 105.97 373.7 108.64 373.81 110.62C373.99 119.37 374.55 127.93 375.4 136.33C376.98 152.68 379.75 167.34 382.18 183.7C382.44 188 384.75 193.39 382.64 197.3L382.53 197.45L382.52 197.46Z" fill="#FEFEFE"/>
<path d="M322.54 214.53C321.46 215.98 319.41 216.66 317.66 217.21C312.01 218.84 306.19 220.42 300.48 222.01C292.28 223.86 284.57 227.95 276.43 229.77C273.08 230.08 272.73 226.51 272.75 223.77C272.65 208.82 275.53 189.15 277.1 174.69C277.58 166.38 279.46 158.79 286.14 153.23C293.99 145.76 303.2 139.92 313.22 133.08C314.66 132.13 316.9 130.66 318.27 131.27C319.87 132.39 319.23 135.29 319.12 137.16C317.91 146.92 316.8 155.42 316.47 164.23C315.86 177.98 319.54 196.09 322.72 208.89C323.17 210.7 323.69 212.8 322.65 214.4L322.55 214.54L322.54 214.53Z" fill="#FEFEFE"/>
<path d="M256.7 193.61C254.85 203.09 254.45 214.54 254.07 224.59C253.65 232.52 255.49 238.65 246.99 241.45C229.88 248.23 212.78 255.61 196.25 264.58C193.83 265.86 189.42 268.18 191.16 263.63C199.27 241.5 230.66 198.83 254.29 178.82C261.7 173.62 257.27 189.85 256.74 193.38L256.69 193.62L256.7 193.61Z" fill="#FEFEFE"/>
<path d="M709.86 290.76C710.37 294.05 710.83 297.57 713.17 299.55C715.91 301.92 720.85 301.33 722.78 298.46C725.48 294.33 724.96 288.19 724.33 283.41C721.61 265.36 718.98 246.52 708.7 229.82C706.49 226.49 703.98 221.86 699.66 221.52C697.27 221.37 694.99 223.04 694.53 225.31C693.88 228.92 696.43 232.43 697.69 235.73C705.29 253.16 707.24 271.9 709.82 290.45L709.86 290.75V290.76Z" fill="#050505"/>
<path d="M627.62 234.46C624.99 230.32 622.2 226.16 619.07 222.32C617.76 220.78 616.23 219.27 614.31 218.58C611.89 217.64 608.64 218.63 607.83 221.24C607.06 223.56 608.64 226.34 609.9 228.46C621.87 247.74 625.87 269.27 627.58 291.36C627.91 294.58 628.64 298.49 631.57 300.14C634.46 301.83 638.74 301.09 640.52 298.38C644.02 292.09 641.15 284.32 640.71 277.64C638.84 262.81 636.05 247.66 627.78 234.74L627.62 234.48V234.46Z" fill="#060606"/>
<path d="M504.77 226.24C501.44 228.35 503.19 233.06 504.96 235.95C519.3 259.49 526.91 285.57 531.86 312.42C532.57 316.41 535 321.18 539.6 320.44C546.46 319.08 545.34 309.61 544.19 304.32C538.51 279.42 531.11 254.39 515.43 232.52C513.14 229.33 509.24 224.06 504.97 226.12L504.76 226.24H504.77Z" fill="#050505"/>
<path d="M419.63 244.92C413.55 236.08 404.81 241.39 409.91 251.04C421.56 276.63 432.26 302.56 436.17 330.55C436.69 334.23 438.16 339.05 442.3 339.35C444.73 339.59 447 337.97 448.04 335.41C450.69 328.43 447.58 320.91 446.46 313.84C441.17 289.72 433.23 265.97 419.8 245.17L419.62 244.92H419.63Z" fill="#040404"/>
<path d="M325.96 268.62C324 262.02 314.67 260.16 315.34 268.94C322.18 296.86 331.53 324.16 339.43 351.79C340.88 356.55 342.84 363.5 348.91 363.26C351.53 363.17 353.74 361.39 354.08 359.02C354.48 356.52 353.4 353.75 352.67 351.28C343.93 323.86 335.23 296.16 326.07 268.87L325.96 268.61V268.62Z" fill="#060606"/>
<path d="M240.33 294.59C237.96 286.01 226.99 284.82 227.99 295.42C236.34 321.97 240.4 349.97 252.07 375.43C255.47 381.2 260.85 396.85 268.71 395.59C271.11 395.25 272.77 393.37 272.74 391.1C272.74 388.47 271.22 385.76 270.22 383.26C257.91 354.63 250.5 324.23 240.43 294.86L240.33 294.59Z" fill="#040404"/>
<path d="M311.197 531.5C327.638 490.757 397.364 493.167 430.198 492C409.698 518 397.198 526.5 388.198 543.5C375.492 567.5 373.198 593 343.698 593C321.237 593 299.697 560 311.197 531.5Z" fill="#D3F4FF" stroke="black" stroke-width="14" stroke-linejoin="round"/>
<path d="M749.305 499.243C735.448 464.954 676.675 466.982 649 466C666.279 487.881 676.816 495.035 684.402 509.342C695.111 529.54 697.045 551 721.911 551C740.843 551 758.998 523.228 749.305 499.243Z" fill="#D3F4FF" stroke="black" stroke-width="14" stroke-linejoin="round"/>
<path d="M331 561C328.5 550.5 328 528.5 346 524.5" stroke="white" stroke-width="14" stroke-linecap="round" stroke-linejoin="round"/>
<path d="M698.5 488.5C706 488.5 714 492 720 497.5" stroke="white" stroke-width="14" stroke-linecap="round" stroke-linejoin="round"/>
</g>
<defs>
<clipPath id="clip0_398_261">
<rect width="804.68" height="781.45" fill="white"/>
</clipPath>
</defs>
</svg>
