<?xml version="1.0" encoding="utf-8"?>
<!-- Generator: Adobe Illustrator 27.9.3, SVG Export Plug-In . SVG Version: 9.03 Build 53313)  -->
<svg version="1.1" xmlns="http://www.w3.org/2000/svg" xmlns:xlink="http://www.w3.org/1999/xlink" x="0px" y="0px"
	 viewBox="0 0 625 1022.1" style="enable-background:new 0 0 625 1022.1;" xml:space="preserve">
<style type="text/css">
	.st0{display:none;}
	.st1{fill:#FCFCFC;}
	.st2{display:inline;}
	.st3{fill:none;stroke:#231F20;stroke-width:5;}
	.st4{fill:#FEFEFE;}
	.st5{fill:#010101;}
	.st6{fill:#FBFBFB;}
	.st7{fill:#F5F5F5;}
	.st8{fill:#F6F6F6;}
	.st9{fill:#CBCBCB;}
	.st10{fill:#040404;}
	.st11{fill:#060606;}
	.st12{fill:#111111;}
	.st13{fill:#020202;}
	.st14{fill:#050505;}
	.st15{fill:#030303;}
	.st16{fill:#FDFDFD;}
	.st17{fill:none;stroke:#000000;stroke-width:5;}
	.st18{fill:#FFFFFF;}
	.st19{fill:#232323;stroke:#FFFFFF;stroke-miterlimit:10;}
	.st20{fill:#010101;stroke:#000000;stroke-width:5;}
	.st21{fill:#0D0D0D;}
	.st22{fill:#0E0E0E;}
	.st23{fill:#F8F8F8;}
	.st24{fill:#F4F4F4;}
	.st25{fill:#EDEDED;}
	.st26{fill:#EBEBEB;}
	.st27{fill:#F9F9F9;}
	.st28{fill:#363636;}
	.st29{fill:#101010;}
	.st30{fill:#0A0A0A;}
	.st31{fill:#070707;}
	.st32{fill:#0C0C0C;}
	.st33{fill:#FAFAFA;}
	.st34{fill:#121212;}
</style>
<g id="sketch" class="st0">
</g>
<g id="character" class="st0">
</g>
<g id="Retouch">
</g>
<g id="Laptop_00000123402099855315949920000003852091219907234211_">
</g>
<g id="dark">
</g>
<g id="empty">
</g>
<g id="Secondary">
</g>
<g id="Submark">
</g>
<g id="coffee">
</g>
<g id="paintbrush">
	<path class="st18" d="M488.4,505l-3.9-5c6.1-0.3-0.5-5.8-2.8-12c-3.9-10.9-13-19.9-19.4-29.3c-3.5-5.1-6.1-2.9-10.5,1.4
		c-18.1,17.9-39.8,29.7-64.3,36.1c-61,16-116.9,2.4-169.4-29.5c-4.8-2.9-7.2-3.4-10.9,1.2c-13.1,16.3-29.8,28.4-47.8,38.8
		c-2.5,1.5-5,2.8-7.9,1.2c-3.4-1.8-3.1-5-2.9-8.2c0.5-6.6,0.9-13.3,1.5-22.2c-7.6,7.9-15,14.1-22.7,19.4l-17.3-2.3
		c0.7-5.5,2.4-11.1,0.5-18.2c-9.9,14.9-17.5,29.4-22.5,45.1c-17.6,55.7-16,108.6,23.6,155.7c20.3,24.1,46.1,38.7,76.7,45.2
		c12.7,2.7,25.4,3.9,40,3.5c-3.3-3.3-5.4-5.4-7.5-7.6c-13.5-14.2,7.1-17.3,8.2-37.1c1.3-23.3,19.3-4.9,42.4-7
		c1.6-0.1-16-44-13.4-44.4l16.9,7.4l21.2,17.9l-21.2,26.8l30.1,42.4l67-5.6l51.3-17.9l12.8-17.6l4.2-22.5l5.6-20.1l8.4-16.2l-14-6.1
		l-10.6-6.1l2.2-15.1l5.6-8.4l9.5-6.1l12.8-6.1l15.6-5l13.4-3.9l0.6-18.4L488.4,505z"/>
	<g>
		<path id="Outlines_00000163762482494119158030000005206567317333808259_" class="st17" d="M455.2,721.4l3.6-7.3l-3.3-60.2
			l34.8,6.8l9.6-8.7l8-13.4l3.9-13.2l1.3-13.7L510,597l-4.7-12.3l-8.4-9.5l1.1-67.8c-0.5,0-6.4-5.7-6.8-5.7
			c-1.7,0.1-2.1-2.2-3.2-2.7c-0.2-0.1,1.3-1.2,1.1-1.3c-1-0.6,0.3-3.8-0.1-5.4c-0.1-0.2-0.1-0.5-0.2-0.7c0-0.1,0-0.1,0-0.1
			c0-0.2-0.1-0.5-0.1-0.8c0,0,0-0.1,0-0.1c0-0.3,0-0.6-0.1-1c0-0.7-0.7-0.9-0.8-1.5c-0.1-0.6-0.8-1-0.9-1.7
			c-0.2-0.6-0.4-1.2-0.6-1.9c-0.2-0.6-0.5-1.2-0.8-1.8c-0.2-0.4-0.4-0.8-0.6-1.1c-0.6-1.1-1.2-2.2-1.9-3.3c-0.5-0.9-0.6-1.9-1.1-2.8
			c-0.5-0.9-0.4-2.5-1-3.4c-0.8-1.4-1.7-2.7-2.5-4c-0.5-0.8-1.1-1.7-1.7-2.5c-2.8-4.1-5.9-8-9-11.7c-1.3-1.5-2.5-3-3.8-4.4v0
			c0.2-0.3,0.4-0.5,0.6-0.7l0.2-0.2c0,0,0,0,0,0c0.2-0.2,0.5-0.4,0.7-0.5c0.1-0.1,0.2-0.1,0.4-0.2c0.9-0.3,1.8-0.1,2.5-0.1
			c0.5,0,1,0,1.6-0.1c0.8,0,1.7-0.1,2.5-0.1c0.7,0,1.5-0.1,2.2-0.1c0.7-0.1,1.3-0.1,1.9-0.2c1.5-0.1,3-0.3,4.6-0.5
			c0.9-0.1,1.8-0.2,2.8-0.4c0.9-0.1,1.8-0.2,2.7-0.4c2.2-0.3,4.3-0.7,6.5-1.1c2.6-0.5,5.2-1,7.8-1.6c1.1-0.2,2.3-0.5,3.4-0.7
			c1.1-0.3,2.2-0.5,3.4-0.8c0.2-0.1,0.5-0.1,0.7-0.2c0.4-0.1,0.8-0.2,1.2-0.4c0.3-0.1,0.6-0.2,0.9-0.3c1.1-0.4,2-1,2.8-1.6
			c3.8-3,3.4-7.8-1.2-12.3c-0.2-0.2-0.4-0.3-0.5-0.5c-0.4-0.4-0.8-0.8-1.2-1.1c-0.4-0.4-0.8-0.8-1.2-1.2c-0.8-0.8-1.5-1.6-2.2-2.5
			c-0.3-0.4-0.6-0.8-0.9-1.2c-0.3-0.4-0.5-0.8-0.8-1.3c-0.4-0.7-0.7-1.4-0.9-2.1c3.9-2.2,8-4.1,11.6-6.5c0.5-0.3,1-0.7,1.5-1.1
			c0.3-0.2,0.6-0.4,0.9-0.7c0.3-0.2,0.5-0.4,0.8-0.7c0.5-0.4,0.9-0.9,1.3-1.3c0.2-0.3,0.5-0.6,0.7-0.8c1.7-2.4,1.6-4.6-0.2-6.7
			c-0.1-0.1-0.2-0.3-0.4-0.4c-1-1-2.3-1.9-4-2.8c-6-3.2-11.6-7-16.9-11.2c-0.8-0.6-1.4-1.2-2.1-1.8c-0.2-0.2-0.4-0.4-0.6-0.6
			c-0.9-0.9-1.6-1.9-2.1-3c-0.1-0.2-0.2-0.4-0.3-0.6c-0.2-0.4-0.4-0.9-0.5-1.4v0c-0.1-0.2-0.1-0.5-0.2-0.7c0-0.1-0.1-0.2-0.1-0.3
			c0,0,0-0.1,0-0.1c-0.1-0.3-0.1-0.5-0.2-0.8c-0.1-0.3-0.1-0.7-0.1-1c0-0.4,0-0.7-0.1-1.1c0-0.5,0-1,0-1.5c0.2-2.4,0-4.8-0.4-7.1
			c-0.1-0.5-0.1-0.9-0.2-1.4c-0.1-0.9-0.3-1.8-0.5-2.8c-0.1-0.4-0.2-0.9-0.3-1.3c-0.1-0.5-0.2-1-0.2-1.4c-0.1-0.9,0.1-1.6,0.4-2.3
			c0.1-0.2,0.1-0.3,0.2-0.5c0,0,0-0.1,0.1-0.1c0.1-0.2,0.2-0.3,0.3-0.4c0.2-0.3,0.5-0.5,0.8-0.8c0.2-0.2,0.4-0.3,0.6-0.5
			c0.1-0.1,0.2-0.2,0.3-0.3c1.4-1,2.7-2.1,3.8-3.3c0.6-0.6,1.1-1.2,1.7-1.8c0.5-0.6,1-1.3,1.5-1.9c0.6-0.9,1.2-1.8,1.8-2.7
			c0.6-0.9,1.1-1.9,1.6-2.9c0.7-1.5,1.4-3,2-4.5c0.6-1.5,1.1-3.1,1.5-4.7c0.5-1.9,1-3.9,1.5-5.8c0.4-1.9,0.8-3.8,1.2-5.8
			c0.1-0.6,0.2-1.3,0.3-1.9c0.2-1.3,0.4-2.6,0.5-3.8c1.2-10.2,1-20.3-0.4-30.4v0c-0.3-2.1-0.6-4.1-1.1-6.1v0
			c-0.1-0.6-0.3-1.3-0.4-1.9c-0.4-1.9-0.9-3.8-1.3-5.7c-0.4-1.5-0.8-3.1-1.2-4.6c-0.3-1.2-0.7-2.4-1.1-3.5c-0.3-0.8-0.5-1.7-0.8-2.6
			c-0.8-2.5-1.8-5.1-2.7-7.6c-1.4-3.5-2.6-6.3,0.3-10c2.2-2.7,3.9-5.6,5.4-8.6c0.6-1.2,1.2-2.5,1.7-3.8c0.1-0.2,0.1-0.3,0.2-0.5
			c0.2-0.6,0.4-1.2,0.6-1.8c0.3-0.8,0.5-1.7,0.8-2.5c0.2-0.9,0.5-1.7,0.6-2.6c0.5-2.5,0.9-5,1.1-7.6c0.2-2.8,0.3-5.7,0.2-8.5
			c0-0.5-0.1-1-0.1-1.6c-0.2-3.1-0.5-6.2-0.9-9.1c-0.1-1-0.3-2-0.5-3c-0.2-1-0.4-1.9-0.5-2.9c-0.1-0.5-0.2-1-0.3-1.4
			c-0.2-1-0.4-1.9-0.7-2.8c-0.1-0.5-0.2-0.9-0.4-1.4c-0.4-1.4-0.8-2.8-1.2-4.2c-0.4-1.4-0.9-2.7-1.4-4.1c-0.3-0.9-0.7-1.8-1-2.6
			c-0.2-0.4-0.4-0.9-0.5-1.3c-0.7-1.7-1.5-3.4-2.4-5.1c-0.2-0.4-0.4-0.8-0.6-1.2c-0.4-0.8-0.9-1.7-1.3-2.5c-0.7-1.2-1.4-2.5-2.1-3.7
			c-0.5-0.8-1-1.6-1.5-2.4c-1-1.6-2.1-3.1-3.2-4.7c-0.6-0.8-1.1-1.5-1.7-2.3c-2.9-3.8-6.1-7.3-9.6-10.8c-4.2-4.1-8.7-8.1-13.6-11.8
			c-1.1-0.8-2-1.6-2.9-2.5c-1.3-1.3-2.4-2.7-3.4-4.2c-0.2-0.3-0.3-0.5-0.5-0.8c-0.2-0.4-0.5-0.9-0.7-1.4c-0.4-0.9-0.8-1.9-1.2-3
			c-3.6-10.4-8-20.1-13.2-29.1c-0.7-1.1-1.3-2.2-2-3.4c-0.7-1.1-1.4-2.2-2-3.3c-0.7-1.1-1.4-2.2-2.1-3.2c-2.2-3.2-4.5-6.3-6.8-9.3
			c-3.2-4-6.6-7.8-10.2-11.4c-1.3-1.4-2.7-2.7-4.1-4c-1-0.9-2-1.8-3-2.7c-2.4-2.1-4.8-4.2-7.3-6.2c-7.1-5.6-14.8-10.7-23.1-15.2
			c0,0,0,0,0,0c-2.4-1.3-4.8-2.5-7.2-3.8c-0.8-0.4-1.6-0.8-2.4-1.2c-2.4-1.2-4.9-2.2-7.3-3.3c-4.9-2.1-9.8-3.9-14.8-5.5
			c-2.5-0.8-5-1.6-7.5-2.2c-0.8-0.2-1.7-0.5-2.5-0.7c-1.7-0.4-3.3-0.8-5-1.2c0,0,0,0,0,0c-1.7-0.4-3.4-0.8-5-1.1
			c-1.7-0.3-3.4-0.7-5-0.9c-22-3.8-44.5-3.4-67.1,0.9c-5.9,1.1-11.7,2.4-17.3,3.8C241,13.6,236,15,231,16.5
			c-3.9,1.2-7.8,2.4-11.6,3.8c-4.2,1.5-8.3,3-12.4,4.6c-2.1,0.8-4.2,1.7-6.3,2.6c-3.6,1.6-7.2,3.2-10.8,4.9c-2.3,1.1-4.7,2.3-7,3.5
			c-1.2,0.6-2.3,1.2-3.4,1.8c-1.7,0.9-3.4,1.9-5.1,2.8c-1.7,1-3.4,1.9-5,2.9c-3.3,2-6.6,4-9.8,6.2c-2.1,1.4-4.2,2.9-6.3,4.4
			c-2,1.5-4.1,3-6.1,4.5c-3.1,2.3-6.1,4.8-9.1,7.3c-2.5,2.1-4.9,4.2-7.3,6.4c-2.4,2.1-4.7,4.3-7,6.6c-0.9,0.9-1.8,1.8-2.8,2.7
			c-20.9,21.2-38.6,46.6-52.8,76.5c-11.8,24.8-19.2,50.7-21.7,78c-0.1,1.2-0.3,2.2-0.6,3.2c-0.5,1.3-1.2,2.4-2.2,3.3
			c-0.5,0.4-1,0.8-1.5,1.2c-0.1,0.1-0.2,0.1-0.3,0.2c-0.1,0.1-0.2,0.1-0.3,0.2c-1.5,0.9-2.9,1.8-4.2,2.7c-1.4,0.9-2.7,1.9-3.9,2.9
			c-7.6,6.1-13.5,13.6-18,22.1c-0.5,1-1,1.9-1.5,2.9c-1.4,2.9-2.7,6-3.8,9.1c-0.7,1.8-1.3,3.7-1.8,5.5c-0.3,0.9-0.5,1.9-0.8,2.8
			s-0.5,1.9-0.7,2.8c-0.5,2.2-1,4.5-1.4,6.7s-0.7,4.5-0.9,6.8c-0.6,6.1-0.7,12.1-0.4,18.2c0,0.6,0.1,1.1,0.1,1.7
			c0.1,1.7,0.3,3.4,0.5,5.2c0.1,0.8,0.2,1.5,0.3,2.3c0.1,0.8,0.2,1.5,0.3,2.3c0.1,0.7,0.2,1.3,0.3,2c0.4,2.5,0.9,5,1.4,7.5l0.5,2.5
			c0.3,1.3,0.6,2.6,0.9,3.9c0.2,0.7,0.3,1.3,0.5,1.9c0.3,1.3,0.7,2.5,1,3.8c0.4,1.3,0.8,2.5,1.1,3.8c0.4,1.2,0.8,2.5,1.2,3.7
			c0,0,0,0,0,0c0.4,1.2,0.9,2.4,1.3,3.6c3.9,10.2,8.8,19.7,14.8,28.5c1.1,1.5,2.2,3.1,3.3,4.5c0.4,0.5,0.8,1,1.2,1.5
			c0.8,1,1.6,2,2.4,2.9c1.2,1.4,2.5,2.8,3.8,4.2c0.9,0.9,1.8,1.8,2.7,2.7c8.6,8.5,18.7,16,30.5,22.3c2.2,1.1,4,2.1,5.6,3
			c0.4,0.2,0.8,0.4,1.1,0.6c0.5,0.3,1,0.6,1.5,0.9c0.6,0.4,1.2,0.8,1.6,1.1c0.4,0.3,0.7,0.5,1,0.8c0.1,0.1,0.2,0.2,0.3,0.3
			c1.9,2,1.8,4,0,7.4c-0.3,0.5-0.6,1-0.9,1.6c-0.2,0.3-0.3,0.6-0.5,0.9c-0.9,1.5-2,3.2-3.3,5.2v0c-0.3,0.4-0.5,0.8-0.8,1.2
			c-0.4,0.6-0.9,1.2-1.3,1.8c-0.2,0.2-0.3,0.4-0.4,0.6c-1.2,1.8-2,3.6-0.3,5.9c0.1,0.2,0.3,0.4,0.5,0.5c0.2,0.2,0.4,0.4,0.6,0.5
			c0.2,0.2,0.4,0.3,0.7,0.4c0.2,0.1,0.4,0.2,0.5,0.2c2,0.7,4.3,0.1,6.4-0.3c2.4-0.4,4.8-0.8,7.3-1.2c2.9-0.5,5.8-1,9-1.6
			c1.3-0.2,2.7-0.5,4.2-0.7c-6.5,10.8-12.4,20.1-17.1,30.1c-1.6,3.4-3.1,6.9-4.5,10.3c-0.4,1.1-0.9,2.2-1.3,3.2
			c-1.3,3.2-2.4,6.5-3.5,9.7c-0.4,1.2-0.8,2.5-1.2,3.7c-0.3,1-0.6,2-0.9,3c-0.3,0.9-0.5,1.7-0.8,2.6c0,0,0,0,0,0
			c-0.2,0.6-0.3,1.1-0.5,1.7c-0.6,2.2-1.2,4.4-1.7,6.7c-0.2,1-0.5,1.9-0.7,2.9c-0.8,3.8-1.6,7.6-2.2,11.4c-0.2,1-0.3,1.9-0.4,2.9
			c-0.1,0.4-0.1,0.8-0.2,1.2c-0.1,0.8-0.2,1.6-0.3,2.5c-0.1,1-0.2,2-0.3,3c-0.1,0.6-0.1,1.2-0.2,1.8c-0.1,0.7-0.1,1.3-0.2,2
			c0,0.5-0.1,1.1-0.1,1.6c-0.1,0.7-0.1,1.5-0.2,2.2c0,0.5-0.1,1.1-0.1,1.6c0,0.3,0,0.6,0,0.9c-0.1,0.9-0.1,1.9-0.1,2.8
			c0,0.8,0,1.6-0.1,2.4c0,0.5,0,1.1,0,1.6v0.6c-0.2,15.5,1.7,31.2,5.8,47.2c0.7,2.9,1.6,5.7,2.4,8.5c0.3,0.9,0.6,1.8,0.9,2.8
			c0.4,1.2,0.8,2.4,1.3,3.6c12.5,33.4,36.1,57.7,67.7,75.7c0.4,0.2,0.8,0.4,1.2,0.6c0.2,0.1,0.4,0.2,0.5,0.3
			c0.2,0.1,0.3,0.2,0.5,0.4c0.1,0.1,0.1,0.1,0.2,0.2l0.1,0.1c0.1,0.1,0.1,0.2,0.2,0.3c0.1,0.2,0.3,0.4,0.3,0.7
			c0.1,0.2,0.1,0.3,0.1,0.5c0.1,0.3,0.1,0.7,0,1.1c0,0.4-0.1,0.8-0.1,1.2c0,0,0,0,0,0c-0.1,1.3,0,2.5,0.1,3.7c0,0.4,0.1,0.8,0.1,1.2
			c0,0.4,0.1,0.8,0.2,1.2c0.3,1.6,0.7,3.2,1.2,4.8c1.7,5.2,4.4,10,6.9,14.9c14.1,27.8,31,53.9,49.5,79c1.5,2.1,4.1,4.1,2.3,6.9
			c-0.1,0.2-0.3,0.4-0.5,0.7c-0.2,0.3-0.6,0.6-0.9,1c-22.6,20.6-18.5,50.7-4.6,70.3c2.1,3,4.4,5.9,6.7,8.6c0.5,0.6,1,1.2,1.5,1.7
			c0.5,0.6,1,1.1,1.5,1.6c0.7,0.7,1.4,1.4,2.1,2.1c0.2,0.2,0.3,0.3,0.5,0.5c0.5,0.5,1,1,1.6,1.5c1.8,1.7,3.6,3.2,5.4,4.7
			c0.7,0.6,1.5,1.2,2.2,1.7c0.8,0.6,1.5,1.1,2.3,1.7c1.1,0.8,2.3,1.6,3.5,2.3c2.4,1.5,4.8,2.9,7.3,4.1c0.7,0.4,1.4,0.7,2.1,1
			c0.5,0.3,1.1,0.5,1.7,0.8c0.8,0.4,1.7,0.7,2.6,1.1c0.9,0.3,1.7,0.7,2.6,1c0.4,0.2,0.9,0.3,1.3,0.5c0.8,0.3,1.5,0.5,2.3,0.8
			c2.8,0.9,5.6,1.7,8.5,2.3c0.9,0.2,1.9,0.4,2.8,0.6c1.4,0.3,2.8,0.5,4.2,0.7c1,0.1,1.9,0.3,2.9,0.4c7,0.8,14.2,1,21.8,0.5
			c2.3-0.2,3.9-0.2,5,0.2c0.2,0.1,0.4,0.2,0.5,0.3c0.1,0.1,0.2,0.1,0.2,0.2c0.8,0.7,0.9,2.1,0.4,4.5c-0.1,0.4-0.1,0.7-0.2,1.1
			c-3.5,16.7-1.7,27.2,7.2,36c1.8,1.8,4,3.6,6.4,5.3c2.5,1.7,5.2,3.4,8.3,5.1c0.4,0.2,0.8,0.4,1.1,0.6s0.8,0.3,1.2,0.5h0
			c4.2,1.8,8.5,3.4,12.7,4.9c0.8,0.3,1.7,0.6,2.6,0.9c5.3,1.8,10.7,3.4,16.1,4.7c1.1,0.3,2.3,0.6,3.4,0.8c1.6,0.4,3.1,0.7,4.7,1.1
			c0.5,0.1,1.1,0.2,1.6,0.3c2.9,0.6,5.9,1.1,8.8,1.6c1.4,0.2,2.9,0.4,4.3,0.6c1.3,0.2,2.7,0.4,4,0.5c0.4,0.1,0.8,0.1,1.2,0.1
			c0.5,0.1,0.9,0.1,1.4,0.1c8.4,0.9,16.8,1.3,25.4,1.2c2.7,0,5.3-0.1,8-0.2h0c3.6-0.2,7.2-0.4,10.8-0.8c0.4,0,0.7-0.1,1.1-0.1
			c1.1-0.1,2.1-0.3,3.1-0.5c0.7-0.1,1.3-0.3,2-0.4c0.7-0.2,1.3-0.3,1.9-0.5c0.6-0.2,1.2-0.4,1.8-0.6c23.9-8.3,30.3-36.8,19.1-54.6
			c-4-6.4-8.1-12.9-12.5-19.1c-1-1.4-1.9-2.8-2.9-4.1c-10.4-14.3-22.5-27.1-39.3-35.4c-0.4-0.2-0.9-0.4-1.4-0.6
			c-0.2-0.1-0.4-0.2-0.6-0.2c-0.1,0-0.2-0.1-0.2-0.1c-0.2-0.1-0.4-0.2-0.5-0.3c0,0,0,0,0,0c-0.1,0-0.1-0.1-0.2-0.1
			c-0.2-0.1-0.3-0.2-0.4-0.3c-0.1-0.1-0.1-0.1-0.2-0.2c-0.4-0.4-0.6-1-0.6-1.8c0-0.3,0-0.6,0.1-0.9c1.7-7.4,0.4-14.6-1.1-21.7
			c-0.2-0.7-0.3-1.4-0.5-2.2c0-0.2-0.1-0.4-0.1-0.6c-0.2-0.8-0.3-1.6-0.5-2.4c0-0.2-0.1-0.4-0.1-0.6c-0.3-1.4-0.6-2.8-0.8-4.2
			c-0.3-1.6-0.5-3.1-0.6-4.5c0-0.5-0.1-1-0.1-1.4c-0.1-2.7,0-5.2,0.5-7.7c0.1-0.6,0.2-1.1,0.4-1.6c0-0.1,0-0.1,0.1-0.2
			c0.4-1.5,1-3,1.8-4.5c0,0,0,0,0,0c0.2-0.4,0.4-0.9,0.7-1.3c0,0,0,0,0,0c0.4-0.6,0.8-1.3,1.2-2c0,0,0,0,0,0c0.4-0.7,0.9-1.3,1.4-2
			c0,0,0,0,0,0c0.3-0.5,0.7-0.9,1-1.4c0.7-0.9,1.5-1.9,2.4-2.8c15.6-17.1,27.7-36.6,36.6-57.6c0.9-2.1,1.8-4.2,2.6-6.3
			c0.8-2.1,1.6-4.3,2.4-6.5c0.4-1.1,0.8-2.2,1.1-3.2c0.4-1.1,0.7-2.2,1.1-3.3c0.4-1.1,0.7-2.2,1-3.3c0.7-2.2,1.3-4.4,1.9-6.7
			c0.9-3.3,1.8-6.7,2.6-10.1c0.1-0.3,0.1-0.6,0.2-0.9c0.3-1.2,1.9-12.1,2.4-13L455.2,721.4z M411.1,974.2c4.9-0.3,9.8-0.9,14.6-1.9
			l0,0c2.5-0.5,5-1.1,7.4-1.8c1.8,4.1,0.3,7.1-3.5,9.2c-3.9,2.2-10.2,3.3-17.8,3.7c-5,0.2-10.6,0.1-16.4-0.3
			c-22.5-1.7-48.5-7.9-58.8-15.8c-4.2-3.2-5.8-6.7-3.4-10.2c4.6,2.1,9.3,4.1,14.1,5.9c12.2,4.6,25,8.2,38,10.1
			C393.9,974.3,402.6,974.7,411.1,974.2z"/>
		<path id="Lines_00000160900488857987769990000000891179978427762836_" class="st5" d="M462.5,703l-3.1-24.6l19.9-43.7l31.3-21.9
			l-14.5-35.3l0.4-26.1l-1.9-47c-1.7,0.1-1.8-8.2-2.9-8.7c-0.2-0.1-0.4-0.2-0.7-0.3c-1-0.6-1.7-1.5-2.1-3.1
			c-0.1-0.2-0.1-0.5-0.2-0.7c0-0.1,0-0.1,0-0.1c0-0.2-0.1-0.5-0.1-0.8c0,0,0-0.1,0-0.1c0-0.3-0.1-0.6-0.1-1c0-0.7-0.1-1.3-0.2-1.9
			c-0.1-0.6-0.3-1.3-0.5-1.9c-0.2-0.6-0.4-1.2-0.6-1.9c-0.2-0.6-0.5-1.2-0.8-1.8c-0.2-0.4-0.4-0.8-0.6-1.1c-0.6-1.1-1.2-2.3-1.8-3.4
			c-0.5-0.9-1-1.8-1.5-2.7c-0.5-0.9-1.1-1.9-1.6-2.8c-0.8-1.4-1.7-2.7-2.5-4c-0.5-0.8-1.1-1.7-1.7-2.5c-2.8-4.1-5.8-8-9-11.7
			c-1.2-1.5-2.5-3-3.8-4.4v0c0.2-0.3,0.4-0.5,0.6-0.7l0.2-0.2c0,0,0,0,0,0c0.2-0.2,0.5-0.4,0.7-0.5c0.1-0.1,0.2-0.1,0.4-0.2
			c0.9-0.3,1.8-0.1,2.5-0.1c0.5,0,1,0,1.6-0.1c0.8,0,1.7-0.1,2.5-0.1c0.7,0,1.5-0.1,2.2-0.1c0.7-0.1,1.3-0.1,1.9-0.2
			c1.5-0.1,3-0.3,4.6-0.5c0.9-0.1,1.8-0.2,2.8-0.4c0.9-0.1,1.8-0.2,2.7-0.4c2.2-0.3,4.3-0.7,6.5-1.1c2.6-0.5,5.2-1,7.8-1.6
			c1.1-0.2,2.3-0.5,3.4-0.7s2.2-0.5,3.4-0.8c0.2-0.1,0.5-0.1,0.7-0.2c0.4-0.1,0.8-0.2,1.2-0.4c0.3-0.1,0.6-0.2,0.9-0.3
			c1.1-0.4,2-1,2.8-1.6c3.8-3,3.4-7.8-1.2-12.3c-0.2-0.2-0.4-0.3-0.5-0.5c-0.4-0.4-0.8-0.8-1.2-1.1c-0.4-0.4-0.8-0.8-1.2-1.2
			c-0.8-0.8-1.5-1.6-2.2-2.5c-0.3-0.4-0.6-0.8-0.9-1.2c-0.3-0.4-0.5-0.8-0.8-1.3c-0.4-0.7-0.7-1.4-0.9-2.1h0c3.9-2.2,8-4.1,11.6-6.5
			c0.5-0.4,1-0.7,1.5-1.1c0.3-0.2,0.6-0.4,0.9-0.7c0.3-0.2,0.5-0.4,0.8-0.7c0.5-0.4,0.9-0.9,1.3-1.3c0.2-0.3,0.5-0.6,0.7-0.8
			c1.7-2.4,1.6-4.6-0.2-6.7c-0.1-0.1-0.2-0.3-0.4-0.4c-1-1-2.3-1.9-4-2.8c-6-3.2-11.6-7-16.9-11.2c-0.8-0.6-1.4-1.2-2.1-1.8
			c-0.2-0.2-0.4-0.4-0.6-0.6c-0.9-0.9-1.6-1.9-2.1-3c-0.1-0.2-0.2-0.4-0.3-0.6c-0.2-0.4-0.4-0.9-0.5-1.4v0c-0.1-0.2-0.1-0.5-0.2-0.7
			c0-0.1-0.1-0.2-0.1-0.3c0,0,0-0.1,0-0.1c-0.1-0.3-0.1-0.5-0.2-0.8c-0.1-0.3-0.1-0.7-0.1-1c0-0.4-0.1-0.7-0.1-1.1c0-0.5,0-1,0-1.5
			c0.2-2.4,0-4.8-0.4-7.1c-0.1-0.5-0.1-0.9-0.2-1.4c-0.1-0.9-0.3-1.8-0.5-2.8c-0.1-0.4-0.2-0.9-0.3-1.3c-0.1-0.5-0.2-1-0.2-1.4
			c-0.1-0.9,0.1-1.6,0.4-2.3c0.1-0.2,0.1-0.3,0.2-0.5c0,0,0-0.1,0.1-0.1c0.1-0.2,0.2-0.3,0.3-0.4c0.2-0.3,0.5-0.5,0.8-0.8
			c0.2-0.2,0.4-0.3,0.6-0.5c0.1-0.1,0.2-0.2,0.3-0.3c1.4-1,2.7-2.1,3.8-3.3c0.6-0.6,1.1-1.2,1.7-1.8c0.5-0.6,1-1.3,1.5-1.9
			c0.6-0.9,1.2-1.8,1.8-2.7c0.6-0.9,1.1-1.9,1.6-2.9c0.7-1.5,1.4-3,2-4.5c0.6-1.5,1.1-3.1,1.5-4.7c0.5-1.9,1-3.9,1.5-5.8
			c0.4-1.9,0.8-3.8,1.2-5.8c0.1-0.6,0.2-1.3,0.3-1.9c0.2-1.3,0.4-2.6,0.5-3.8c1.2-10.2,1-20.3-0.4-30.4v0c-0.3-2.1-0.7-4.1-1.1-6.1
			v0c-0.1-0.6-0.3-1.3-0.4-1.9c-0.4-1.9-0.9-3.8-1.3-5.7c-0.4-1.5-0.8-3.1-1.2-4.6c-0.3-1.2-0.7-2.4-1.1-3.5
			c-0.3-0.8-0.5-1.7-0.8-2.6c-0.8-2.5-1.8-5.1-2.7-7.6c-1.4-3.5-2.6-6.3,0.3-10c2.2-2.7,3.9-5.6,5.4-8.6c0.6-1.2,1.2-2.5,1.7-3.8
			c0.1-0.2,0.1-0.3,0.2-0.5c0.2-0.6,0.4-1.2,0.6-1.8c0.3-0.8,0.5-1.7,0.8-2.5c0.2-0.9,0.5-1.7,0.6-2.6c0.5-2.5,0.9-5,1.1-7.6
			c0.2-2.8,0.3-5.7,0.2-8.5c0-0.5-0.1-1-0.1-1.6c-0.2-3.1-0.5-6.2-0.9-9.1c-0.1-1-0.3-2-0.5-3c-0.2-1-0.4-1.9-0.5-2.9
			c-0.1-0.5-0.2-1-0.3-1.4c-0.2-1-0.4-1.9-0.7-2.8c-0.1-0.5-0.2-0.9-0.4-1.4c-0.4-1.4-0.8-2.8-1.2-4.2c-0.4-1.4-0.9-2.7-1.4-4.1
			c-0.3-0.9-0.7-1.8-1-2.6c-0.2-0.4-0.4-0.9-0.5-1.3c-0.7-1.7-1.5-3.4-2.4-5.1c-0.2-0.4-0.4-0.8-0.6-1.2c-0.4-0.8-0.9-1.7-1.3-2.5
			c-0.7-1.2-1.4-2.5-2.1-3.7c-0.5-0.8-1-1.6-1.5-2.4c-1-1.6-2.1-3.1-3.2-4.7c-0.6-0.8-1.1-1.5-1.7-2.3c-2.9-3.8-6.1-7.3-9.6-10.8
			c-4.2-4.1-8.7-8.1-13.6-11.8c-1.1-0.8-2-1.6-2.9-2.5c-1.3-1.3-2.4-2.7-3.4-4.2c-0.2-0.3-0.3-0.5-0.5-0.8c-0.2-0.4-0.5-0.9-0.7-1.4
			c-0.4-0.9-0.8-1.9-1.2-3c-3.6-10.4-8-20.1-13.2-29.1c-0.7-1.1-1.3-2.2-2-3.4c-0.7-1.1-1.3-2.2-2-3.3c-0.7-1.1-1.4-2.2-2.1-3.2
			c-2.2-3.2-4.4-6.3-6.8-9.3c-3.2-4-6.6-7.8-10.2-11.4c-1.3-1.4-2.7-2.7-4.1-4c-1-0.9-2-1.8-3-2.7c-2.4-2.1-4.8-4.2-7.3-6.2
			c-7.1-5.6-14.8-10.7-23.1-15.2c0,0,0,0,0,0c-2.4-1.3-4.8-2.5-7.2-3.7c-0.8-0.4-1.6-0.8-2.4-1.2c-2.4-1.1-4.9-2.2-7.3-3.3
			c-4.9-2.1-9.8-3.9-14.8-5.5c-2.5-0.8-5-1.6-7.5-2.2c-0.8-0.2-1.7-0.5-2.5-0.7c-1.7-0.4-3.3-0.8-5-1.2c0,0,0,0,0,0
			c-1.7-0.4-3.4-0.8-5-1.1c-1.7-0.3-3.4-0.7-5-0.9c-22-3.8-44.5-3.4-67.1,0.9c-5.9,1.1-11.7,2.4-17.3,3.8C241,13.6,236,15,231,16.5
			c-3.9,1.2-7.8,2.4-11.6,3.8c-4.2,1.5-8.3,3-12.4,4.6c-2.1,0.8-4.2,1.7-6.3,2.6c-3.6,1.6-7.2,3.2-10.8,4.9c-2.3,1.1-4.7,2.3-7,3.5
			c-1.2,0.6-2.3,1.2-3.4,1.8c-1.7,0.9-3.4,1.9-5.1,2.8c-1.7,1-3.4,1.9-5,2.9c-3.3,2-6.6,4-9.8,6.2c-2.1,1.4-4.2,2.9-6.3,4.4
			c-2,1.5-4.1,2.9-6.1,4.5c-3.1,2.3-6.1,4.8-9.1,7.3c-2.5,2.1-4.9,4.2-7.3,6.4c-2.4,2.1-4.7,4.3-7,6.6c-0.9,0.9-1.8,1.8-2.8,2.7
			c-20.9,21.2-38.6,46.6-52.8,76.5c-11.8,24.8-19.2,50.7-21.7,78c-0.1,1.2-0.3,2.2-0.6,3.2c-0.5,1.3-1.2,2.4-2.2,3.3
			c-0.5,0.4-1,0.8-1.5,1.2c-0.1,0.1-0.2,0.1-0.3,0.2c-0.1,0.1-0.2,0.1-0.3,0.2c-1.5,0.9-2.9,1.8-4.2,2.7c-1.4,0.9-2.7,1.9-3.9,2.9
			c-7.6,6.1-13.5,13.6-18,22.1c-0.5,1-1,1.9-1.5,2.9c-1.4,2.9-2.7,6-3.8,9.1c-0.7,1.8-1.3,3.7-1.8,5.5c-0.3,0.9-0.5,1.9-0.8,2.8
			s-0.5,1.9-0.7,2.8c-0.5,2.2-1,4.5-1.4,6.7s-0.7,4.5-0.9,6.8c-0.6,6.1-0.7,12.1-0.4,18.2c0,0.6,0.1,1.1,0.1,1.7
			c0.1,1.7,0.3,3.4,0.5,5.2c0.1,0.8,0.2,1.5,0.3,2.3c0.1,0.8,0.2,1.5,0.4,2.3c0.1,0.7,0.2,1.3,0.3,2c0.4,2.5,0.9,5,1.4,7.5l0.5,2.5
			c0.3,1.3,0.6,2.6,0.9,3.9c0.2,0.7,0.3,1.3,0.5,1.9c0.3,1.3,0.7,2.5,1,3.8c0.4,1.3,0.8,2.5,1.1,3.8c0.4,1.2,0.8,2.5,1.2,3.7
			c0,0,0,0,0,0c0.4,1.2,0.9,2.4,1.3,3.6c3.9,10.2,8.8,19.7,14.8,28.5c1.1,1.5,2.2,3.1,3.3,4.5c0.4,0.5,0.8,1,1.2,1.5
			c0.8,1,1.6,2,2.4,2.9c1.2,1.4,2.5,2.8,3.8,4.2c0.9,0.9,1.8,1.8,2.7,2.7c8.6,8.5,18.7,16,30.5,22.3c2.2,1.1,4,2.1,5.6,3
			c0.4,0.2,0.8,0.4,1.1,0.6c0.5,0.3,1,0.6,1.5,0.9c0.6,0.4,1.2,0.8,1.6,1.1c0.4,0.3,0.7,0.5,1,0.8c0.1,0.1,0.2,0.2,0.3,0.3
			c1.9,2,1.8,4,0,7.4c-0.3,0.5-0.5,1-0.9,1.6c-0.2,0.3-0.3,0.6-0.5,0.9c-0.9,1.5-2,3.2-3.3,5.2v0c-0.3,0.4-0.5,0.8-0.8,1.2
			c-0.4,0.6-0.9,1.2-1.3,1.8c-0.2,0.2-0.3,0.4-0.4,0.6c-1.2,1.8-2,3.6-0.3,5.9c0.1,0.2,0.3,0.4,0.5,0.5c0.2,0.2,0.4,0.4,0.6,0.5
			c0.2,0.2,0.4,0.3,0.7,0.4c0.2,0.1,0.4,0.2,0.5,0.2c2,0.7,4.3,0.1,6.4-0.3c2.4-0.4,4.8-0.8,7.3-1.2c2.9-0.5,5.8-1,9-1.6
			c1.3-0.2,2.7-0.5,4.2-0.7c-6.5,10.8-12.4,20.1-17.1,30.1c-1.6,3.4-3.1,6.9-4.5,10.3c-0.4,1.1-0.9,2.2-1.3,3.2
			c-1.3,3.2-2.4,6.5-3.5,9.7c-0.4,1.2-0.8,2.5-1.2,3.7c-0.3,1-0.6,2-0.9,3c-0.3,0.9-0.5,1.7-0.8,2.6c0,0,0,0,0,0
			c-0.2,0.6-0.3,1.1-0.5,1.7c-0.6,2.2-1.2,4.4-1.7,6.7c-0.2,1-0.5,1.9-0.7,2.9c-0.8,3.8-1.6,7.6-2.2,11.4c-0.2,1-0.3,1.9-0.4,2.9
			c-0.1,0.4-0.1,0.8-0.2,1.2c-0.1,0.8-0.2,1.6-0.3,2.5c-0.1,1-0.2,2-0.3,3c-0.1,0.6-0.1,1.2-0.2,1.8c-0.1,0.7-0.1,1.3-0.2,2
			c0,0.5-0.1,1.1-0.1,1.6c-0.1,0.7-0.1,1.5-0.2,2.2c0,0.5-0.1,1.1-0.1,1.6c0,0.3,0,0.6,0,0.9c-0.1,0.9-0.1,1.9-0.1,2.8
			c0,0.8,0,1.6-0.1,2.4c0,0.5,0,1.1,0,1.6v0.6c-0.2,15.5,1.7,31.2,5.8,47.2c0.7,2.9,1.5,5.7,2.4,8.5c0.3,0.9,0.6,1.8,0.9,2.8
			c0.4,1.2,0.8,2.4,1.3,3.6c12.5,33.4,36.1,57.7,67.7,75.7c0.4,0.2,0.8,0.4,1.2,0.6c0.2,0.1,0.4,0.2,0.5,0.3
			c0.2,0.1,0.3,0.2,0.5,0.4c0.1,0.1,0.1,0.1,0.2,0.2l0.1,0.1c0.1,0.1,0.1,0.2,0.2,0.3c0.1,0.2,0.3,0.4,0.3,0.7
			c0.1,0.2,0.1,0.3,0.1,0.5c0,0.3,0.1,0.7,0,1.1c0,0.4-0.1,0.8-0.1,1.2c0,0,0,0,0,0c-0.1,1.3,0,2.5,0.1,3.7c0,0.4,0.1,0.8,0.1,1.2
			c0,0.4,0.1,0.8,0.2,1.2c0.3,1.6,0.7,3.2,1.2,4.8c1.7,5.2,4.4,10,6.9,14.9c14.1,27.8,31,53.9,49.5,79c1.5,2.1,4.1,4.1,2.3,6.9
			c-0.1,0.2-0.3,0.4-0.5,0.7c-0.2,0.3-0.6,0.6-0.9,1c-22.6,20.6-18.5,50.7-4.6,70.3c2.1,3,4.4,5.9,6.7,8.6c0.5,0.6,1,1.2,1.5,1.7
			c0.5,0.6,1,1.1,1.5,1.6c0.7,0.7,1.4,1.4,2.1,2.1c0.2,0.2,0.3,0.3,0.5,0.5c0.5,0.5,1,1,1.6,1.5c1.8,1.7,3.6,3.2,5.4,4.7
			c0.7,0.6,1.5,1.2,2.2,1.7c0.8,0.6,1.5,1.1,2.3,1.7c1.1,0.8,2.3,1.6,3.5,2.3c2.4,1.5,4.8,2.9,7.3,4.1c0.7,0.4,1.4,0.7,2.1,1
			c0.5,0.3,1.1,0.5,1.7,0.8c0.8,0.4,1.7,0.7,2.6,1.1c0.9,0.3,1.7,0.7,2.6,1c0.4,0.2,0.9,0.3,1.3,0.5c0.8,0.3,1.5,0.5,2.3,0.8
			c2.8,0.9,5.6,1.7,8.5,2.3c0.9,0.2,1.9,0.4,2.8,0.6c1.4,0.3,2.8,0.5,4.2,0.7c1,0.1,1.9,0.3,2.9,0.4c7,0.8,14.2,1,21.8,0.5
			c2.3-0.2,3.9-0.2,5,0.2c0.2,0.1,0.4,0.2,0.5,0.3c0.1,0.1,0.2,0.1,0.2,0.2c0.8,0.7,0.9,2.1,0.4,4.5c-0.1,0.4-0.1,0.7-0.2,1.1
			c-3.5,16.7-1.7,27.2,7.2,36c1.8,1.8,4,3.6,6.4,5.3c2.5,1.7,5.2,3.4,8.3,5.1c0.4,0.2,0.8,0.4,1.1,0.6s0.8,0.3,1.2,0.5h0
			c4.2,1.8,8.5,3.4,12.7,4.9c0.8,0.3,1.7,0.6,2.6,0.9c5.3,1.8,10.7,3.4,16.1,4.7c1.1,0.3,2.3,0.6,3.4,0.8c1.6,0.4,3.1,0.7,4.7,1.1
			c0.5,0.1,1.1,0.2,1.6,0.3c2.9,0.6,5.9,1.1,8.8,1.6c1.4,0.2,2.9,0.4,4.3,0.6c1.3,0.2,2.7,0.4,4,0.5c0.4,0.1,0.8,0.1,1.2,0.1
			c0.5,0.1,0.9,0.1,1.4,0.1c8.4,0.9,16.8,1.3,25.4,1.2c2.7,0,5.3-0.1,8-0.2h0c3.6-0.2,7.2-0.4,10.8-0.8c0.4,0,0.7-0.1,1.1-0.1
			c1.1-0.1,2.1-0.3,3.1-0.5c0.7-0.1,1.3-0.3,2-0.4c0.7-0.2,1.3-0.3,1.9-0.5c0.6-0.2,1.2-0.4,1.8-0.6c23.9-8.3,30.3-36.8,19.1-54.6
			c-4-6.4-8.1-12.9-12.5-19.1c-1-1.4-1.9-2.8-2.9-4.1c-10.4-14.3-22.5-27.1-39.3-35.4c-0.4-0.2-0.9-0.4-1.4-0.6
			c-0.2-0.1-0.4-0.2-0.6-0.2c-0.1,0-0.2-0.1-0.2-0.1c-0.2-0.1-0.4-0.2-0.5-0.3c0,0,0,0,0,0c-0.1,0-0.1-0.1-0.2-0.1
			c-0.2-0.1-0.3-0.2-0.4-0.3c-0.1-0.1-0.1-0.1-0.2-0.2c-0.4-0.4-0.6-1-0.6-1.8c0-0.3,0-0.6,0.1-0.9c1.7-7.4,0.4-14.6-1.1-21.7
			c-0.2-0.7-0.3-1.4-0.5-2.2c0-0.2-0.1-0.4-0.1-0.6c-0.2-0.8-0.3-1.6-0.5-2.4c0-0.2-0.1-0.4-0.1-0.6c-0.3-1.4-0.6-2.8-0.8-4.2
			c-0.2-1.6-0.4-3.1-0.6-4.5c0-0.5-0.1-1-0.1-1.4c-0.1-2.7,0-5.2,0.5-7.7c0.1-0.6,0.2-1.1,0.4-1.6c0-0.1,0-0.1,0.1-0.2
			c0.4-1.5,1-3,1.8-4.5c0,0,0,0,0,0c0.2-0.4,0.4-0.9,0.7-1.3c0,0,0,0,0,0c0.4-0.6,0.8-1.3,1.2-2c0,0,0,0,0,0c0.4-0.7,0.9-1.3,1.4-2
			c0,0,0,0,0,0c0.3-0.5,0.7-0.9,1-1.4c0.7-0.9,1.5-1.9,2.4-2.8c15.6-17.1,27.7-36.6,36.6-57.6c0.9-2.1,1.8-4.2,2.6-6.3
			c0.8-2.1,1.6-4.3,2.4-6.5c0.4-1.1,0.8-2.2,1.1-3.2c0.4-1.1,0.7-2.2,1.1-3.3c0.4-1.1,0.7-2.2,1-3.3c0.7-2.2,1.3-4.4,1.9-6.7
			c0.9-3.3,1.8-6.7,2.6-10.1c0.1-0.3,0.1-0.6,0.2-0.9L462.5,703z M459.8,436.7c-6.4,6.3-12,13.5-18.6,19.6
			c-26,23.9-57.6,33.9-92,36.3c-8.4,0.6-16.9,0.9-21.2,0.3c-33.3-2.6-60.4-11.3-86.7-24.2c-30.3-14.9-51.5-37.7-66.3-67.4
			c-2.2-4.3-2.3-8.2-1.1-12.9c7.8-31.2,3.1-61.1-10.8-89.8c-5.5-11.2-5.6-11.2,5.8-15.5c68.8-25.2,139.7-41.1,212.4-49.9
			c19.3-2.4,38.4-5.2,57.9-4.5c12.4,0.4,11.8,0.5,11.9,12.5c0.1,31.6,7.1,62,21.5,89.9c13.6,26.3,15,51.8,4.7,79.2
			C473.3,420.8,467.5,429.1,459.8,436.7z M492.4,391c1.4,0.8,2.6,1.1,3.3,1.9c3.2,3.8,10.6,5.8,10.2,10.2c-0.4,4.2-7.8,4-12.1,5.9
			c-6,2.7-6.7,6.2-2.3,11.1c3.3,3.7,6.4,7.6,10.2,12.1c-9.4,1.6-17.9,3-27.9,4.7c4.5-7.8,9-14.3,11.3-22
			C487.6,407.1,490.3,399.4,492.4,391z M104.3,234.5c2.2-14,5.8-27.8,12.1-40.5c3.3-6.6,11-9.2,17.6-12.1
			c41.8-18.3,85.5-30.9,130-40.7c46.8-10.2,93.9-17.8,141.9-18.5c4.5-0.1,9,0.5,13.5,0.8c47.7,1.5,84.1,37.2,85.6,83.5
			c0.8,25.1-13.8,42.7-37.9,46.1c-5.8,0.8-8.7-0.3-8.1-6.6c0.2-2.2-0.4-4.5-0.3-6.8c0.1-8.4,2.2-9.6,9.5-5.6
			c3.1,1.7,6.4,4.1,8.8,0.1c2.7-4.7-0.9-7.2-4.8-8.9c-14.7-6.6-30.4-6.4-45.9-5.4c-65.2,4.4-129.4,15.6-192.4,32.8
			c-24.8,6.8-49.3,14.6-72.7,25.5c-5.9,2.8-9.3,2-13.2-3.4c-10.3-14.1-23.4-25.2-39.5-32.6C104.6,240.6,103.6,238.5,104.3,234.5z
			 M90.6,458.6c3.1-12.9,3.1-13,15.6-13c23.6,0,41.7-10.5,55.2-29.4c1.8-2.5,3.4-5.1,5.2-7.7c0.1-0.1,0.5-0.1,1.5-0.3
			c8.2,16.9,19.4,32,33.5,44.8c1.8,1.7,1.9,3.2,0.2,5.1c-12.2,13.3-24.4,26.5-42.1,35.4c0-9.4,0.3-17.3,0-25.1
			c-0.1-3-0.6-6.5-4.5-7.4c-3.3-0.8-5,1.6-7,3.7c-7.9,8.3-15.8,16.5-27.4,24.3c0.7-10.1,1.7-18.1,1.6-26.2
			c-0.1-12.6-2.9-14.1-14.2-9.1C102.6,456.2,97.1,459.1,90.6,458.6z M255.7,646.4c-2.7,0.3,17.3,27.2,15.7,27.3
			c-23.1,2.1-41.1-16.3-42.4,7c-1.2,19.8-21.7,22.9-8.2,37.1c2.1,2.2,4.2,4.3,7.5,7.6c-14.5,0.4-27.3-0.8-40-3.5
			c-30.6-6.5-56.5-21.1-76.7-45.2C72,629.7,70.4,576.8,88,521.1c4.9-15.7,12.5-30.2,22.5-45.1c1.9,7.1,0.2,12.6-0.5,18.2
			c-0.4,3.1-1.2,6.5,1.8,8.6c3.2,2.2,5.8-0.2,8.5-1.8c10.4-6.2,19.8-13.7,29.7-24c-0.6,8.9-1,15.6-1.5,22.2
			c-0.2,3.2-0.5,6.4,2.9,8.2c2.9,1.5,5.4,0.3,7.9-1.2c18-10.4,34.7-22.5,47.8-38.8c3.7-4.6,6.1-4.1,10.9-1.2
			c52.5,32,108.5,45.5,169.4,29.5c24.5-6.4,46.2-18.2,64.3-36.1c4.3-4.3,7-6.5,10.5-1.4c6.3,9.4,15.5,18.4,19.4,29.3
			c2.2,6.2,8.9,11.7,2.8,12l3.9,5l1.1,44.1l-0.6,18.4l-13.4,3.9l-15.6,5l-12.8,6.1l-9.5,6.1l-5.6,8.4l-2.2,15.1l10.6,6.1l14,6.1
			l-8.4,16.2l-5.6,20.1l-4.2,22.5l-12.8,17.6L372,718.3l-67,5.6l-30.1-42.4l21.2-26.8l-20.6-7.9L255.7,646.4z M205,888.3
			c-6-16.3-4.2-31.7,7.7-45.1c1.9-2.2,3.7-4.4,6.5-0.5c11.8,16.6,24.2,32.7,37.3,48.3c12.9,15.3,26.4,30,42,44.4
			C261.8,944.7,217.4,921.9,205,888.3z M395.6,905.1c7.6,5.8,16.7,9.9,22.7,17.6c9.5,11.9,18.7,24.1,27.5,36.5
			c6,8.4,7.6,17.8,4.8,28.2c-2.8,10.6-9.7,16.8-19.5,18.7c-23.5,4.6-47.1,3.7-70.4-2.7c-8.4-2.3-16.8-5.2-25.1-7.8
			c-7.3-2.3-14.2-5.5-20.3-10.4c-10.6-8.6-11.4-10-10.5-25.3c0.1-8.8,3.2-16.7,12.5-23.2c22-15.4,46.5-24.1,71.6-32.1
			C391.4,903.8,393.5,903.5,395.6,905.1z M353,761.7c3.1-2.1,5.5,1.7,7.4,3.8c4.2,4.7,6.8,10.4,9.6,15.9c1.1,2.2,2.1,4.3,3.2,6.5
			c0.5,1.1,1,2.2,1.5,3.2c0.8,1.8,1.6,3.7,2.3,5.5c0.3,0.8,0.6,1.6,0.9,2.4c0.3,0.7,0.6,1.4,0.8,2.2c0.4,1.1,0.9,2.3,1.2,3.4
			c0.3,0.8,0.6,1.7,0.9,2.5c0.4,1.2,0.8,2.5,1.2,3.7c0.1,0.2,0.2,0.5,0.3,0.8c0.2,0.7,0.4,1.3,0.6,2c0.5,1.5,1,3,1.4,4.5
			c0.8,2.7,1.6,5.3,2.3,8.1c0.5,1.9,1.1,3.8,1.6,5.8c0.1,0.2,0.1,0.4,0.2,0.6c0,0,0,0,0,0.1c0,0.1,0,0.1,0,0.2
			c0.2,1.1,0.4,4.6-3,6.1c-3.7,1.5-5.1-2.5-5.4-3.4c0-0.1,0-0.1,0-0.1c-2.3-9.4-5-18.6-8.1-27.8c-0.4-1.3-0.9-2.6-1.3-3.9
			c-4.3-12-9.6-23.5-16.1-34.5C353.2,766.9,350.3,763.6,353,761.7z"/>
		<path id="Pants_00000003809209737270528930000006888252243039792791_" class="st18" d="M385.5,839c-3.7,1.5-5.1-2.5-5.4-3.4
			c0-0.1,0-0.2,0-0.2c-2.3-9.4-5-18.6-8.1-27.8c-0.4-1.3-0.9-2.6-1.4-3.9c-4.3-12-9.6-23.5-16.1-34.5c-1.3-2.2-4.2-5.6-1.5-7.5
			c3.1-2.1,5.5,1.7,7.4,3.8c4.2,4.7,6.8,10.4,9.6,15.9c1.1,2.2,2.1,4.3,3.2,6.5c0.5,1.1,1,2.2,1.5,3.2c0.8,1.8,1.6,3.7,2.3,5.5
			c0.3,0.8,0.6,1.6,0.9,2.4c0.3,0.7,0.6,1.4,0.8,2.2c0.4,1.1,0.9,2.3,1.3,3.4c0.3,0.8,0.6,1.7,0.9,2.5c0.4,1.2,0.8,2.4,1.2,3.7
			c0.1,0.2,0.2,0.5,0.3,0.8c0.2,0.7,0.4,1.3,0.6,2c0.5,1.5,1,3,1.4,4.5c0.8,2.7,1.6,5.3,2.3,8.1c0.5,1.9,1.1,3.8,1.6,5.8
			c0.1,0.2,0.1,0.4,0.2,0.6c0,0,0,0,0,0.1c0,0.1,0,0.1,0,0.2C388.7,834,388.9,837.5,385.5,839z"/>
		<path id="Hand_00000155115530384322630340000000312492082932684932_" class="st18" d="M443.9,675c5.7,1.5,14-0.2,22.1-2.5
			c40.7-11.5,58.4-61.6,32.7-92.3c-2.3-2.7-4.5-5-8.4-4.6c-18.6,1.8-36.3,6.1-49.8,20.4c-7,7.4-6.1,12.5,3.3,16.8
			c9.5,4.4,19.3,6.4,29.6,2.7c3.5-1.2,7.6-2.9,9,2.4c1,3.9-2,5.1-4.8,6.3c-0.1,0-0.1,0-0.2,0.1c-0.3,0.1-0.5,0.2-0.8,0.3
			c-0.1,0-0.2,0.1-0.2,0.1c-0.2,0.1-0.5,0.2-0.8,0.2c0,0,0,0,0,0c-16.3-1.2-19.6,10.3-22.8,22.5C450.4,656.7,446.9,665.7,443.9,675z
			"/>
		<g id="Hair_00000165213756870441767420000015510446482981572786_">
			<path id="left_00000114038983058930557680000014764467300078070463_" class="st4" d="M201.8,458.1
				c-12.2,13.3-24.4,26.5-42.1,35.4c0-9.4,0.3-17.3,0-25.1c-0.1-3-0.6-6.5-4.5-7.4c-3.3-0.8-5,1.6-7,3.7
				c-7.9,8.3-15.8,16.5-27.4,24.3c0.7-10.1,1.7-18.1,1.6-26.2c-0.1-12.6-2.9-14.1-14.2-9.1c-5.6,2.5-11.1,5.4-17.7,4.9
				c3.1-12.9,3.1-13,15.6-13c23.6,0,41.7-10.5,55.2-29.4c1.8-2.5,3.4-5.1,5.2-7.7c0.1-0.1,0.5-0.1,1.5-0.3
				c8.2,16.9,19.4,32,33.5,44.8C203.4,454.7,203.4,456.2,201.8,458.1z"/>
			<path id="righ_00000170280949815268812900000000322456253757692088_" class="st7" d="M491.6,420.1c3.3,3.7,6.4,7.6,10.2,12.1
				c-9.4,1.6-17.9,3-27.9,4.7c4.5-7.8,9-14.3,11.3-22c2.4-7.8,5-15.5,7.2-23.9c1.4,0.8,2.6,1.1,3.3,1.9c3.2,3.8,10.6,5.8,10.3,10.2
				c-0.4,4.2-7.8,4-12.1,5.9C487.9,411.7,487.2,415.2,491.6,420.1z"/>
		</g>
		<path id="Headphones_00000155858454845168455260000012276026237122428573_" class="st18" d="M135.8,374.8c-0.2,3.7-0.3,7.4-0.8,11
			c-0.4,3.2-1.4,6.5-5.6,6c-3.9-0.5-3.6-3.9-3.4-6.7c0.8-11.3,1.8-22.6-0.2-33.9c-5.4-30.8-20.8-55.8-45.6-74.9
			c-1.5-1.2-4.3-1.6-3.5-4c1-3,3.9-1.9,5.8-1.2c2.9,1.1,5.9,2.3,8.2,4.3C121.8,301.3,137.8,334,135.8,374.8z"/>
		<g id="Shoes_00000004543392339136290250000003969236266729116820_">
			<path class="st4" d="M298.4,935.3c-36.6,9.4-81.1-13.5-93.4-47c-6-16.3-4.2-31.7,7.7-45.1c1.9-2.2,3.7-4.4,6.5-0.5
				c11.8,16.6,24.2,32.7,37.3,48.3C269.3,906.3,282.8,921,298.4,935.3z"/>
			<path class="st15" d="M429.7,979.7c-3.9,2.2-10.2,3.3-17.8,3.7c-5,0.2-10.6,0.1-16.4-0.3c-21.6-2.8-39.1-5-55-13.6
				c-1.3-0.7-2.6-1.4-3.8-2.2c-4.2-3.2-5.8-6.7-3.4-10.2c4.6,2.1,9.3,4.1,14.1,5.9c12.2,4.6,25,8.2,38,10.1
				c8.6,1.2,17.3,1.7,25.8,1.2c4.9-0.3,9.8-0.9,14.6-1.9l0,0c2.5-0.5,5-1.1,7.4-1.8C435,974.6,433.5,977.6,429.7,979.7z"/>
			<path class="st4" d="M445.8,959.1c-8.8-12.4-18.1-24.6-27.5-36.5c-6.1-7.6-15.1-11.7-22.7-17.6c-2.1-1.6-4.2-1.3-6.4-0.6
				c-25.1,8-49.7,16.7-71.6,32.1c-9.4,6.6-12.4,14.5-12.5,23.2c-0.9,15.3-0.1,16.7,10.5,25.3c6.1,4.9,12.9,8.1,20.3,10.4
				c8.3,2.7,16.7,5.5,25.1,7.8c23.2,6.4,46.8,7.2,70.4,2.7c9.8-1.9,16.7-8.1,19.5-18.7C453.4,976.9,451.8,967.6,445.8,959.1z
				 M429.7,979.7c-3.9,2.2-10.2,3.3-17.8,3.7c-5,0.2-10.6,0.1-16.4-0.3c-22.5-1.7-48.5-7.9-58.8-15.8c-4.2-3.2-5.8-6.7-3.4-10.2
				c4.6,2.1,9.3,4.1,14.1,5.9c12.2,4.6,25,8.2,38,10.1c8.6,1.2,17.3,1.7,25.8,1.2c4.9-0.3,9.8-0.9,14.6-1.9l0,0
				c2.5-0.5,5-1.1,7.4-1.8C435,974.6,433.5,977.6,429.7,979.7z"/>
		</g>
		<g id="Face_00000028309473478185441100000003653528958265677969_">
			<path class="st18" d="M472.5,331.2c-14.5-27.9-21.4-58.3-21.5-89.9c-0.1-11.9,0.5-12-11.9-12.5c-19.5-0.7-38.6,2.2-57.9,4.5
				c-72.7,8.8-143.6,24.6-212.4,49.9c-11.5,4.2-11.3,4.3-5.8,15.5c14,28.7,18.7,58.5,10.8,89.8c-1.2,4.7-1,8.6,1.1,12.9
				c14.8,29.7,36,52.5,66.3,67.4c26.3,12.9,53.4,21.6,86.7,24.2c4.3,0.5,12.8,0.3,21.2-0.3c34.5-2.5,66.1-12.5,92-36.3
				c6.6-6.1,12.2-13.3,18.6-19.6c7.7-7.6,13.4-15.9,17.4-26.3C487.5,383,486.1,357.4,472.5,331.2z"/>
			<path class="st5" d="M422.2,369.2c-12.3-3.3-24,1.2-34.9,6.1c-22,9.5-45.1,8.5-67.1-2c-12.1-6.1-24.9-10.5-38.1-13.4
				c-12.6-3.7-27,0.3-35.3,10.6c-7.1,8.4-7.1,21-1.5,30.6c6.2,10.1,16.6,16.1,27.2,20.7c17.6,8,32.2,12.9,49,13.4
				c22.7,2.4,45.3,1.9,64.6-1.6c15.4-2.3,31.4-8.5,40.7-21.6c5-7.1,9.2-15.8,9.3-24.5c0.1-8.4-5.2-16.1-13.6-18.3L422.2,369.2z
				 M282.9,379.4c-2.5,7.2-4.8,14.5-7,21.8c-1.2,3.3-1.7,8.1-4.5,9.1c-3.2,0.6-6.3-2.3-9-4.1c-6.6-4.9-12.5-12.4-12.3-20.8
				c0.6-13.6,12.7-20.9,25.6-18.5c9.1,1.4,10.7,2.9,7.3,12.3L282.9,379.4z M316.8,388.6c-2.1,6.9-4,14-4.6,21.3
				c-0.5,4,0.1,10.2-2.5,12.6c-2.3,2-6.7,1-9.6,0.6c-9.6-1.4-17.4-4.7-16.8-14.3c0.3-8.5,3.8-17.6,6-25.3c2.1-8,5.4-11.4,13.9-7.7
				c3,1.2,6,2.6,9,4.1c3.5,1.6,5.9,4.8,4.6,8.6L316.8,388.6z M348.2,424c-1.2,3.4-4.6,3.7-8.1,3.3c-4.2-0.4-8.3-0.9-12.5-1.4
				c-7.9-0.7-7.4-5.4-6.2-12.2c0.9-5.5,1.3-11,2.4-16.5c1.5-7.1,3.6-8.9,10.5-8.2c4.9,0.8,11.8,0.8,15.1,4.9
				c2.5,3.5,1.9,9.3,1.4,13.7c-1,5.4-1.3,11-2.5,16.3L348.2,424z M369.5,427.2c-15.7,2.4-11.6-6.8-10.7-17.4
				c0.3-2.8,0.3-5.5-0.1-8.2c-0.3-2.7-1.1-6,0.5-8.3c1.6-2.2,5.3-2.5,8.7-3c4.8-0.3,11.9-3.5,16-1.8c2.1,1.2,3.1,3.9,4.2,6.8
				c1.2,3.3,2.3,6.9,3.3,10.4c3.5,11.9,2.7,17.8-10.5,19.8c-3.7,0.7-7.7,1.2-11.4,1.6L369.5,427.2z M416.7,410.5
				c-1.6,1.7-3.5,3.2-5.3,4.6c-4.4,3.3-8.3,6.5-9.1-0.8c-1.2-9.1-3.3-16.7-6.8-24.2c-3.5-7.3-0.2-9.8,6.8-11.3
				c5.2-1.3,10.4-2.9,15.4-2c3.9,0.8,7.7,3.1,9.1,6.4c0.9,2.3,0.5,4.7,0,7.2c-1.5,6.9-5.2,15-9.9,20L416.7,410.5z"/>
			<path class="st5" d="M259,281.2c3.6,0.4,7.3,0.5,11,0.8c6.4,0.7,13.5,0,18.5,4.2c0.9,0.8-3.9,8.3-5.7,12.8
				c-7.1,17.3,4.2,36.9,22.7,39.4c10.3,1.4,21.8-6,22.6-15.9c0.9-11-0.2-22.3-8.6-30.8c-16.8-17-37.9-20.8-60.7-19.4
				c-2.5,0.2-4.4,1.5-4.6,4.1C254,279.5,256.2,280.9,259,281.2z"/>
			<path d="M398.1,318.4c7.3,4.1,13.6,1.2,19.4-3.5c14.2-11.5,12.9-31.8-2.9-41.1c-5.8-3.4-5.9-5.8-0.5-9c4.8-2.9,9.8-5.5,14.7-8.3
				c1.8-1.1,4.8-1.6,3.9-4.6c-0.9-3-3.6-3.2-6.3-2.8c-1.1,0.2-2.2,0.4-3.3,0.6c-19.1,4.9-37.4,27.3-38.5,47
				C384.3,306.9,389.7,313.7,398.1,318.4z"/>
			<path class="st11" d="M363.8,458.3c-1.5,6.2-9.9,4.7-14.8,5.2c-7.2,0.2-13.6,0.2-20.3-2.2c-2.8-1-6-2-7.9-4.3
				c-2.1-2.4-1-5.8,2.2-6.3c3.5-0.5,7.2,0.8,10.7,1c6.6,0.7,13.6,0.6,20.6,0.7c3.8,0,10,0.7,9.5,5.7L363.8,458.3z"/>
			<path class="st12" d="M336.8,361.7c5.8,3,21.5,5.6,27.7,3.6c3.5-1.1,4.1-5.2,0.7-7c-4.4-2.1-10-1.7-14.6-2.4
				c-4,0-13.1-2.3-15.4,1.7c-0.7,1.3-0.1,2.9,1.4,3.9L336.8,361.7z"/>
			<path class="st10" d="M353.7,329.8c1.9,1.3,3.8,0.9,5.4-0.5c1.4-1.3,2.5-3.1,3.8-4.5c4.2-4.5,8.8-8.8,15.3-4.9
				c4.3,2.6,3.1,12.1-1.7,17.6c-0.9,1-2.1,1.9-3.1,2.8c-2,1.9-4.7,3.4-1.8,6.8c2.7,3.1,5.1,2.8,8,0.8c6.9-4.9,10.4-11.7,11.4-19.1
				c0.7-11.3-6.1-20.1-15.2-20.8c-9.5-0.7-22.6,8.9-23.6,17.3C351.9,327.1,352.1,328.7,353.7,329.8z"/>
			<path class="st1" d="M397.9,380.1c-6.3,2.2-3.3,8.2-1.1,13c2.3,5.4,3.9,11.3,4.9,17.3c1.2,10.1,2.2,10.6,10.3,4.3
				c8.7-5.8,15.5-20.5,15.3-29.3c-0.3-3.8-3.3-6.1-6.8-7.7c-7.3-2.8-15.3,0.4-22.4,2.4L397.9,380.1z"/>
			<path class="st1" d="M374.3,389.1c-3,0.7-5.9,1.1-8.9,1.6c-4,0.5-7.2,1.9-7.1,5.9c-0.1,2.2,0.4,4.4,0.6,6.6
				c0.8,6.3-1.8,13.4-1.1,19.8c0.8,5.6,7.2,4.6,11.8,4.2c3.7-0.4,7.7-0.9,11.5-1.6c11.9-2.2,14.1-5.8,11.1-17.6
				c-1.1-4.3-2.5-8.7-3.9-12.7c-0.8-2.2-1.6-4.3-3.1-6c-2.2-2.4-6.9-1-10.6-0.3L374.3,389.1z"/>
			<path class="st1" d="M350.8,397.6c-1.2-7.7-10.5-7.7-16.6-8.6c-6.8-0.7-9,1.1-10.5,8.2c-1.1,5.8-1.6,11.7-2.6,17.5
				c-1.3,6.4-1,10.5,6.1,11.2c4.1,0.5,8.2,1,12.3,1.4c4.7,0.6,8.5-0.2,9.1-5.6c0.8-7.9,3.2-15.9,2.1-24L350.8,397.6z"/>
			<path class="st16" d="M315,381.5c-3.4-2.6-7.7-4.1-11.5-5.8c-7.7-3.3-11.6-1.3-13.7,6.4c-2.1,7.1-5,15-6.1,22.8
				c-1.4,8.9,1.4,15,12,17.1c3.4,0.7,7.2,1.6,10.7,1.5c5.8-0.1,5.3-6.5,5.7-10.7c0.3-5.9,1.3-11.6,2.8-17.2c1-4.7,4.6-10.4,0.4-14
				L315,381.5z"/>
			<path class="st1" d="M275.5,366.9c-18.5-3.6-32.4,14-21.9,30.3c3.2,5,7.8,8.8,12.9,11.9c1.6,0.9,3.7,2,5.4,1
				c2.6-1.8,3.4-8,4.7-11.4c2.3-8.1,5.4-16.1,7.7-24.2c1.7-5.8-3.4-6.6-8.6-7.5L275.5,366.9z"/>
		</g>
		<g id="Beanie_00000074403917687563471030000017209768972975806112_">
			<path id="fold_00000022561590425841429740000005303363845892412068_" class="st18" d="M419.4,123.6c-4.5-0.3-9-0.9-13.5-0.8
				c-48,0.7-95.1,8.3-141.9,18.5c-44.5,9.7-88.2,22.3-130,40.6c-6.6,2.9-14.3,5.5-17.6,12.1c-6.3,12.7-9.9,26.4-12.1,40.5
				c-0.6,3.9,0.3,6.1,4.1,7.9c16,7.3,29.1,18.5,39.5,32.6c4,5.4,7.3,6.1,13.2,3.4c23.4-10.9,47.9-18.8,72.7-25.5
				c63-17.2,127.2-28.4,192.4-32.8c15.5-1,31.2-1.2,45.9,5.3c3.9,1.7,7.5,4.3,4.8,8.9c-2.3,4-5.7,1.6-8.8-0.1
				c-7.3-4.1-9.4-2.8-9.5,5.6c0,2.3,0.5,4.6,0.3,6.8c-0.5,6.4,2.3,7.5,8.1,6.6c24.1-3.4,38.7-20.9,37.9-46.1
				C503.5,160.8,467.1,125.2,419.4,123.6z"/>
			<path class="st4" d="M430,115.1c-7,0-14.1-0.6-21.1-0.5c-2.1-0.1-5.2,0.3-6.3-1.7c-1.7-7.3-6-15.7-17.8-32.9
				c-5-7.3-9.5-13.5-14.9-20.9c-0.7-1-1.9-2.9-1.3-3.5c0.4-0.5,1.5-0.6,2.9-0.3c26.8,8.3,49,25.9,61.3,51.2c2,3.9,3.5,8.4-2.6,8.6
				L430,115.1z"/>
			<path class="st4" d="M395.4,113.6c-0.7,0.9-2.6,1-3.9,1.1c-10.4,0.4-20.9,1-31.3,2c-8.4,1.3-7.4-4.5-9.9-10.5
				c-2.3-6.5-5.3-13.7-7.8-19c-5.5-11.6-12.2-22.8-17.7-34.4c-2-5.7,6.1-4.9,9.7-4.9c16.1,0.4,28.4,8,36.5,21.9
				c7.4,11.4,16.9,27.8,23.5,39.7C395.2,110.7,396.2,112.8,395.4,113.6L395.4,113.6z"/>
			<path class="st4" d="M345.2,117.5c-1,1.3-3.2,1.4-4.8,1.7c-8.3,1.1-16.6,2.3-24.8,3.7c-6.6,1.4-7.2-2.3-8.4-7.6
				c-4.2-17.8-12.8-40-19.4-57.4c-0.5-1.6-0.6-3.4,0.3-4.6c0.7-1,1.9-1.6,3.4-2c3.1-0.9,6.7-1.5,10-2.1c15.1-3.3,17.1,5.5,23.4,16.8
				c7.1,13.2,12.7,26.9,17.5,41c0.8,2.1,1.9,4.6,2.7,6.9c0.4,1.1,0.8,2.8,0.2,3.6L345.2,117.5z"/>
			<path class="st4" d="M299.7,124.6c-0.8,1.1-2.4,1.6-3.8,1.9c-9.5,1.8-19,3.7-28.5,5.7c-4.2,1-6.9,0.4-7.4-4.3
				c-2.7-15.1-6.1-35.5-8.2-50.5c-0.5-4.3-1.6-9.6,1.3-13.3c2.2-2.8,6.2-4.2,9.7-5.3c4.2-1.3,10.2-3.6,14-2.5
				c5.1,1.5,7.2,11.7,9,16.8c2.5,8.1,5.3,17.2,8.4,27c1.8,5.9,3.5,11.6,5,16.5c0.5,2.5,2.1,5.5,0.8,8L299.7,124.6z"/>
			<path class="st4" d="M252.5,135.2c-1,1.3-3,1.7-4.7,2.1c-6.8,1.7-13.5,3.5-20.2,5.3c-1.9,0.5-4.3,1.1-5.7-0.5
				c-0.8-0.8-1.2-2.3-1.4-3.6c-2.7-14-3.8-33.6-3.3-47.6c0.3-10.6,3.8-14.8,13.5-19c2.3-1.1,4.5-2.2,6.8-3.4
				c2.7-1.3,5.4-3.2,7.2-2.1c1.2,0.9,1.2,2.9,1.3,4.3c0.1,6.5,0.5,12.8,1.2,19c1.2,12.1,3.2,23,5,35.1c0.2,3.2,1.9,7.2,0.3,10.1
				L252.5,135.2z"/>
			<path class="st4" d="M213.6,145.4c-0.8,1.1-2.3,1.6-3.6,2c-4.2,1.2-8.4,2.4-12.6,3.5c-6,1.4-11.7,4.4-17.7,5.7
				c-2.5,0.2-2.7-2.4-2.7-4.4c-0.1-11,2-25.5,3.2-36.1c0.4-6.1,1.7-11.7,6.6-15.8c5.8-5.5,12.5-9.8,19.9-14.8
				c1.1-0.7,2.7-1.8,3.7-1.3c1.2,0.8,0.7,3,0.6,4.3c-0.9,7.2-1.7,13.4-1.9,19.9c-0.4,10.1,2.3,23.4,4.6,32.9
				c0.3,1.3,0.7,2.9-0.1,4.1L213.6,145.4z"/>
			<path class="st4" d="M172,126c-1.4,7.1-1.7,15.7-2,23.2c-0.3,5.9,1.1,10.5-5.3,12.6c-12.8,5.1-25.6,10.6-38,17.3
				c-1.8,1-5.1,2.7-3.8-0.7c6.1-16.6,29.6-48.6,47.3-63.6c5.6-3.9,2.2,8.3,1.8,10.9L172,126z"/>
			<path class="st14" d="M462.4,191.8c0.3,2.1,0.6,4.4,2.1,5.7c1.8,1.5,5,1.2,6.2-0.7c1.7-2.7,1.4-6.7,1-9.8
				c-1.8-11.7-3.5-23.9-10.1-34.7c-1.4-2.2-3.1-5.2-5.9-5.4c-1.6-0.1-3,1-3.3,2.5c-0.4,2.3,1.2,4.6,2,6.8
				c4.9,11.3,6.2,23.4,7.9,35.5L462.4,191.8z"/>
			<path class="st11" d="M409.1,157.5c-1.7-2.7-3.5-5.4-5.5-7.9c-0.9-1-1.8-2-3.1-2.4c-1.6-0.6-3.7,0-4.2,1.7
				c-0.5,1.5,0.5,3.3,1.3,4.7c7.8,12.5,10.4,26.4,11.5,40.8c0.2,2.1,0.7,4.6,2.6,5.7c1.9,1.1,4.6,0.6,5.8-1.1
				c2.3-4.1,0.4-9.1,0.1-13.4c-1.2-9.6-3-19.4-8.4-27.8L409.1,157.5z"/>
			<path class="st14" d="M329.5,153.2c-2.2,1.4-1,4.4,0.1,6.3c9.3,15.2,14.2,32.2,17.4,49.5c0.5,2.6,2,5.7,5,5.2
				c4.4-0.9,3.7-7,3-10.4c-3.7-16.1-8.5-32.4-18.6-46.5c-1.5-2.1-4-5.5-6.8-4.1L329.5,153.2z"/>
			<path class="st10" d="M274.3,165.6c-3.9-5.7-9.6-2.3-6.3,4c7.6,16.6,14.5,33.4,17,51.5c0.3,2.4,1.3,5.5,4,5.7
				c1.6,0.2,3-0.9,3.7-2.6c1.7-4.5-0.3-9.4-1-14c-3.4-15.6-8.6-31-17.3-44.5L274.3,165.6z"/>
			<path class="st11" d="M214.7,181c-1.3-4.3-7.3-5.5-6.9,0.2c4.4,18.1,10.5,35.8,15.6,53.7c0.9,3.1,2.2,7.6,6.1,7.4
				c1.7-0.1,3.1-1.2,3.4-2.7c0.3-1.6-0.4-3.4-0.9-5c-5.7-17.8-11.3-35.7-17.2-53.4L214.7,181z"/>
			<path class="st10" d="M158,199c-1.5-5.6-8.6-6.3-8,0.5c5.4,17.2,8,35.3,15.6,51.8c2.2,3.7,5.7,13.9,10.8,13.1
				c1.6-0.2,2.6-1.4,2.6-2.9c0-1.7-1-3.5-1.6-5.1c-8-18.6-12.8-38.3-19.3-57.3L158,199z"/>
		</g>
	</g>
	<g>
		<path class="st4" d="M459.5,688.8c0.2,1.9,0.5,3.2,0.3,4.5c-1.4,16.1-6.3,31.4-11.5,46.6c-10.1,29.2-22.5,57.2-40.7,82.4
			c-1.5,2.1-3.9,4.4-0.8,6.7c2.8,2,5-0.3,6.7-2.3c3.2-3.8,6.6-7.6,9.3-11.7c18.9-29.5,32.1-61.4,40.7-95.3c3.6-14.1,8-28.3,3-43.3
			c-1.9-5.9,5.6-12,11.6-10.6c11.6,2.8,21.3-1,29.7-8.7c16.4-15,21.3-41,11.2-60.8c-3.9-7.7,7.2-12.7,2.8-20.2
			c-0.3-0.5,0.5-2.1,1.2-2.6c1-0.7,2.4-1,3.6-1.4c11.3-3.7,15.3-10.4,11.2-21.7c-2.3-6.4,0.2-6.7,5.2-7.4
			c31.8-4.7,53.1-22.6,64.5-52.4c2.2-5.8,3.5-12,10.3-14.9c2.5-1.1,3.5-4.4,4.2-7.3c1.9-7.8,2.2-15.8,0.4-23.5
			c-6.6-28.9-18.5-55.7-31.7-82.1c-4.4-8.7-10.2-16.6-16.5-24.1c-2.1-2.5-4-6-8.2-5c-4.8,1-4.3,5.2-5,8.8c-0.4,2.1-1,4.1-1.3,6.2
			c-2.9,20.7-14.9,35.5-31.4,47c-5.2,3.6-11.4,4.9-18,4.2c-10.4-1-20.6,0.4-30.2,4.3c-14.7,6-26.7,15.3-26.8,32.6
			c-0.2,15.9-2.7,32.1,2.2,47.9c1.3,4,0.2,6.7-4.6,6.9c-7.6,0.3-14.7,2.4-15.6,11.3c-0.9,9.3-13.7,4-14.5,12.7
			c-0.2,1.8-0.7,3.6-0.9,5.5c-0.3,3.2-1.6,5.2-5.2,5.9c-12.1,2.2-22.8,8.1-32.8,14.9c-35.5,24.2-63.1,56.2-89.1,89.8
			c-2.6,3.3-4.5,7.5-7.8,9.9c-4.6,3.3-7.5-2.8-11.6-3.8c-21.1-4.8-29.4-21-34.2-39.8c-0.5-2.1-0.2-4.4-3.1-4.7c-2.9-0.3-4.3,1.6-5,4
			c-0.9,3.1-0.4,6.2,0.6,9.3c2.6,8.1,6.6,15.6,12.2,21.9c4.4,5,4.8,7.6-2.7,8.9c-14.2,2.4-22.8,11.1-26.4,24.9
			c-6.1,23.3-3.7,45.4,9.1,66c2.5,4.1,2.9,7.2,0.5,11.5c-5.7,10.4-11,21-16,31.7c-19.9,42.3-36.1,85.8-42.5,132.4
			c-1.6,11.6-3.5,23.5,1.3,35.1c2.5,6.1,6.5,8.1,12.5,5c10.3-5.3,20.9-10.1,30.8-16.1c98.3-59.6,179.4-137.2,242.9-233.1
			C454.9,692.7,455.6,689.9,459.5,688.8z"/>
		<path class="st32" d="M459.5,688.8c-3.9,1.1-4.6,3.8-6,5.9C390.1,790.6,309,868.2,210.7,927.8c-9.9,6-20.5,10.8-30.8,16.1
			c-6,3.1-10,1.1-12.5-5c-4.8-11.5-2.9-23.5-1.3-35.1c6.4-46.6,22.6-90.1,42.5-132.4c5-10.7,10.3-21.3,16-31.7
			c2.4-4.3,2-7.4-0.5-11.5c-12.8-20.6-15.1-42.8-9.1-66c3.6-13.8,12.2-22.5,26.4-24.9c7.6-1.3,7.2-3.9,2.7-8.9
			c-5.6-6.3-9.6-13.8-12.2-21.9c-1-3.1-1.4-6.2-0.6-9.3c0.7-2.4,2-4.4,5-4c2.9,0.3,2.5,2.6,3.1,4.7c4.8,18.9,13,35.1,34.2,39.8
			c4.2,1.2,10.6,4.4,11.6,3.8c3.4-2.1,5.2-6.5,7.8-9.9c26-33.6,53.6-65.6,89.1-89.8c10.1-6.9,20.7-12.7,32.8-14.9
			c3.6-0.7,4.8-2.6,5.2-5.9c0.2-1.8,0.7-3.6,0.9-5.5c0.8-8.8,13.5-3.5,14.5-12.7c0.9-8.9,7.9-11,15.6-11.3c4.8-0.2,5.9-2.9,4.6-6.9
			c-4.9-15.8-2.4-31.9-2.2-47.9c0.2-17.3,12.1-26.6,26.8-32.6c9.6-3.9,19.9-5.4,30.2-4.3c6.7,0.7,12.8-0.6,18-4.2
			c16.6-11.5,28.5-26.3,31.4-47c0.3-2.1,0.9-4.1,1.3-6.2c0.6-3.5,0.2-7.7,5-8.8c4.2-0.9,6.1,2.5,8.2,5c6.3,7.5,12.1,15.3,16.5,24.1
			c13.2,26.3,25.1,53.2,31.7,82.1c1.8,7.7,1.5,15.7-0.4,23.5c-0.7,2.9-1.7,6.2-4.2,7.3c-6.8,2.9-8.1,9.1-10.3,14.9
			c-11.4,29.8-32.7,47.7-64.5,52.4c-5,0.7-7.5,1.1-5.2,7.4c4.1,11.3,0.1,18-11.2,21.7c-1.2,0.4-2.6,0.6-3.6,1.4
			c-0.7,0.5-1.5,2.1-1.2,2.6c4.4,7.5-6.8,12.6-2.8,20.2c10.2,19.9,5.3,45.8-11.2,60.8c-8.4,7.7-18.2,11.5-29.7,8.7
			c-6-1.4-13.6,4.7-11.6,10.6c4.9,15,0.6,29.2-3,43.3c-8.6,33.8-21.8,65.8-40.7,95.3c-2.7,4.2-6.1,7.9-9.3,11.7
			c-1.7,2-3.9,4.4-6.7,2.3c-3.1-2.3-0.8-4.6,0.8-6.7c18.2-25.2,30.7-53.2,40.7-82.4c5.2-15.2,10.1-30.5,11.5-46.6
			C460,692,459.7,690.8,459.5,688.8z M177.8,916.9c0,0.7,0,2.6,0,4.4c0,8.6,0.5,8.9,8.1,4.9c7.2-3.8,14.4-7.7,21.5-11.8
			c80.4-46.6,146.8-108.9,204-181.5c32.6-41.3,59.6-85.9,77.2-135.9c2-5.6,1.5-8.1-4.5-11.2c-22.6-11.8-42.6-27-57.3-48.3
			c-2.2-3.1-4.1-3.2-7.2-2.2c-13,3.9-24.7,10.5-35.5,18.6c-40.6,30.8-71.3,70.5-100.3,111.6c-2.6,3.6-1.2,5.8,1.1,8.8
			c15.6,20.9,11,53.6-9.6,68.6c-10.4,7.6-21.7,9.7-33.3,3.7c-5.1-2.7-6.5-0.9-8.7,3.3c-11.5,22.5-21.9,45.5-31.1,69
			C190,850.2,179.9,882,177.8,916.9z M466.2,473.5c3.2,19.8,12.8,35.4,25.7,49.3c0.8,0.9,2.3,1.3,3.5,1.7c7.9,2.8,15.9,5.4,24.3,6.6
			c34.5,4.7,63.4-11.7,76.6-43.5c1.9-4.5,2-7-2.9-9.9c-8.3-4.9-17.3-9-23.8-16.5c-2-2.2-4.8-3-7.7-3.6c-15.1-3.1-28.3,0.3-40.7,9.6
			c-15.9,12.1-33,18.8-52.2,6.5C468.4,473.3,467.8,473.5,466.2,473.5z M254.6,646.7c-20.7,1.9-26.3,5.8-29.6,24.9
			c-3.4,19.5-2.2,37.3,8.6,54.2c3.3,5.2,8.3,10.5,14.8,13.1c9.6,3.9,16.7-0.7,24.6-9.2c14.2-16.2,14.7-45.1-8.2-60.3
			c-3.1-2.1-10.1-2.2-7.9-7.8c2-5.2,7.2-1.6,11-0.6c6,1.4,6.7-4.2,8.6-7.3c2.4-3.8-4.1-4.4-7.1-5.3C263.7,646.6,260,647,254.6,646.7
			z M456.5,500.4c-10-0.1-13.5,3.2-10.1,9.2c3.1,5.4,6,11,10.3,15.8c13.7,15.2,30.6,25.6,49.3,33.3c5.1,2.1,10.5,3.6,16.1,3.3
			c3.1-0.2,5.9-0.7,6.1-4.6c0.3-6-6.2-13.7-12.1-15c-9.7-2.2-19.6-3.1-28.4-8.7c-10.9-6.9-17.4-17.3-23.4-28.1
			C462.2,502,460.5,499,456.5,500.4z M512,576.3c1.2-4.9-2.5-5.5-6.2-6.7c-26.1-8.4-46.6-24.6-63.9-45.4c-2.6-3.2-4.1-10-9.6-5.8
			c-4.6,3.5,0.6,7.9,2.3,11.7c0.2,0.5,0.6,0.8,0.9,1.3c9.8,14.2,22.4,25.7,36.7,35.2c9.8,6.6,20,12.6,31.7,15.4
			C508.2,583.2,512.8,583.6,512,576.3z M501.7,413.6c-11.6,0-23.4,7.8-26.9,16.8c-1.1,2.9-1.4,5.8,1.7,7.6c2.8,1.7,5.2,0.1,6.7-2.2
			c5.4-7.8,11.8-13,22.2-11.6c3.1,0.4,5.6-1.9,5.6-5.3c-0.1-3-2.4-4.5-5.2-5C503.9,413.5,502,413.6,501.7,413.6z"/>
		<path class="st33" d="M177.8,916.9c2.1-34.9,12.1-66.7,24.3-97.9c9.2-23.5,19.7-46.5,31.1-69c2.1-4.2,3.6-6,8.7-3.3
			c11.6,6.1,23,3.9,33.3-3.7c20.6-15,25.2-47.7,9.6-68.6c-2.3-3.1-3.7-5.2-1.1-8.8c29-41.2,59.7-80.9,100.3-111.6
			c10.7-8.1,22.4-14.7,35.5-18.6c3.1-0.9,5-0.9,7.2,2.2c14.7,21.3,34.8,36.5,57.3,48.3c6,3.2,6.5,5.6,4.5,11.2
			c-17.5,50-44.6,94.6-77.2,135.9c-57.2,72.5-123.6,134.9-204,181.5c-7.1,4.1-14.2,8-21.5,11.8c-7.6,4-8.1,3.7-8.1-4.9
			C177.8,919.5,177.8,917.7,177.8,916.9z M221.7,887.2c0.9-0.3,2.1-0.7,3.4-1.2c14.2-5.8,27-14.2,39-23.6
			c64.2-50.3,118.1-110,162.4-178.4c10.7-16.6,20.4-33.7,26.8-52.6c1.1-3.2,1.8-6.5-2.4-7.8c-3.8-1.2-4.9,2-6.1,4.7
			c-2.4,5.8-4.5,11.8-7.2,17.5c-15.8,33.9-37.6,63.9-61.1,92.6c-44.8,54.5-93.5,104.9-154.4,142c-1.1,0.7-2.3,1.4-3.1,2.4
			c-0.6,0.7-1,1.9-0.8,2.8C218.4,887.3,220,887.2,221.7,887.2z"/>
		<path class="st33" d="M466.2,473.5c1.6,0,2.3-0.2,2.6,0c19.2,12.3,36.3,5.6,52.2-6.5c12.3-9.3,25.6-12.7,40.7-9.6
			c2.9,0.6,5.7,1.4,7.7,3.6c6.6,7.5,15.6,11.6,23.8,16.5c4.9,2.9,4.8,5.4,2.9,9.9c-13.2,31.8-42.1,48.3-76.6,43.5
			c-8.4-1.2-16.4-3.7-24.3-6.6c-1.2-0.4-2.6-0.8-3.5-1.7C479,508.9,469.4,493.2,466.2,473.5z"/>
		<path class="st33" d="M456.5,500.4c4-1.4,5.7,1.6,7.7,5.1c6,10.8,12.5,21.2,23.4,28.1c8.8,5.6,18.8,6.5,28.4,8.7
			c5.9,1.3,12.4,9,12.1,15c-0.2,3.9-3.1,4.4-6.1,4.6c-5.7,0.3-11-1.2-16.1-3.3c-18.7-7.7-35.6-18.1-49.3-33.3
			c-4.3-4.8-7.2-10.3-10.3-15.8C443,503.6,446.5,500.3,456.5,500.4z"/>
		<path class="st33" d="M514.7,619.6c-0.8,13-2.3,18-11.2,26.5c-3.7,3.5-6.8,5.9-13.1,8.9c-4.1,1-7.7,3.8-10.6,0.6
			c-2.8-3.1-0.6-5.4,0.9-8.5c7.8-15.9,12.9-28.7,17.9-45.6c2-6.9,4-8.9,9.1-3.7C514.1,604.3,514.4,612,514.7,619.6z"/>
		<path class="st33" d="M512,576.3c0.8,7.3-3.8,6.9-8.1,5.8c-11.6-2.9-21.8-8.9-31.7-15.4c-14.3-9.6-26.9-21-36.7-35.2
			c-0.3-0.4-0.7-0.8-0.9-1.3c-1.7-3.8-6.8-8.2-2.3-11.7c5.5-4.2,7,2.6,9.6,5.8c17.3,20.8,37.8,37,63.9,45.4
			C509.5,570.8,513.2,571.4,512,576.3z"/>
		<path class="st33" d="M501.7,413.6c0.3,0,2.2-0.1,4,0.2c2.8,0.5,5.1,2,5.2,5c0.1,3.4-2.5,5.7-5.6,5.3
			c-10.3-1.4-16.8,3.8-22.2,11.6c-1.6,2.3-3.9,3.9-6.7,2.2c-3-1.8-2.8-4.7-1.7-7.6C478.3,421.4,490,413.6,501.7,413.6z"/>
		<path class="st32" d="M221.7,887.2c-1.7,0-3.3,0.1-3.5-1.6c-0.1-0.9,0.2-2.1,0.8-2.8c0.8-1,2-1.7,3.1-2.4
			c60.9-37.1,109.6-87.5,154.4-142c23.6-28.7,45.3-58.7,61.1-92.6c2.7-5.7,4.8-11.7,7.2-17.5c1.1-2.7,2.3-5.9,6.1-4.7
			c4.2,1.3,3.4,4.6,2.4,7.8c-6.4,18.8-16,36-26.8,52.6c-44.2,68.4-98.2,128.1-162.4,178.4c-12,9.4-24.8,17.8-39,23.6
			C223.8,886.5,222.6,886.9,221.7,887.2z"/>
		<path class="st33" d="M514.7,619.6c-0.8,13-2.3,18-11.2,26.5c-3.7,3.5-6.8,5.9-13.1,8.9c-4.1,1-7.7,3.8-10.6,0.6
			c-2.8-3.1-0.6-5.4,0.9-8.5c7.8-15.9,12.9-28.7,17.9-45.6c2-6.9,4-8.9,9.1-3.7C514.1,604.3,514.4,612,514.7,619.6z"/>
		<path class="st18" d="M254.6,646.7c-20.7,1.9-26.3,5.8-29.6,24.9c-3.4,19.5-2.2,37.3,8.6,54.2c3.3,5.2,8.3,10.5,14.8,13.1
			c9.6,3.9,16.7-0.7,24.6-9.2c14.2-16.2,14.7-45.1-8.2-60.3c-3.1-2.1-10.1-2.2-7.9-7.8c2-5.2,7.2-1.6,11-0.6c6,1.4,6.7-4.2,8.6-7.3
			c2.4-3.8-4.1-4.4-7.1-5.3C263.7,646.6,260,647,254.6,646.7z"/>
	</g>
</g>
<g id="microphone">
</g>
</svg>
