<?xml version="1.0" encoding="UTF-8"?><svg id="Layer_2" xmlns="http://www.w3.org/2000/svg" viewBox="0 0 817.31 104.33"><defs><style>.cls-1{stroke-width:0px;}</style></defs><path class="cls-1" d="m445.6,22.61c-.43-5.32-.86-10.42-1.25-15.52-.14-1.85-.34-3.72.68-5.43.18-.31.46-.55.77-.91.72.63,1.39,1.1.98,2.12-.08.21-.03.5.02.73.81,3.67,1.04,7.41,1.36,11.14.24,2.73.35,5.48.72,8.19.26,1.96.81,3.87,1.3,5.79.12.47.49.87.77,1.35,1.45-.61.57-2.84,2.59-3,.01.57.14,1.24.03,1.86-.8,4.39-3.26,7.48-7.48,8.97-2.28.81-4.74.48-6.62-.92-1.16-.86-1.68-2.61-2.43-3.99-.2-.37-.15-.86-.26-1.53-1.48,1.41-3.07,2.35-4.39,3.78-1.98,2.13-4.68,3.1-7.7,2.6-.94-.15-2.05-.12-2.76-.62-1.01-.71-1.77-1.81-2.53-2.82-.37-.49-.55-1.14-.74-1.74-.13-.41-.29-.91-.19-1.3.82-3.14,1.4-6.36,3.15-9.2,1.01-1.62,2.32-2.9,3.96-3.83,1.6-.9,3.4-.35,3.89,1.41.89,3.2,1.16,6.38-.82,9.44-1.23,1.91-2.56,3.62-4.74,4.94,1.68.66,3.17,1.11,4.69.36,2.07-1.01,4.08-2.13,6.11-3.22.45-.24.89-.51,1.31-.81.75-.53,1.24-1.18,1.5-2.13.31-1.15.79-2.3,1.43-3.3,1.22-1.92,2.94-3.01,5.36-2.53.36.07.74.06,1.27.09Zm3.19,9.91c-1.39-.81-1.32-.83-1.83-2.71-.27-1.02-.72-2.02-1.23-2.95-.98-1.75-2.68-1.8-4.04-.3-1.11,1.22-1.57,2.68-1.44,4.22.11,1.4.14,2.93,1.8,3.74,2.34,1.15,5.15.39,6.75-2Zm-21.11-11.63c-1.67.14-2.45.94-3.01,1.97-.58,1.05-1.18,2.11-1.6,3.24-.61,1.65-1.46,3.28-.9,5.32,1.56-.1,2.82-.77,3.73-1.95,1.32-1.7,1.77-3.78,2.08-5.84.12-.83-.17-1.72-.3-2.74Z"/><path class="cls-1" d="m447.27,82.97c1.63,2.14,3.51,3.84,6.3,4.75,2.94.97,5.22.11,7.77-1.35-.18.56-.19,1.27-.56,1.65-.83.86-1.73,1.75-2.78,2.27-1.47.72-3.17.67-4.71.2-2.36-.71-4.88-1.27-6.33-3.62-2.45-.75-2.68-3.18-3.59-4.92-2.36,1.93-4.61,3.8-6.89,5.62-.49.39-1.06.73-1.65.92-1.86.62-3.02-.27-2.96-2.22.1-3.01.23-6.02.29-9.03.02-.88-.25-1.77-.27-2.65-.02-1.52.11-3.04.07-4.56-.05-2.1-.21-4.2-.3-6.3-.05-1.21-.03-2.43-.07-3.65-.03-1.09.7-1.42,1.56-1.61.67-.15,1.15.09,1.32.77.09.37.12.76.13,1.14.12,4.79.23,9.58.34,14.37,0,.31,0,.62,0,1.37,1.27-1.79,2.85-1.68,4.34-1.49,1.49.19,3.19.16,3.75,2.16,1.19-1.01,2.22-1.83,3.19-2.71,2.6-2.37,5.66-2.48,8.84-1.76,1.81.41,3.57,2.82,3.44,4.65-.06.76-.45,1.63-.97,2.18-.83.87-1.85,1.58-2.86,2.25-1.78,1.18-3.72,1.69-5.82.94-.64-.23-1.12-.18-1.58.61Zm2.83-3.12c2,.04,3.68-.85,5.19-2.06,1.36-1.09,1.13-2.33-.49-2.83-3.53-1.09-6.01,0-8.34,3-.22.29-.21.76-.33,1.27q2.66-1.09,3.98.62Zm-14.66,5c.93-.74,1.47-1.18,2.03-1.59.62-.45,1.39-.76,1.86-1.33.67-.82,1.17-1.8,1.64-2.77.12-.25-.06-.78-.28-1.03-.82-.92-3.35-.76-3.98.29-1.12,1.84-1.43,3.87-1.26,6.43Z"/><path class="cls-1" d="m755.65,22.58c-1.66-.35-3.14-.98-4.36-2.23-.94-.98-1.33-2.02-.87-3.3.36-1.02.64-2.1,1.21-3,1.71-2.71,6.13-3.17,8.8-1.62.5.29,1.02.58,1.41.98.22.22.18.69-.07,1.2-.43-.34-.83-.76-1.31-1-.42-.21-.95-.36-1.4-.3-.8.11-1.56.45-2.35.59-1.88.32-3.02,1.21-3.33,2.71-.28,1.39.23,2.11,1.54,2.65,2.18.89,4.38,1.79,6.44,2.92,1.9,1.05,2.53,4.97,1.01,6.72-1.67,1.92-3.59,3.64-5.5,5.34-.84.75-3.57.48-4.55-.28-.71-.55-1.42-1.11-2.03-1.76-.62-.66-1.16-.85-2-.33-2.34,1.43-4.98,1.95-7.65,2.37-1.85.29-3.66,0-5.2-.96-.97-.6-1.8-1.65-2.33-2.69-.8-1.55-.79-3.29-.55-5.03.26-1.89.49-3.79.6-5.69.05-.85.3-1.45,1.09-1.53.84-.08,1.19-.64,1.65-1.16,1.54-1.75,3.22-3.26,5.67-3.66,1.77-.29,3.26.25,3.9,1.89.8,2.06,1.13,4.2.04,6.3-.23.45-.48.94-.85,1.26-1.7,1.45-3.38,2.95-5.55,3.68-.41.14-.87.16-1.3.14-.62-.02-1.24-.11-1.85-.17-.51,2.9,1.13,4.99,4.14,4.8,2.51-.16,5.04-.75,7.45-2.07-.37-1.39-1.46-2.81.2-4.09,1.35.63.08,2.33,1.5,3.09,1.93-.69,3.59-1.99,4.4-4.11.41-1.05.99-1.57,2.03-1.69-.84,2.93-2.17,5.58-4.57,7.7.33.23.53.38.73.51,2.1,1.37,2.79,1.39,4.71-.02.82-.6,1.54-1.33,2.29-2.01,1.9-1.7,1.37-3.61-.95-4.81-.77-.4-1.5-.9-2.25-1.35Zm-19.4.92c1.71.64,3.02.11,4.36-.56,1.92-.96,3.02-2.5,3.35-4.56.27-1.68-.51-2.41-2.18-2.15-.43.07-.86.23-1.25.43-1.97,1.01-3.19,2.69-3.91,4.73-.24.68-.26,1.43-.37,2.11Z"/><path class="cls-1" d="m604.71,66.76c-1.1.46-1.53.08-1.93-.65-.96-1.73-1.99-3.43-3.04-5.11-.39-.63-.92-1.16-1.44-1.8-1.38,1.11-2.35,2.29-2.72,3.82-.49,2.04-1.03,4.08-.83,6.24.09.93-.09,1.89-.16,3.1,3.3.12,6.48.24,9.67.35.25,0,.57,0,.74-.13,1.19-.93,2.11-.41,2.84.47.84-.27,1.54-.64,2.27-.7,2.52-.2,3.78.83,4.64,3.3,1.35,3.88.62,7.25-2.51,9.88-1.18.99-2.75,1.61-4.24,2.11-1.28.43-3.08-1.33-3.36-3.05-.21-1.26-.38-2.53-.51-3.8-.03-.34.14-.72.27-1.07.28-.78.57-1.56.9-2.32.32-.75.7-1.47,1.1-2.3-3.77.14-7.39.28-11.13.42-.24,1.97.42,3.8.68,5.66.36,2.53.83,5.04,1.19,7.57.18,1.26-.29,2.36-1.1,3.29-2.64-.79-2.65-.95-2.39-3.51.14-1.37,0-2.8-.19-4.17-.4-2.76-.93-5.51-1.43-8.37-1.62-.54-3.23.13-4.84.3-1.62.17-3.15,1.15-4.85.57-.54-1.97.04-3.02,1.97-3.29,2.41-.34,4.83-.55,7.4-.83.07-1.93.11-3.89.21-5.85.15-3.2,1.22-6.15,2.68-8.95,1.15-2.21,3.74-2.54,5.33-.66,1.02,1.21,1.84,2.62,2.61,4.01.74,1.33,1.33,2.75,1.93,4.15.17.38.17.84.26,1.31Zm3.36,18.07c1.11-.53,2.06-.88,2.92-1.4,2.18-1.32,3-5.05,1.64-7.15-.43-.67-1-.97-1.78-.79-1.45.33-3.2,2.4-3.25,3.92-.04,1.27,0,2.55.07,3.83.03.47.23.93.4,1.6Z"/><path class="cls-1" d="m712.73,34.29c-.97-.63-1.39-1.45-1.4-2.47-.01-1.15-.07-2.31.06-3.45.27-2.46-.29-4.83-.73-7.21-.07-.39-.44-.73-.84-1.35-3.25,3.98-3.04,8.77-4.19,13.29-.71.3-1.57.65-2.38.99-1.61-1.34.06-2.94-.66-4.3-.15.11-.4.2-.41.32-.14,1.82-1.3,3.03-2.57,4.12-1.93,1.67-4.2,2.78-6.69,3.21-2.55.44-4.69-.66-5.63-3.78-1.23-4.08-.95-8.11,1.24-11.88,1.17-2.02,2.55-3.82,4.6-5.07,1.4-.85,2.82-.77,4.27-.44.37.09.79.47.96.83,1.75,3.49,1.52,7.49-2.7,9.62-.91.46-1.87.86-2.85,1.14-.97.27-2,.35-2.91.49-.09.68-.16,1.26-.24,1.84-.22,1.59.5,3,1.42,4.04.81.91,2.22.82,3.4.14.33-.19.73-.25,1.07-.41,3.75-1.77,6.21-4.66,7.23-8.67.31-1.22.24-2.55.3-3.83.11-2.33.58-4.54,1.89-6.53.39-.59.8-1.1,1.53-.79.65.28.54.92.41,1.51-.33,1.56-.63,3.13-.93,4.7-.04.21-.02.43.22.72.35-.65.67-1.31,1.04-1.94,1.7-2.9,3.49-2.55,5.56-.19.49.55.8,1.35.96,2.08.63,2.87.91,5.78.54,8.73-.06.51-.21,1.04-.11,1.53.27,1.33-.36,2.19-1.47,3.01Zm-21.98-9.46c3.2.9,6.18-1,6.55-4.17.2-1.74-.72-2.58-2.37-2-2.01.7-4.96,3.21-4.18,6.17Z"/><path class="cls-1" d="m341.37,35.23c.9,2.24,3.47,4.05,5.57,3.97,1.65-.06,3.26-1.16,3.73-2.8.94-3.25,1.99-6.5,1.81-9.96-.05-.9,0-1.8,0-2.7,0-.76.38-1.21,1.14-1.27.84-.07,1.58.46,1.63,1.26.07,1,.02,2,.02,3,.14.03.29.06.43.09.12-.22.3-.43.34-.67.36-2.15,1.82-3.28,3.67-4.08.85-.37,1.64-.14,2.39.28,2.1,1.18,3.49,2.98,4.33,5.2.75,1.97,1.19,4.03,1.49,6.12.07.51.38,1.01.65,1.48.49.84.24,2.58-.47,2.91-.84.39-1.98-.22-2.43-1.32-.17-.41-.28-.85-.39-1.29-.57-2.15-1.06-4.33-1.74-6.44-.39-1.2-1-2.36-1.72-3.4-.66-.95-1.59-.96-2.21,0-.68,1.05-1.23,2.26-1.52,3.47-.34,1.42-.25,2.93-.52,4.37-.17.91-.57,1.82-1.03,2.64-.44.77-1.19,1.16-2.34.73-.24-1.44-.49-2.98-.82-4.96-.37,1.23-.66,2.07-.88,2.94-.29,1.1-.3,2.34-.84,3.29-.64,1.13-1.54,2.47-2.65,2.92-2.21.9-4.65,1.68-6.91-.19-1.98-1.64-3.99-3.24-4.7-5.89-.12-.43-.33-.87-.32-1.29.08-3.71.15-7.41,2.21-10.75,1.23-1.99,3.81-3.33,6.05-2.85,1.68.36,3.09,2.17,3.28,4.09.24,2.49-.28,4.69-2.05,6.56-.83.88-1.46,1.96-2.35,2.77-.78.71-1.8,1.15-2.84,1.78Zm-1.27-2.89c.17.08.33.15.5.23,1.74-.78,3.18-1.95,4.47-3.37,1.19-1.31,1.72-2.78,1.7-4.52-.01-1.12-.45-2.06-1.39-2.55-.92-.48-1.88-.07-2.61.64-.3.3-.54.67-.76,1.04-.88,1.48-1.63,2.96-1.54,4.8.06,1.23-.24,2.49-.38,3.73Z"/><path class="cls-1" d="m419.74,20.89c.32,1.44-.42,2-1.26,2.34-1.71.69-3.44,1.41-5.22,1.83-1.78.42-2.86,1.41-3.81,2.92-1.44,2.29-1.48,4.72-1.22,7.24.13,1.27.33,2.54.53,3.8.14.89-.35,1.49-.94,1.98-.56.47-1.27.47-1.71-.14-.53-.75-1.25-1.51-.86-2.59.04-.12.1-.26.08-.37-.3-1.77-.61-3.53-.87-5.08-1.2,1.6-2.3,3.43-3.77,4.89-.89.88-2.31,1.55-3.55,1.68-1.81.19-3.88.25-5.47-.45-2.1-.92-4.13-2.4-4.83-4.89-.47-1.67-.92-3.3-2.03-4.72-.47-.6-1.09-1.55.1-2.33.6.48,1.17.93,1.87,1.48.68-1.76,1.3-3.35,1.91-4.94.94-2.45,2.97-3.77,5.14-4.94.26-.14.64-.24.92-.18,1.74.39,3.1,1.43,3.67,3.07.51,1.44.03,2.89-1.07,4.05-.22.23-.57.39-.7.65-1.32,2.89-4.04,3.98-6.66,5.18-.11.05-.2.15-.29.23.19,3.38,3.33,5.61,6.95,5.02,2.67-.44,4.49-2.05,6.05-4.08,1.41-1.82,1.64-3.86,1.34-6.11-.19-1.42.07-2.91.24-4.35.1-.85.66-1.35,1.8-1.31.15.68.37,1.4.45,2.14.08.69.02,1.39.02,2.38.5-.34.81-.5,1.04-.73,1.48-1.44,3.19-2.25,5.29-2.43,1.77-.15,3.52-.64,5.28-.97.48-.09.97-.16,1.58-.26Zm-29.61,7.09c2.89-.76,4.49-2.54,5.62-4.87.3-.63.16-1.11-.31-1.54-.55-.52-1.07-.24-1.53.14-1.9,1.59-3.24,3.53-3.78,6.26Z"/><path class="cls-1" d="m560.72,88.34c1.48-.18,2.8-.33,4.12-.49.94.86.54,1.6.09,2.08-1.7.5-3.12.93-4.55,1.35.2,2.67.03,5.2-.53,7.68-.31,1.39-.96,2.65-2.01,3.65-2.09,1.99-4.41,2.33-6.73.59-1.78-1.33-3.36-2.96-4.83-4.63-1.6-1.82-1.12-3.68.5-5.27,2.69-2.63,5.82-4.37,9.69-4.49.3,0,.6-.17,1.08-.31-.3-3.5-.61-6.96-.93-10.67-.53.62-.95,1.07-1.33,1.55-1.51,1.88-3.62,2.1-5.69,1.15-1.2-.55-1.64-1.73-1.7-3.02-.13-2.96,1.29-5.18,3.55-6.86,1.31-.98,2.81-1.73,4.3-2.44,1.01-.48,1.11-1.24.83-2.06-.34-1.01,0-1.58.84-2.01,2.01.98,2.47,2.1,2.36,4.63-.12,3.02-.06,6.06-.04,9.09.01,1.65.06,3.3.17,4.95.1,1.59.27,3.17.44,4.75.03.23.21.45.37.77Zm-12.57,8.99c1.14,1.28,2.24,2.6,3.43,3.83.96,1,1.93,1.09,3.11.37,1.17-.72,2.07-1.69,2.45-3.07.62-2.25.53-4.52.42-6.8-4.7-.31-8,1.94-9.41,5.67Zm7.96-26.94c-1.11.93-2.1,1.79-3.12,2.62-1,.81-1.48,1.9-1.82,3.09-.18.63-.34,1.44.36,1.69.56.19,1.53.12,1.92-.25,1.92-1.85,3.45-3.94,2.66-7.14Z"/><path class="cls-1" d="m520.52,30.63c-1.85.63-3.62.84-5.21-.38-.63-.48-1.26-1.09-1.61-1.78-1.46-2.84-.58-5.49,1.04-7.92.44-.66,1.39-1.08,2.19-1.38.76-.28,1.64-.24,2.59-.36.12-.67.19-1.47,1.22-1.49.84-.02,1.33.46,1.64,1.11.32.69.66,1.41.77,2.15.33,2.27.53,4.56.81,6.84.24,2.03.52,4.05.79,6.19.55.12,1.15.25,1.74.38-.46,1.13-1.05,2.17-1.3,3.29-.27,1.15-.15,2.39-.31,3.57-.3,2.16-.88,4.19-2.23,6.02-1,1.35-2.32,2.18-3.71,2.94-1,.55-2.17.47-3.16-.04-2.36-1.23-4.33-2.95-5.86-5.14-.6-.87-.59-1.76-.04-2.7,1.39-2.4,3.57-3.78,6.06-4.75,1.49-.58,3.02-1.06,4.51-1.62,1.17-.44,1.25-.62,1.04-1.99q-.29-1.89-.98-2.95Zm1.24,7.23c-2.81,1.06-5.57,2.04-7.78,4.04-.53.48-.78,1.3-1.05,2.01-.12.31-.08.89.13,1.08.89.8,1.78,1.69,2.84,2.19.97.46,2.04.3,2.97-.61,2.43-2.39,2.67-5.46,2.88-8.7Zm-1.98-16.65c-3.21,1.17-4.1,3.64-2.62,6.12.56.95,1.32.88,2.13.7.89-.2,1.18-.82,1.08-1.85-.07-.76-.01-1.53-.1-2.28-.1-.85-.3-1.68-.49-2.69Z"/><path class="cls-1" d="m513.04,80.27c-.54.59-.94,1.09-1.4,1.53-1.34,1.27-3.27,1.15-4.36-.34-1.06-1.45-1.56-3.09-1.14-4.88.29-1.24.62-2.49,1.15-3.63.33-.71.98-1.33,1.61-1.83.79-.63,1.71-1.09,2.47-1.56,2.09,1.01,3.02,2.61,3.68,4.58.74,2.22.93,4.48,1.22,6.77.3,2.36.11,4.68,0,7.01,0,.13-.09.29-.04.38,1.29,2.09-.11,3.96-.57,5.86-.49,1.98-1.15,3.94-1.95,5.82-1.11,2.6-3.43,3.74-6.03,4.2-.76.13-1.81-.29-2.44-.81-2.16-1.8-4.16-3.73-5.87-6.03-2.09-2.81-.57-4.57,1.99-5.81,1.34-.65,2.94-.86,4.45-1.07,1.96-.27,3.95-.36,5.93-.47.85-.05,1.62-.22,1.63-1.21.02-2.68-.03-5.35-.07-8.03,0-.11-.12-.22-.26-.45Zm.45,11.97c-.93.11-1.36.15-1.78.21-2.14.3-4.28.72-6.43.86-1.26.08-2.15.64-3.09,1.33-.73.53-.78,1.15-.33,1.82,1.32,1.98,2.82,3.8,5.1,4.74.39.16.94.29,1.27.13,1.15-.56,2.36-1.17,2.86-2.43.82-2.06,1.51-4.17,2.4-6.65Zm-2.42-19.58c-2.14,1.53-2.66,4.33-1.28,6.8,1.64-1.25,2.29-4.71,1.28-6.8Z"/><path class="cls-1" d="m355.53,82.04c-1.21,2.06-2.43,3.98-3.49,5.98-.84,1.59-2.24,2.5-3.72,3.2-1.48.7-3.13,1.12-4.75,1.45-2.81.57-5.15-.11-7.28-2.29-2.98-3.04-3.84-6.61-3.7-10.63.05-1.48.04-1.48-.82-2.7,1.66-.77,2.33-2.41,3.2-3.83,1.49-2.44,3.75-3.58,6.37-4.11,1.75-.35,3.84.89,4.54,2.55,1.03,2.44,1.43,4.85-.05,7.35-1.66,2.82-4.2,3.74-7.24,3.83-.76.02-1.51,0-2.24,0-.35,2.98,1.5,4.64,3.54,5.98,1.64,1.08,3.58.72,5.37.13,3.23-1.06,5.68-3.08,7.31-6.13.68-1.28,1.25-1.35,2.96-.79Zm-11.56-6.66c-.1-.75-.13-1.2-.23-1.64-.34-1.52-1.27-2.06-2.69-1.43-2.39,1.07-3.94,2.97-4.88,5.37-.37.95-.06,1.41.91,1.73,2.02.67,4.91-.36,6.06-2.21.39-.63.63-1.37.83-1.82Z"/><path class="cls-1" d="m117.98,72.68c-1,.5-1.68.6-2.35-.05-1.46-1.41-2.92-2.82-4.43-4.19-.65-.59-1.42-1.06-2.2-1.64-1.05.86-1.75,1.88-1.81,3.1-.11,2.67-.03,5.35-.03,8.24,4.84-.38,9.45.47,14.01,2.72-.7.8-1.26,1.45-1.92,2.2-1.47-.51-2.87-1.23-4.34-1.45-2.13-.31-4.32-.37-6.48-.32-1.14.02-1.35.65-1.25,1.91.16,2.08.21,4.16.35,6.24.03.5.14,1.03.35,1.48.39.84.13,1.46-.47,2.06-.84.85-1.27.94-2.19.39-.9-.54-1.28-1.35-.62-2.21.68-.89-.2-1.41-.17-2.13.07-2.15-.13-4.3-.24-6.75-1.75.22-3.43.36-5.09.66-1.57.28-3.11.74-4.67,1.08-1.24.27-1.69.05-1.99-.88-.31-.96.02-1.72,1.2-2.01,2.79-.7,5.59-1.33,8.42-1.84,1.66-.3,1.75-.25,1.93-1.97.35-3.49.69-6.99,1.07-10.48.29-2.69,2.01-3.7,4.43-2.61,1.97.89,3.5,2.21,4.56,4.18.7,1.3,1.47,2.7,3.17,3.15.31.08.49.69.77,1.12Z"/><path class="cls-1" d="m490.66,22.83c-.57-3.77-1.11-7.42-1.66-11.07-.36-2.34.31-3.11,2.75-3.14.75,6.06,1.44,12.14,2.99,18.11.74-.27,1.31-.47,1.84-.67,1.81,1.82,1.39,3.72.55,5.66-1.88,4.34-4.99,7.35-9.58,8.7-.66.2-1.39.24-2.09.2-2.03-.1-2.98-.87-3.18-2.89-.45-4.68.91-8.87,3.88-12.49,1.11-1.35,2.62-2.22,4.49-2.42Zm3.12,10.03c-1.12-.52-1.68-1.3-1.89-2.36-.13-.68-.36-1.35-.57-2.01-.24-.74-.52-1.52-1.42-1.63-.87-.11-1.53.2-2.13.97-1.17,1.53-1.5,3.36-2.17,5.08-.59,1.51-.58,2.96-.08,4.44,2.64.45,5.11-.87,8.25-4.47Z"/><path class="cls-1" d="m765.28,89.01c-1.73-1.61-1.99-3.67-2.12-5.7-.12-1.9.09-3.82.05-5.73-.02-.75-.34-1.48-.5-2.23-.24-1.12-.44-2.24-.69-3.35-.22-.98-.49-1.95-.77-3.04-1.42.43-2.36,1.25-2.97,2.24-.83,1.34-1.7,2.79-1.99,4.3-.62,3.28-1.45,6.56-1.21,9.96.07.96-1.13,2.08-2.11,2.12-.67.03-1.16-.29-1.27-.93-.32-1.76-.79-3.52-.82-5.29-.06-3.46.14-6.92.25-10.38.07-2.25.61-4.41,1.39-6.52.21-.58.41-1.16,1.13-1.07.83.11,1.14.75,1.19,1.52.12,1.9-.36,3.71-.68,5.56-.2,1.15-.21,2.33-.3,3.49.13.03.26.06.39.08.22-.42.52-.82.64-1.27.66-2.47,2.28-4.28,4.17-5.84,1.77-1.46,3.9-.96,5.04,1.06.4.72.7,1.51.94,2.31,1.11,3.71,1.46,7.5,1.28,11.36-.04.87.09,1.79.38,2.61.85,2.44.78,2.85-1.43,4.71Z"/><path class="cls-1" d="m666.03,79.51c.75,1.21.79,2,.06,2.89-.81.98-1.49,2.08-2.18,3.15-1.79,2.8-4.58,4.3-7.47,5.51-2.71,1.13-5.9-.28-7.52-2.96-1.12-1.86-1.51-3.92-1.51-5.87-.75-.65-1.33-1.22-1.97-1.72-1.11-.85-.92-2.05-.83-3.17.06-.75.58-1.31,1.42-1.3.75.01,1.13.44,1.21,1.21.05.46.27.9.61,1.35.46-2.69,1.65-5,2.92-7.3.88-1.59,2.18-2.73,3.75-3.44,2.48-1.13,4.81.2,5.81,3.05,1.03,2.95.33,5.53-1.69,7.77-1.76,1.96-3.82,3.42-6.64,3.3-.25-.01-.5.09-.79.15-.89,1.44-.6,2.75.28,4.09.68,1.04,1.28,2.01,2.71,2.16.94.1,1.71,0,2.57-.43,3.81-1.91,6.89-4.6,9.27-8.47Zm-15.55-.5c4.29.78,7.23-2.22,8.05-5.11.15-.53.15-1.16.04-1.7-.21-1.08-1.23-1.93-2.16-1.76-1.27.22-2.52.63-3.1,1.95-.95,2.14-1.85,4.31-2.84,6.63Z"/><path class="cls-1" d="m723.99,79.29c.38-.62.88-1.15,1.06-1.78.86-2.87,1.62-5.77,2.43-8.65.35-1.23.74-2.44,1.14-3.65.12-.36.25-.81.53-1,.45-.29,1.1-.64,1.51-.51.36.12.53.87.74,1.36.06.15,0,.38-.06.56-.91,3.65-1.75,7.31-2.75,10.94-.89,3.25-1.59,6.63-3.04,9.63-1.83,3.79-2.9,7.77-4.16,11.72-.23.72-.31,1.49-.48,2.24-.39,1.7-.97,2.23-2.7,2.46-.97-1.01-1.09-2.18-.66-3.5,1.23-3.76,2.41-7.54,3.64-11.3.43-1.32,1.04-2.6,1.44-3.93.33-1.12-.07-1.92-1.01-2.81-2.9-2.76-4.88-6.07-4.75-10.28.04-1.19.3-2.28,1.25-3.11.92-.8,1.8-.52,2.08.69.06.25.18.54.1.75-.93,2.58.34,4.75,1.36,6.92.53,1.12,1,2.36,2.32,3.24Z"/><path class="cls-1" d="m364.8,16.39c1.83,1.85,4.12,1.21,6.2,1.39,1.21.11,2.48-.37,3.64-.57.2-2.37.41-4.47.55-6.57.09-1.31.26-2.53,1.43-3.42.3-.23.4-.74.54-1.14.25-.68.46-1.38.68-2.08.17.02.34.03.51.05.2,1.36.39,2.71.63,4.34-.09.18-.48.6-.54,1.07-.29,2.2-.48,4.42-.74,6.91,2.3-.34,4.44-.56,6.52-1.01,1.87-.4,3.69-1.03,5.52-1.61,1.05-.33,1.86-.18,2.45.91-4.2,3.08-9.09,3.94-14.15,4.83,0,2.27-.1,4.57.02,6.85.14,2.68.55,5.34.67,8.02.04.91.33,1.44,1.08,1.76-.09.57-.19,1-.23,1.44-.07.82-.55,1.31-1.31,1.42-.86.12-1.29-.46-1.47-1.21-.39-1.61-.88-3.2-1.1-4.84-.45-3.42-.76-6.86-1.09-10.29-.05-.56.07-1.13.12-1.91-.55-.03-1.09-.12-1.62-.09-2.17.1-4.34.24-6.52.36-.19.01-.39,0-.58,0-2.31-.08-2.84-.93-1.9-3.08.2-.45.4-.9.69-1.55Z"/><path class="cls-1" d="m24.95,65.12c1.82-.41,1.74-.38,2.3.9,1.77,4.03,1.56,8.36,1.98,12.59.08.82.01,1.65.01,2.65.99-.5,1.78-.99,2.64-1.31,2.21-.81,4.5-.07,6.02,1.7,1.22,1.42,1.73,3.04,2.06,4.84.43,2.35.46,4.69.41,7.05-.01.55.36,1.1.65,1.91-.16.34-.4,1.01-.79,1.58-.35.5-.85,1.16-1.56.69-.53-.35-1.19-.96-1.25-1.5-.19-1.89-.12-3.8-.2-5.71-.06-1.4-.12-2.81-.34-4.19-.29-1.85-1.79-2.74-3.25-3.52-.77-.41-2.1.39-2.47,1.35-.25.65-.42,1.35-.49,2.05-.29,2.86-.57,5.72-.77,8.59-.06.92-.34,1.59-1.13,2.07-1,.59-1.77.3-1.95-.82-.14-.88-.26-1.78-.25-2.68.02-2.29.22-4.58.16-6.87-.08-3.32-.33-6.64-.5-9.96-.1-1.9-.11-3.81-.27-5.7-.11-1.26-.41-2.5-.63-3.75-.12-.66-.26-1.32-.39-1.98Z"/><path class="cls-1" d="m778.28,79.07c-.75,1.89.2,3.7,1.58,5.13,1.32,1.36,3.26,1.27,5.04.93.99-.19,1.98-.55,2.9-.99,1.55-.74,3.05-1.58,4.53-2.44.28-.16.42-.58.58-.9.4-.78,1.61-1.06,2.79-.43-.81.94-1.61,1.82-2.36,2.75-2.35,2.91-5.47,4.51-9.08,5.12-2.92.49-5.62-.03-7.6-2.54-1.07-1.36-1.54-2.95-1.77-4.6-.2-1.43-.1-2.91-.26-4.35-.19-1.78.79-3.26,1.15-4.89.2-.91.55-1.86,1.07-2.62,1.32-1.89,3.05-3.39,5.1-4.43,1.65-.84,4.05.37,4.34,2.19.23,1.44.35,2.94.2,4.38-.26,2.46-1.83,4.21-3.81,5.5-1.25.82-2.69,1.36-4.41,2.21Zm.17-3.94c2.17.29,3.49-.81,4.53-2.19,1.25-1.66,2.03-3.5.8-5.69-1.38.38-2.41,1.16-2.98,2.31-.84,1.7-1.49,3.5-2.35,5.56Z"/><path class="cls-1" d="m292.3,86.41c.17,6.42-7.45,10.8-11.82,9.19-4.4-1.63-6.41-3.4-6.56-8.31-.03-.83,0-1.66,0-2.59-.89-.66-2.34-1.14-1.79-2.69.41-1.16,1.48-1.53,2.76-1.38.69-1.86,1.44-3.66,2.82-5.12,1.56-1.65,3.53-1.98,5.47-1.28,1.78.63,3.41,1.64,3.63,4,.28,2.88-.78,5.1-3.48,6.04-1.8.63-3.7.99-5.69,1.51-.85,1.61-.74,3.24.41,4.74,1.43,1.86,3.27,2.86,5.69,2.31,2.79-.63,5.11-1.9,6.53-4.57.35-.66,1.15-1.07,2.03-1.84Zm-14.36-3.63c1.68-.61,3.22-1.03,4.62-1.71,1.52-.74,1.86-2.2.9-3.52-.28-.39-.99-.75-1.43-.68-2.19.33-4.2,3.09-4.09,5.91Z"/><path class="cls-1" d="m394.87,72.81c.45-2.78.8-5.31,1.3-7.82.18-.91.71-1.76,1.09-2.63,1.08-2.46,5.34-2.53,6.87-.34.84,1.2,1.67,2.47,2.18,3.83.34.88.22,1.99.08,2.97-.07.53-.66,1.09-1.3.79-.35-.17-.72-.8-.68-1.19.15-1.4-.31-2.54-1.22-3.52-.42-.46-.97-.83-1.54-1.11-.77-.38-1.41-.18-2.01.54-1.06,1.28-1.15,2.85-1.39,4.33-.2,1.24-.04,2.53-.04,3.92,3.72-.41,7.44.18,11.2-1.26.39.15,1.08.41,1.97.76-.27.42-.41.92-.71,1.05-1.05.46-2.13.94-3.25,1.14-2.83.51-5.7.87-8.55,1.3-.18.03-.36.09-.81.21,0,1.33-.1,2.71.02,4.08.21,2.28.53,4.56.89,6.82.1.64.53,1.24.9,2.04-.62.94-.72,2.56-2.47,2.86-.93-.46-.87-1.36-.99-2.15-.44-2.89-.88-5.78-1.25-8.68-.12-.95-.06-1.92-.07-2.88,0-.69,0-1.39,0-2.1-1.51.2-2.83.46-4.16.54-1.37.09-1.89-.4-2.08-1.69-.15-1.01.16-1.41,1.19-1.49,1.59-.12,3.18-.22,4.81-.32Z"/><path class="cls-1" d="m235.47,17.1c.23,2.61.62,5.33.69,8.05.08,3.16.32,6.31,1.27,9.28.59,1.83.88,3.89,2.3,5.41.21.23.48.58.44.83-.08.52-.23,1.15-.59,1.47-.26.23-1.02.23-1.35.02-1.35-.88-1.86-2.38-2.49-3.78-.31-.7-.56-1.42-.91-2.32-.5.6-.85,1.14-1.3,1.54-1.05.92-2.05,1.95-3.25,2.64-2.31,1.34-5.12.14-6.05-2.39-.26-.71-.58-1.41-.97-2.06-.85-1.4-.58-2.98-.62-4.45-.07-2.48.15-4.98.35-7.46.07-.87.29-1.79.68-2.56.68-1.37,1.82-1.41,3.1-.17-1.17,1.57-1.11,3.4-1.01,5.28.1,1.83.03,3.67,0,5.51-.03,2.02.99,3.67,1.88,5.35.38.72,1.05.63,1.69.34,1.93-.89,3.08-2.48,3.61-4.46.32-1.21.29-2.44.16-3.75-.37-3.58-.43-7.2-.45-10.8-.02-1.99.44-2.19,2.83-1.52Z"/><path class="cls-1" d="m667.18,13.97c1.21.63,1.51,1.48,1.18,2.26-1.17,2.79-1.24,5.71-1.36,8.82,2.11-1.19,4.34-1.81,6.66-2.09,1.46-.18,2.93-.22,4.4-.25,1.32-.03,2-.69,2.56-1.88.7-1.48,1.7-2.82,2.63-4.18.61-.88,1.36-.76,2.11-.14-3.19,6.68-3.5,9.65-2.61,17.83.29.11.67.19.97.39.97.63,1.05,1.59.2,2.36-.28.26-.59.49-.91.7-.97.64-1.64.47-2.13-.62-.28-.64-.5-1.33-.57-2.02-.32-3.43-.59-6.86-.88-10.48-2.26.36-4.75.73-7.22,1.17-3.14.56-3.36,1.82-3.64,4.35-.2,1.76-.02,3.57.01,5.35.02.85-1.16,2.49-1.94,2.55-.83.07-1.12-.56-1.24-1.2-.18-.94-.23-1.9-.36-2.85-.14-1.01-.37-2.01-.48-3.03-.11-1.14-.16-2.28-.17-3.43-.02-1.47.03-2.95.02-4.42-.03-3.31,1.34-6.16,2.78-9.19Z"/><path class="cls-1" d="m27.81,45.76c-1.75-.45-3.35-.86-4.94-1.28-1.32-.35-2.61-1.1-3.95,0-.2.16-.87.08-1.06-.12-.88-.96-1.79-.36-2.68-.13-.86.23-1.71.53-2.55.82-.94.32-1.46-.11-1.79-.93-.31-.77.06-1.24.71-1.53,1.74-.77,3.5-1.5,5.31-2.28,0-1.04,0-2.23,0-3.42,0-2.63.06-5.25,0-7.88-.08-3.13-.27-6.26-.37-9.4-.04-1.24.04-2.48.07-3.58-2.07.43-4.34.9-7.04,1.46,1.05-1.9,1.47-3.52,3.68-3.71,3.17-.27,6.25-1.33,9.49-1.21,1.23.04,2.07.43,2.73,1.59-.31.5-.64,1.03-.85,1.37h-5.15c-.07,1.87-.22,3.62-.2,5.36.05,3.52.2,7.04.32,10.55.08,2.49.21,4.98.27,7.47.02.85.44,1.23,1.17,1.53,1.89.78,3.75,1.62,5.61,2.46,1.26.57,1.45,1,1.22,2.87Z"/><path class="cls-1" d="m617.79,33.26c.15,1.59-.67,2.3-1.4,2.96-2.72,2.41-5.86,3.65-9.55,2.99-1.42-.25-2.64-.89-3.54-2.1-1.64-2.21-2.69-4.63-2.92-7.39-.2-2.49-.3-4.96.53-7.39,1.51-4.44,4.5-7.19,9.12-8.07,3.27-.62,5.95,1.42,6.36,4.73.5,3.99-1.17,7.15-4.74,9.06-2.53,1.36-5.1,2.06-7.91.89-.15-.06-.35-.02-.67-.03.23,2.98,1.22,5.61,3.65,7.28,1.88,1.29,4.08.76,6.06-.15,1.09-.5,2.07-1.26,3.12-1.87.54-.31,1.12-.55,1.88-.93Zm-12.71-7.62c.2,1.36,1.28,1.3,2.3,1.25,2.11-.1,3.86-1.13,5.17-2.65,1.27-1.46,2.01-3.27,1.83-5.31-.08-.94-.39-1.89-1.37-2.12-2.03-.49-4.05-.55-5.89.75-2.84,2-3.87,4.91-4.29,8.39.8-.11,1.46-.2,2.26-.31Z"/><path class="cls-1" d="m164.92,81.99c.86-.87,1.5-1.44,2.04-2.09.66-.79,1.19-1.67,1.84-2.46,1.2-1.48,3.35-1.69,4.8-.46,1.55,1.32,2.71,2.99,3.12,4.96.42,2.06-.66,3.73-2.11,5.09-1.96,1.83-4.15,3.24-6.98,3.06.07,3.33,3.17,5.4,6.16,4.2,2.3-.93,4.18-2.36,5.31-4.66.49-1,1.4-.87,2.39-.67-.55,2.61-1.94,4.59-3.88,6.17-1.27,1.03-2.52,2.03-4.3,2.35-2.5.45-4.54-.31-6.53-1.58-.31-.2-.6-.5-.78-.82-1.79-3.18-2.58-6.52-1.61-10.15.28-1.04.39-2.12.53-2.93Zm2.12,5.2c1.08-.26,1.74-.43,2.4-.58,2.73-.6,4.1-2.37,3.97-5.13-.03-.72-.02-1.47-.78-1.82-.81-.37-1.44.02-2.03.63-1.78,1.84-2.68,4.1-3.57,6.9Z"/><path class="cls-1" d="m236.32,93.41c-3.33.88-4.06-1.98-5.6-3.75-.79,1.08-1.51,2.16-2.33,3.15-2.87,3.53-7.29,2.39-8.9-.71-1.65-3.17-1.19-6.01.39-8.91.18-.34.39-.66.55-1.01,1.25-2.77,3.45-4.18,6.43-4.46.18-.02.36-.11.71-.22,0-.57-.03-1.18.01-1.78.03-.47.03-1.21.29-1.33.44-.21,1.15-.2,1.59.02.45.23.87.78,1.02,1.27.46,1.52.78,3.08,1.15,4.63.48,2.05.97,4.1,1.41,6.16.38,1.78,1.52,3.1,2.68,4.37.68.75.98,1.45.59,2.56Zm-8.09-13.41c-3.11.33-6.67,4.61-6.75,7.64-.04,1.73.75,3.87,1.72,4.23,1.26.47,3.05-.37,4.09-2.2,1.71-3.02,2.01-6.24.94-9.67Z"/><path class="cls-1" d="m294.95,72.12h2.04c.04.6.08,1.09.12,1.66.2-.09.39-.12.49-.23,1.02-1.11,2.11-2.03,3.76-1.94,1.13.06,2.04.37,2.87,1.26,1.9,2.05,3.35,4.29,3.83,7.08.42,2.45.88,4.9,1.28,7.36.15.88.21,1.73.86,2.48.76.88-.16,1.64-.32,2.42-1.99.36-3.1-.37-3.47-2.32-.46-2.45-.78-4.92-1.26-7.36-.49-2.45-1.25-4.82-2.8-6.84-.6-.78-1.55-1-1.98-.5-.49.56-.98,1.18-1.22,1.87-.63,1.75-1.2,3.46-1.07,5.46.11,1.74-.34,3.51-.05,5.32.1.59-.52,1.45-1.04,1.95-.88.86-2.35.16-2.54-1.17-.52-3.79-.95-7.59-.54-11.41.17-1.64.65-3.25,1.03-5.1Z"/><path class="cls-1" d="m697.78,85.21c1.42.29,1.71.57,1.31,1.45-1.18,2.58-2.88,4.77-5.69,5.55-2.01.56-4.22.55-6.02-.81-2.2-1.66-3.9-3.79-4.48-6.52-.34-1.6-.28-3.3-.26-4.95.02-1.08-.05-2.04-1.04-2.8.78-1.1.15-3.08,2.3-3.16.6-3.72,4.22-7.11,7.64-7.32,1.56-.1,3.25.94,3.69,2.42.96,3.21-.43,6.07-3.77,7.66-1.38.66-2.78,1.3-4.21,1.85-1.03.4-1.49.98-1.49,2.14,0,2.15.25,4.22,1.34,6.11,1.54,2.66,3.58,3.34,6.47,2.25,1.87-.71,3.39-1.75,4.19-3.86Zm-11.24-9.16c1.29-.59,2.55-1.32,3.89-1.74,1.25-.39,2.04-1.26,2.87-2.12.63-.65.7-1.98.25-2.66-.46-.7-1.34-.95-2.4-.58-.53.19-1.13.4-1.51.78-1.69,1.68-2.62,3.79-3.1,6.32Z"/><path class="cls-1" d="m17.74,81.58c-.65,2.93-.48,5.74-.39,8.54.03.83.08,1.66.21,2.47.1.59.28,1.2.55,1.73.68,1.29.65,2.6.15,3.88-.15.39-.7.83-1.1.87-.38.04-1-.32-1.19-.68-.96-1.77-1.45-3.68-1.36-5.72.03-.81,0-1.63-.02-2.45-.05-2.12-.08-4.23-.16-6.34-.03-.75-.15-1.5-.25-2.5-1.22.09-2.29.11-3.34.26-1.39.21-2.76.55-4.15.78-.42.07-.97.11-1.28-.09-.43-.29-.88-.79-.97-1.27-.07-.35.34-.97.7-1.19,1.04-.61,2.14-1.09,3.41-1.13,1.78-.06,3.56-.21,5.38-.33.48-1.3.59-2.56.49-3.83-.22-2.68.78-5.16,1.28-7.72.14-.71.89-1.3,1.35-1.94,1.24.45,1.35,1.07,1.05,2.04-1.14,3.73-.93,7.56-.9,11.53,2,.44,3.84.75,5.65-.31,1.19-.69,2.14-.42,2.64.74.31.72.33,1.45-.47,1.82-.79.36-1.64.73-2.49.79-1.58.13-3.17.04-4.8.04Z"/><path class="cls-1" d="m251.15,28.42c1.19-1.82,2.05.26,3.16-.02.19-.78.3-1.66.62-2.46.33-.83.84-1.58,1.31-2.35,1.11-1.82,2.87-2.57,4.87-2.5.86.03,1.75.64,2.54,1.13.47.29.75.86,1.14,1.29,2.1,2.31,1.31,4.76-.59,6.61-1.9,1.84-4.17,2.94-6.89,2.74-.05,2.54,2.05,4.97,4.37,5.55,2.73.68,5.23-.14,7.67-1,.82-.29,1.33-1.46,1.96-2.24.33-.4.62-.83.97-1.31,1.31,1.16.5,2.13.04,2.9-.62,1.03-1.53,1.88-2.32,2.8-.12.14-.29.25-.46.32-3.24,1.38-6.58,2.2-10.01.88-1.94-.74-3.41-2.27-4.47-4.03-.91-1.51-1.85-3.1-1.57-5.04.04-.3-.22-.7-.44-.98-.58-.75-1.21-1.47-1.91-2.3Zm5.87,1.41c2.09.53,5.49-1.15,6.16-3.01.4-1.12.1-2.34-.68-2.71-1.08-.52-3.37,0-3.99,1.08-.82,1.42-1.62,2.9-1.48,4.64Z"/><path class="cls-1" d="m51.08,29.51c1.72-1.26,3.14-2.56,4.79-3.46,2.6-1.42,5.57.27,6.02,3.2.28,1.88-.23,3.56-1.17,5.13-1.64,2.74-4.04,4.79-6.49,6.75-2.03,1.62-4.66.43-5-2.14-.2-1.52-.25-3.06-.4-4.58-.37-3.68-.68-7.36-1.17-11.02-.25-1.89-.81-3.74-1.28-5.6-.18-.72-.44-1.4.46-1.78,1.03-.43,2.27-.05,2.56.89.38,1.22.66,2.47.85,3.73.33,2.34.58,4.68.83,7.03.07.61,0,1.24,0,1.85Zm1.59,9.38l.44.22c1.49-1.56,3.05-3.06,4.45-4.69.65-.76,1.07-1.74,1.48-2.68.47-1.08.16-2.46-.54-3.03-.63-.51-1.76-.35-2.84.42-.21.15-.38.34-.57.52-2.69,2.61-3.02,5.81-2.42,9.24Z"/><path class="cls-1" d="m70.06,75.3c2.44-.33,4.79-.64,7.27-.97.03.25.07.61.11.97.23,2.08-.26,2.54-2.34,2.63-1.52.06-3.02.36-4.62.56,0,1.35-.07,2.62.01,3.88.22,3.54.55,7.08.72,10.62.06,1.31.57,2.33,1.46,3.4-.28.38-.54.8-.86,1.17-.6.67-1.25.55-1.86.01-1.03-.9-1.4-2.05-1.53-3.4-.45-4.82-.98-9.63-1.51-14.7-1.48.36-2.82.67-4.15,1.01-1.64.41-2.83-.52-4-1.38-.25-.18-.39-.96-.22-1.19.31-.4.96-.91,1.36-.83,2.4.5,4.46-1.03,6.89-.83,0-1.33.08-2.47-.02-3.6-.15-1.63.04-3.16.87-4.58.1-.17.16-.36.28-.5.55-.61,1.09-1.5,2.03-1.04.9.44.41,1.28.22,2.03-.39,1.55-.72,3.11-.25,4.73.19.65.09,1.38.13,1.98Z"/><path class="cls-1" d="m69.13,36.18c.74,2.94,2.39,4.05,5.23,3.51,2.14-.41,4.23-.96,6.07-2.21.89-.61,1.41-.25,1.79.75-2.76,3.02-6.26,4.49-10.33,4.66-2,.08-3.49-.82-4.26-2.67-.49-1.16-1.32-2.11-1.52-3.48-.18-1.23.14-2.3.41-3.38.56-2.29,1.16-4.61,2.11-6.75.99-2.25,2.84-3.76,5.34-4.31,1.2-.26,2.26-.06,3.27.67,3.15,2.28,3.81,7.01,1.47,10.06-1.1,1.44-2.27,2.72-3.86,3.67-1.75,1.05-3.34,1.11-4.95-.16-.19-.15-.4-.29-.6-.43-.03-.02-.11.03-.16.05Zm.23-4.69c.56.73,1.04,1.4,1.54,2.04.97,1.23,2.15,1.45,3.32.41,1.14-1.01,2.18-2.17,3.09-3.39.95-1.28.91-2.81.25-4.21-.27-.57-.91-1.23-1.48-1.33-1.62-.28-3.14,0-4.33,1.41-1.29,1.52-1.87,3.31-2.4,5.07Z"/><path class="cls-1" d="m61.21,94.02c-1.52,2.08-2.49,2.26-4.28.92-1.02-.76-1.97-1.62-2.97-2.41-.33-.26-.72-.46-1.21-.78-.55,1.06-1.01,2.02-1.53,2.95-.62,1.11-1.58,1.87-2.79,2.18-2.71.69-5.01-.73-5.24-3.54-.46-5.61.79-10.67,5.48-14.38.7-.55,1.3-1.24,2.03-1.74.27-.19.89-.18,1.16.01.26.18.51.89.38,1.06-1.03,1.33-.33,2.62-.16,3.99.5,3.84,2.64,6.69,5.22,9.33.58.59,1.15,1.1,2.07,1.27.62.11,1.16.7,1.85,1.14Zm-13.06-10.87c-1.41,2.32-2,4.75-2.25,7.33-.13,1.3.1,2.38,1.01,3.48.48-.16.97-.27,1.42-.47,1.14-.52,1.19-1.7,1.6-2.68.89-2.11.45-3.95-.85-5.73-.39-.53-.58-1.2-.92-1.92Z"/><path class="cls-1" d="m181.71,24.81c.87-1.11,1.46-2.09,2.26-2.87,1.97-1.92,4.88-1.36,6.64.79,2.7,3.31,3.29,7.23,3.96,11.21.23,1.36.77,2.67,1.15,4.01.12.42.33.86.29,1.27-.07.77-.65,1.51-1.33,1.4-.71-.11-1.72-.69-1.91-1.28-.71-2.3-1.21-4.67-1.68-7.04-.47-2.39-.91-4.78-2.09-6.94-.21-.38-.49-.76-.83-1.03-1.4-1.15-2.16-1.04-3.02.52-.43.77-.86,1.64-.93,2.5-.19,2.48-.21,4.97-.26,7.45-.03,1.26.29,2.53-.45,3.74-.4.66-.91.98-1.56.75-.47-.17-.98-.58-1.19-1.02-.26-.55-.21-1.24-.34-1.87-.67-3.31-.79-6.66-.68-10.03.02-.76-.21-1.52-.23-2.28-.01-.56.01-1.2.27-1.67.19-.36.77-.65,1.19-.68.22-.02.63.57.7.94.11.65.03,1.34.03,2.13Z"/><path class="cls-1" d="m154.12,78.93c2.55-.39,4.86-.79,7.19-1.09.5-.06,1.16.06,1.53.37.39.32.7.95.69,1.44,0,.28-.68.7-1.11.79-2.31.51-4.63.94-6.95,1.4-.24.05-.48.13-.94.25.15,1.76.27,3.52.47,5.27.15,1.33.38,2.66.66,3.97.19.91.56,1.78.79,2.69.14.54.27,1.14.19,1.68-.17,1.19-1.24,1.52-2.07.63-.45-.49-.77-1.16-.98-1.8-1.21-3.66-1.64-7.47-2.02-11.41-1.57-.29-3.01.13-4.45.62-.66.23-1.33.46-2.01.62-.71.17-1.22-.17-1.58-.8-.41-.72-.11-1.37.46-1.66,1.51-.75,2.82-1.97,4.7-1.9.86.03,1.72-.25,2.63-.4,0-.63.02-1.07,0-1.5-.2-3.31-.34-6.63.4-9.9.14-.62.27-1.27.56-1.82.34-.64.91-1.2,1.72-.79.72.36.86,1.16.62,1.81-1.38,3.77-.25,7.58-.51,11.53Z"/><path class="cls-1" d="m543.67,14.77c.2-1.11.24-2.04.55-2.86.53-1.42,1.25-2.77,1.87-4.16.4-.91,1.05-1.01,2.04-.56.66,2.53-1.4,4.73-1.24,7.35,2.16.09,4.26.26,6.35.23,1.96-.03,2.02-.07,2.42,2.2-2.77,1.34-5.94-.15-8.6.99-.12,1.09-.27,2.07-.31,3.06-.02.56.17,1.12.23,1.68.21,1.84.36,3.69.62,5.52.24,1.71.57,3.4,2.02,4.62.57.48.95,1.25.38,1.83-.34.35-1.17.41-1.73.32-1.45-.26-2.37-1.22-2.68-2.66-.52-2.44-1.07-4.87-1.44-7.33-.34-2.26-.46-4.56-.69-6.93-1.92-.02-3.73.54-5.54,1.13-.36.12-.72.26-1.09.37-.79.22-1.65.64-2.27-.23-.44-.61.28-2.42,1.18-2.72,1.75-.58,3.55-1,5.35-1.44.8-.19,1.63-.27,2.57-.42Z"/><path class="cls-1" d="m637.66,16.94c1.82,1.4-.33,2.72.07,4.24.76-.1,1.49-.2,2.23-.29,2.39-.28,4.45,1.07,4.61,3.29.07,1-.29,2.18-.83,3.06-1.27,2.06-2.76,3.99-4.17,5.97-.62.87-1.3,1.71-1.89,2.6-.16.23-.15.61-.15.91.03,3.64.09,7.28.11,10.92,0,1.52-.54,2.34-1.45,2.33-.84-.01-1.45-1.03-1.19-2.46.58-3.34.11-6.63-.11-9.95-.16-2.36-.06-4.74.05-7.11.05-1.12-.04-2.13-.56-3.15-.66-1.27-1.08-2.51-.19-3.98.5-.82.47-1.97.63-2.98.26-1.65,1.05-2.86,2.86-3.41Zm-.32,13.79c.18.07.36.14.54.2,1.28-1.78,2.65-3.51,3.79-5.38.73-1.2-.29-2.45-1.71-2.18-.96.19-1.88.63-2.74.93.08,1.25.18,2.26.19,3.27.02,1.05-.05,2.1-.07,3.15Z"/><path class="cls-1" d="m486.25,68.72c1.84.51,1.69,1.94,1.79,3.15.11,1.31.02,2.63.29,4,.14-.36.26-.73.41-1.09.38-.88.68-1.81,1.19-2.61,1.64-2.55,4.68-2.55,6.39-.03,1.49,2.2,2.4,4.65,3.04,7.21.18.72-.05,1.53.07,2.27.23,1.37.54,2.74.88,4.09.22.86.09,1.53-.8,1.88-.76.3-1.79.02-2.15-.77-.36-.79-.62-1.7-.65-2.57-.1-2.77-.47-5.48-1.58-8.03-.43-.99-.99-1.92-1.56-2.84-.39-.63-.93-.58-1.42-.06-1.16,1.22-1.57,2.69-1.66,4.36-.15,2.54-.16,5.13-1.07,7.56-.23.63-.64,1.27-1.14,1.7-.87.77-1.88.43-2.29-.64-.09-.24-.13-.5-.15-.75-.24-3.3-.68-6.61-.64-9.91.02-2.24-.08-4.6,1.04-6.91Z"/><path class="cls-1" d="m132.41,31.49c.36,1.69,1.84,3.03,3.54,2.91,2.87-.2,5.75-.56,8.16-2.38.74-.56,1.42-.9,2.28.11-1.85,1.82-3.5,3.91-6.3,4.35-1.89.3-3.79.68-5.69.68-1.59,0-3.23-.43-3.71-2.4-.06-.23-.3-.4-.46-.61-2.31-3.06-2.52-6.42-1.45-9.98.66-2.18,1.75-4.02,3.44-5.63,2.27-2.17,4.82-.64,5.64,1.55.53,1.42.8,2.95,1.1,4.45.09.47-.05,1.03-.21,1.5-1.07,3.03-2.8,5.31-6.35,5.45Zm3.37-11.16c-.9.31-1.45.42-1.91.68-1.13.64-2.98,4.76-2.77,6.03.17,1.03,1.62,1.93,2.51,1.46,1.59-.84,2.88-1.99,2.74-4.01-.09-1.26-.33-2.5-.57-4.16Z"/><path class="cls-1" d="m257.3,91.04c1.39,1.24,1.55,1.3,3.28.27,1.14-.68,2.22-1.48,3.26-2.31.78-.62.85-1.44.12-2.16-.67-.66-1.38-1.29-2.13-1.86-.97-.73-2.02-1.34-2.99-2.06-3.41-2.53-4.02-8.17-.26-11.32.74-.62,1.51-1.2,2.18-1.88,1.4-1.42,3.11-2.18,5.03-2.62,1.11-.26,2.16-.79,3.26-1.12,1.5-.46,2.31.08,2.42,1.35-2.35,1.13-4.72,2.09-6.89,3.37-1.51.89-2.95,2.06-4.1,3.39-2.85,3.3-1.56,5.85,1.82,7.7,1.73.94,3.23,2.08,4.54,3.49,1.42,1.53,1.39,2.94.18,4.66-1.56,2.24-3.67,3.69-6.21,4.55-1.44.49-2.8.2-3.93-.78-1.09-.94-.92-1.7.44-2.66Z"/><path class="cls-1" d="m326.22,83.65c-1.97-.66-3.77-1.28-5.59-1.86-.93-.3-1.72-.7-2.36-1.51-.79-1.01-.99-2.04-.68-3.23.05-.19.17-.37.17-.55-.15-3.33,2.27-4.87,4.49-6.62,2.06-1.62,4.41-2.21,6.92-2.53.94-.12,1.86-.46,2.8-.62.32-.05.93.11.97.27.09.37.04.94-.2,1.19-.37.38-.92.71-1.44.81-3.14.63-5.89,2.09-8.41,3.99-1.59,1.2-2.12,2.99-2.26,4.91-.05.76.46.92,1.05,1.12,2.24.74,4.47,1.49,6.67,2.32,1.85.69,2.3,1.95,1.16,3.61-.74,1.08-1.69,2.22-2.81,2.8-2.25,1.17-4.69,2.01-7.07,2.92-.51.2-1.14.2-1.7.17-1.14-.07-1.67-.69-1.59-1.71.09-1.19.69-1.69,1.9-1.57.06,0,.12.06.18.06,1.77.2,6.54-2.12,7.81-3.99Z"/><path class="cls-1" d="m565.75,17.64c.38,1.57.6,2.88,1.02,4.12.54,1.57,1.19,3.1,1.9,4.6.22.46.79.79,1.25,1.11.25.17.6.19.91.3,1.37.48,1.98,1.24,1.72,2.13-.23.79-1.19,1.32-2.4,1.09-1.73-.33-3.35-.88-3.87-2.91-.09-.37-.49-.67-.7-.94-.84,1.08-1.49,2.19-2.41,3-.73.64-1.75,1.09-2.71,1.3-3.33.74-5.01-.89-5.44-4.21-.17-1.3.13-2.68.34-4,.39-2.45,1.87-4.2,3.96-5.37,2.1-1.17,4.33-.66,6.42-.2Zm-2.8,2.26c-2.01.13-3.43,1.05-4,2.96-.32,1.08-.47,2.24-.51,3.36-.06,2.12.79,2.68,2.8,1.91.99-.38,1.65-1.03,1.99-2.14.63-2.07-.05-4.01-.28-6.1Z"/><path class="cls-1" d="m532.49,70.12c2.44.6,1.13,2.43,1.68,3.7.54-.85.99-1.66,1.54-2.39,1.61-2.11,3.69-2.08,5.09.21.74,1.22,1.22,2.65,1.58,4.04.63,2.48.94,5,.87,7.6-.05,1.62.4,3.26.63,4.9-2.13.94-2.27.77-3.16-1.31-.83-1.93-.39-3.91-.57-5.85-.24-2.49-.63-4.93-1.51-7.29-.1-.28-.32-.53-.55-.91-.37.27-.77.43-.91.71-.85,1.7-1.69,3.38-1.86,5.36-.15,1.84-.58,3.66-.97,5.47-.22.99-1.17,1.9-2.32,2.43-.81-.7-1.12-1.64-1.12-2.69.02-3.45-.38-6.92.43-10.33.28-1.16.71-2.29,1.14-3.67Z"/><path class="cls-1" d="m663.65,28.9c-.18.85-.17,1.38-.4,1.79-2.24,4.04-5.53,6.48-10.3,6.58-1.72.03-3.68-1.39-4.15-3.17-.54-2.04-.87-4.13-.59-6.27.04-.31.09-.65.22-.93,1.54-3.27,3.3-6.38,6.55-8.31,2.34-1.39,4.52-.37,4.88,2.36.36,2.73-.72,4.86-2.84,6.53-1.65,1.31-3.52,2.05-5.62,2.11-.71,1.82.15,3.2,1.1,4.5.25.34.87.59,1.31.58,1.74-.07,3.44-.37,4.83-1.57,1.3-1.12,2.85-1.96,3.65-3.6.13-.26.67-.32,1.35-.61Zm-11.88-2.34c1.69.42,4.32-.82,5.45-2.57.86-1.34.83-2.19-.12-3.38-2.54.65-5.08,3.49-5.33,5.96Z"/><path class="cls-1" d="m102.12,33.86c.74,2.02,1.89,3.37,4.08,3.6,1.65.18,2.8-.77,3.91-1.72.75-.64,1.38-1.42,2.18-2.26.26,2.93-1.62,5.7-4.13,6.34-.8.2-1.64.32-2.46.38-3.09.2-5.52-1.87-6.11-4.93-.64-3.31-.58-6.51.93-9.57.85-1.71,1.75-3.46,3.64-4.29,2.51-1.11,3.66-.18,4.22,2.2.41,1.75.28,3.72-.02,5.53-.42,2.56-2.74,4.32-5.42,4.54-.24.02-.47.11-.82.2Zm4.5-10.03c-1.53-.24-2.12.51-2.71,1.29-1.2,1.56-1.73,3.33-1.83,5.25,2.81.42,3.77-.18,4.22-2.68.22-1.24.22-2.51.33-3.87Z"/><path class="cls-1" d="m251.87,16.8c.38,1.45-.41,2.38-1.26,3.25-.75.78-1.54,1.53-2.34,2.27-.87.8-1.43,1.79-1.74,2.92-.87,3.16-.06,5.56,2.61,7.52,1.59,1.17,2.74,2.7,3.61,4.42.32.63.48,1.56.27,2.22-.98,3.03-2.75,5.48-5.82,6.72-2.14.86-4.67-.93-4.77-3.34.52-.42.93-.39,1.46.13,1.47,1.47,1.54,1.48,3.11.15.92-.78,1.81-1.64,2.49-2.62.98-1.43.77-2.56-.46-3.76-.5-.49-1.05-.94-1.61-1.36-2.08-1.56-3.23-3.75-4.18-6.08-.09-.23-.13-.51-.11-.75.27-2.99.47-5.94,3.04-8.16,1.14-.99,2.14-2.15,3.37-3.08.76-.58,1.44-.67,2.33-.43Z"/><path class="cls-1" d="m666.36,67.72c.6.12.95.37,1.04,1.08.19,1.56.4,3.12.74,4.65.39,1.73.87,3.45,1.44,5.13.42,1.25,1.06,2.42,1.83,4.1.82-2.86,1.55-5.28,2.19-7.73.73-2.8,1.79-5.47,3.33-7.91.45-.71,1.23-1.26,1.96-1.75.55-.37,1.24-.42,1.69.27.44.69.42,1.4-.28,1.86-1.15.76-1.56,1.95-2.16,3.08-1.43,2.7-1.99,5.65-2.68,8.57-.34,1.43-.7,2.85-1.12,4.26-.14.47-.45.92-.76,1.31-1.68,2.11-3.36,1.98-4.75-.4-.42-.71-.79-1.47-1.07-2.25-1.02-2.8-2.54-5.44-2.65-8.54-.08-2.19-.14-2.26,1.26-5.74Z"/><path class="cls-1" d="m330.84,19.58c-.47,1.05-1.36,1.37-2.3,1.62-1.65.45-2.82,1.46-3.56,2.99-1.34,2.77-2.5,5.57-2.6,8.72-.06,2.03.29,3.8,1.87,5.2,1.56,1.37,3.12,2.53,5.42,2.45,2.1-.08,3.93-.36,5.12-2.33.24-.39.73-.63,1.19-1,.51.93.29,1.61-.21,2.23-.36.45-.77.86-1.17,1.28-2.48,2.66-6,3.24-9.29,1.65-1.83-.88-3.49-2.02-4.64-3.62-.74-1.03-1.19-2.43-1.29-3.7-.25-3.09.12-6.13,1.59-8.96.8-1.53,1.47-3.12,2.28-4.65,1.06-2.01,3.17-2.54,5.05-3.23,1.03-.38,1.84.59,2.55,1.34Z"/><path class="cls-1" d="m582.59,36.78c-1.82.68-2.64.36-2.97-1.12-.45-2.05-.69-4.17-1.39-6.14-.89-2.49-.82-5.02-1-7.56-.17-2.48-.24-4.97-.49-7.44-.15-1.52-.63-3-.82-4.52-.29-2.27.25-4.46.92-6.6.36-1.16.65-1.21,2.82-.88.02.39.1.82.06,1.24-.15,1.78-.34,3.55-.49,5.33-.04.44-.13.95.03,1.34,1.03,2.42.6,5.03.99,7.53.22,1.37.02,2.8.1,4.2.14,2.35.33,4.67,1.06,6.96.63,1.99.86,4.12,1.22,6.2.08.48-.03,1-.05,1.48Z"/><path class="cls-1" d="m387.01,81.43c-.35,3.45-.79,6.88-2.53,9.96-.63,1.12-1.4,2.16-2.69,2.63-2.26.83-4.82.02-6.09-2.02-.28-.45-.3-1.09-.38-1.64-.13-.82-.18-1.65-.32-2.47-.28-1.54.06-2.7,1.57-3.52.59-.32,1.03-1.1,1.32-1.77.89-2.08,2.28-3.69,4.15-4.93.9-.6,1.75-.97,2.83-.3,1.14.7,2.18,1.37,2.15,2.9,0,.38,0,.77,0,1.16Zm-5.15,9.56c1.49-2.56,2.15-5.15,2.71-7.76.15-.67.15-1.4.1-2.09-.06-.79-.61-1.12-1.34-.82-.46.19-.92.47-1.27.83-1.32,1.34-2.36,2.89-2.75,4.73-.2.95-1.23,2.22.49,2.92-.49,1.8,1.08,1.6,2.06,2.2Z"/><path class="cls-1" d="m136.91,98.67c-.59-1.18-.07-2.04.79-2.84.64-.6,1.32-1.18,1.87-1.85,1.03-1.27.86-1.85-.68-2.56-1.33-.61-2.66-1.26-4.05-1.72-1.35-.44-2.05-1.38-2.75-2.51-1.81-2.93-.69-5.53.81-8.08,1.81-3.09,4.71-4.77,7.98-5.94.29-.1.68-.2.93-.09.42.19.88.47,1.11.85.32.54-.04.96-.55,1.23-1.29.71-2.61,1.36-3.84,2.15-2.13,1.37-3.52,3.35-4.27,5.74-.6,1.91.28,3.48,2.2,4.26,1.66.68,3.35,1.32,4.95,2.11,2.65,1.3,3.02,3,1.29,5.41-.6.83-1.2,1.67-1.86,2.46-1.12,1.34-1.86,1.58-3.93,1.39Z"/><path class="cls-1" d="m632.68,32.8q.39,2.1-1.97,3.08c-2.01-1.35-3.49-3.29-5.01-5.38-.83,1.02-1.7,1.58-1.52,2.94.07.55-.64,1.32-1.17,1.79-.42.36-1.11.42-2.05.73.1-1.09,0-1.87.26-2.52.6-1.54,1.29-3.07,2.09-4.51.55-.98.48-1.7-.14-2.61-1.1-1.64-2.12-3.34-3.04-5.09-.63-1.2-.39-1.79.56-2.2,1.04-.45,1.74-.17,2.19,1.13.58,1.72,1.79,3.03,2.67,4.89.62-.64,1.07-.98,1.36-1.43,1.37-2.08,3.22-3.62,5.36-4.84.28-.16.57-.39.86-.39.4,0,.97.05,1.16.31.2.27.16.87,0,1.21-.22.43-.67.74-1.04,1.08-1.6,1.47-3.27,2.86-4.78,4.41-1.53,1.56-1.49,2.1-.19,3.76.67.85,1.43,1.64,2.01,2.54.58.9,1.27,1.4,2.42,1.1Z"/><path class="cls-1" d="m186.88,91.5c-.23.26-.35.42-.49.55-1.58,1.45-2.76,1.14-3.3-.9-.58-2.22-1.26-4.43-1.59-6.69-.23-1.61-.1-3.32.13-4.94.23-1.59.77-1.75,2.22-1,.17.09.34.17.64.31,1.54-1.47,3.24-2.82,5.4-3.32,2.17-.49,4.36-.93,6.55-1.26.53-.08,1.22.3,1.68.67.62.5.5,1.39-.24,1.72-.73.33-1.55.6-2.34.62-2.88.08-5.31,1.28-7.5,2.97-1.73,1.34-2.08,3.36-1.98,5.36.1,1.95.52,3.88.81,5.9Z"/><path class="cls-1" d="m467.3,53.34c1.05.1,1.56.54,1.53,1.48-.04,1.53.03,3.07-.17,4.58-.38,2.8-.67,5.58-.41,8.4.07.81.02,1.63,0,2.44-.08,5.83.49,11.59,1.71,17.29.04.18,0,.38,0,.55-1.55,1.04-2.63.74-2.93-.94-.53-2.95-.92-5.93-1.31-8.9-.23-1.77-.38-3.55-.51-5.33-.07-1.01-.06-2.03-.04-3.05.01-.89.18-1.79.11-2.67-.36-4.54.67-8.89,1.69-13.24.04-.18.17-.33.32-.59Z"/><path class="cls-1" d="m632.97,72.8c-.58.08-1.17.25-1.75.24-1.02-.02-2.04-.12-3.06-.24-1.28-.16-2.27.35-3.05,1.27-1.35,1.59-2.3,3.39-2.47,5.52-.17,2.19-.12,4.36.64,6.45.36.98.12,1.71-.6,2.42-1.19,1.16-2.16.96-2.66-.68-.39-1.28-.64-2.61-.97-3.91-.67-2.65-1.37-5.3-2.01-7.95-.25-1.05-.45-2.12.03-3.29,2.04.42,2.59,1.86,2.87,3.7.13-.29.25-.58.38-.87,1.1-2.47,3.04-4.17,5.46-5.11,2.05-.8,4.17.02,6.16.72.47.16.78.77,1.16,1.17-.04.19-.08.38-.12.57Z"/><path class="cls-1" d="m119.99,33.7c.26-.87.64-1.73.77-2.62.23-1.52.2-3.08.48-4.58.44-2.39,1-4.75,1.58-7.11.18-.72.69-1.36,1.55-1,.73.31.97.99.6,1.77-.05.12-.12.24-.13.36-.4,2.91-.8,5.83-1.21,8.74-.19,1.33-.4,2.65-.62,3.98-.27,1.62-1.28,2.77-2.49,3.76-1.2.98-2.09.89-2.83-.46-.82-1.51-1.52-3.09-2.11-4.7-.96-2.64-1.8-5.32-2.66-7.99-.21-.66-.35-1.35-.5-2.03-.13-.6-.09-1.32.59-1.41.54-.07,1.31.17,1.68.56.46.47.64,1.23.88,1.89,1.31,3.61,2.61,7.23,3.91,10.85.17,0,.34,0,.51,0Z"/><path class="cls-1" d="m130.2,86.34c-.11,3.35-1.45,6.09-4.29,7.92-1.8,1.16-3.82,1.4-5.83.4-.36-.18-.69-.56-.9-.92-1.35-2.28-1.79-4.55-.16-6.96,1.03-1.53,1.8-3.22,2.78-4.78.36-.58.93-1.06,1.49-1.47,1.62-1.19,3.48-1.03,4.84.42,1.41,1.5,2.19,3.28,2.07,5.39Zm-8.32,6.31c2.7.07,5.22-2.57,5.44-4.2.24-1.73,1.34-3.78-.66-5.28-2.12.02-3.54,1-4.31,2.91-.33.83-.78,1.65-.88,2.52-.15,1.36-.45,2.79.4,4.05Z"/><path class="cls-1" d="m745.8,77.83c-.16,2.51-.88,4.45-2.05,6.13-1.52,2.19-5.91,2.67-7.98.98-.87-.71-1.36-1.73-1.25-2.87.41-4.31,2.28-7.8,5.92-10.24,1.66-1.12,4.2-.27,4.7,1.68.4,1.54.49,3.15.66,4.33Zm-6.71,5.1c3.22-.76,4.33-3.25,4.16-6.51-.03-.51-.31-1.32-.64-1.41-.51-.15-1.29.04-1.74.37-1.41,1.02-1.83,2.68-2.41,4.22-.46,1.22.03,2.23.64,3.33Z"/><path class="cls-1" d="m477.44,88.69c-2.79-1.6-3.45-4.1-2.86-7.17.39-2,.53-4.05.95-6.04.16-.75.63-1.61,1.24-2.05,1.06-.77,2.33-1.27,3.36-1.8,3.72,2.35,4.73,5.8,3.99,9.48-.7,3.51-2.37,6.73-6.68,7.58Zm2.89-13.42c-.29.09-.51.09-.65.21-1.53,1.31-2.87,6.53-2.11,8.41.17.42.65,1.03.95,1.01.56-.04,1.3-.34,1.58-.77.59-.89.9-1.97,1.37-2.94.85-1.73.01-3.33-.35-4.96-.08-.37-.54-.65-.8-.95Z"/><path class="cls-1" d="m272.93,19.07c.89-.07.97.43,1.03.97.24,2.03.48,4.05.73,6.1,2.04-1.75,4.05-3.46,6.04-5.19,1.05-.92,2.31-1.33,3.65-1.57.75-.14,1.28.18,1.34.96.02.26-.17.69-.39.79-3.38,1.61-5.79,4.21-7.63,7.4-.8,1.38-1.23,2.73-.84,4.38.26,1.07.62,2.31-.2,3.33-.32.4-.86.86-1.31.87-.78.03-1.57-.4-1.73-1.25-.59-3.13-1.28-6.25-1.59-9.41-.19-2.01.2-4.07.39-6.11.04-.46.35-.9.51-1.29Z"/><path class="cls-1" d="m87.33,40.8h-3.07c-.29-2.66-.79-5.19-.78-7.72,0-3.32.39-6.64.65-9.96.25-3.19.54-6.37.85-9.55.11-1.08.27-2.16.54-3.21.47-1.81.69-1.89,2.93-1.5-.06.65-.02,1.36-.21,2-.72,2.42-.85,4.9-.99,7.4-.18,3.12-.7,6.23-.86,9.35-.17,3.13-.11,6.27-.1,9.4,0,.41.35.81.46,1.23.21.77.36,1.56.58,2.56Z"/><path class="cls-1" d="m703.92,67.34c.31.88.51,1.46.66,1.89,2.53.04,5.01.05,7.49.13,1.05.04,1.47.64,1.12,1.79-1.73.28-3.49.52-5.23.85-.74.14-1.47.41-2.17.69-.86.34-1.29,1.02-1.27,1.95.07,2.8-.14,5.64.81,8.33.43,1.22.06,2.07-.78,2.91-.97.96-2.06.87-2.5-.41-.41-1.2-.71-2.47-.79-3.73-.2-3.27-.66-6.57.17-9.81.35-1.34.99-2.61,1.55-3.89.1-.23.46-.35.96-.71Z"/><path class="cls-1" d="m729.61,29.31c.28,1.87.21,2-1.15,2.48-2.81.98-6.74-.52-8.31-3.17-1.93-3.25-1.38-6.81,1.24-9.63,1.63-1.75,3.51-2.94,5.73-3.71.47-.16.93-.45,1.31-.77.98-.85,2.01-1.09,3.19-.36.56,2.13-.36,3.63-2.57,3.87-2.2.24-4.04,1.04-5.58,2.66-1.5,1.57-1.8,4-.6,6.41.89,1.79,3.56,3.1,5.54,2.47.35-.11.73-.15,1.22-.24Z"/><path class="cls-1" d="m176.37,43.37c-1.5-.4-2.02-1.56-2.38-2.7-.49-1.51-.82-3.08-1.07-4.65-.3-1.88-.49-3.79-.64-5.69-.13-1.58-.12-3.18-.2-4.77-.03-.57-.1-1.14-.2-1.7-.43-2.47.77-3.83,3.6-3.79.07.56.36,1.23.18,1.74-.85,2.51-.35,5.07-.32,7.59.03,2.73.39,5.47.59,8.2.07.92.29,1.73,1.04,2.37,1.33,1.14,1.33,1.7.1,2.92-.18.17-.42.29-.7.47Z"/><path class="cls-1" d="m532.51,17.2c-.03.72.08,1.33-.1,1.85-1.27,3.71-.37,7.37.22,11.02.22,1.37,1,2.77.83,4.07-.23,1.68.48,2.6,1.55,3.45-.48,2.06-.49,2.07-2.79,1.78-1.33-1.72-1.72-3.75-1.93-5.83-.03-.25-.15-.49-.24-.73-1.36-3.92-1.5-8.02-1.73-12.11-.01-.19-.07-.45.03-.55,1.04-1.01,2.09-2.01,3.18-2.97.14-.12.49,0,.99.02Z"/><path class="cls-1" d="m506.19,19.96c.43,2.74-.33,5.01-.77,7.35-.24,1.3.13,2.78.48,4.11.48,1.83.76,3.73,2.19,5.24.77.82.14,1.87-1.05,2.03-.98.13-2.15-.41-2.47-1.4-.81-2.47-1.68-4.95-2.21-7.5-.63-3.02.64-6.94,2.59-8.96.31-.32.74-.53,1.24-.89Z"/><path class="cls-1" d="m527.27,70.71c.95.97,1.19,2,.79,3.23-1.03,3.2-1.4,6.48-.92,9.83.09.6.36,1.17.56,1.74.13.36.46.72.41,1.04-.09.59-.25,1.42-.66,1.63-.42.21-1.23-.07-1.73-.37-.39-.23-.71-.8-.8-1.26-.62-3.13-1.28-6.29-.84-9.5.28-2.06,1.14-3.92,2.34-5.61.21-.29.55-.48.84-.72Z"/><path class="cls-1" d="m93.85,25.58c.96,1.25,1.08,1.84.31,2.91-1.08,1.48-1.5,3.12-1.41,4.88.11,2.28.28,4.57.52,6.84.05.44.49.85.81,1.23.62.74.68,1.46.12,2.01-.53.52-1.42.46-2.03-.2-.34-.37-.74-.79-.85-1.26-.49-1.98-.98-3.97-1.29-5.98-.19-1.24-.17-2.54-.01-3.79.35-2.66,1.23-5.09,3.84-6.65Z"/><path class="cls-1" d="m310.93,23.76c-.09.93-.17,1.64-.23,2.28-4.25.89-8.33,1.58-12.08,3.46-.4.2-1.12.03-1.55-.21-.26-.14-.37-.76-.34-1.15.04-.62.26-1.22.37-1.69,2.3-.55,4.49-1.14,6.71-1.57,2.24-.44,4.51-.71,7.13-1.12Z"/><path class="cls-1" d="m524.67,67.02c-1.04-1.61-1.02-4.18-.23-5.2.87-1.13,2.76-1.49,4.42-.88.9.33,1.8.63,2.71.95.73.25,1.48.48,1.55,1.49-.5.76-1.26.75-2.03.65-.7-.08-1.38-.27-2.08-.31-1.93-.14-2.16.06-3.09,1.84-.26.51-.75.89-1.25,1.46Z"/><path class="cls-1" d="m536.94,9.84c-.67,1.32-1.64,1.44-2.69,1.06-1.33-.48-2.55-.64-3.76.36-.39.32-1.08.27-1.74.41-.2-.63-.36-1.15-.53-1.68,1.21-1.22,1.91-2.98,4.03-2.9,2.06.08,3.35,1.36,4.7,2.76Z"/><path class="cls-1" d="m180.24,13.55c.22.72-.26,1.35-1.04,1.78-1.38.75-2.83.55-4.26.15-.3-.08-.59-.48-.73-.8-.35-.83.09-1.54,1.35-2.43.65-.46,1.16-.46,1.87.04.77.54,1.75.81,2.8,1.26Z"/><path class="cls-1" d="m687.4,12.8c.38,1.35-.64,1.53-1.34,1.72-.95.27-1.86.38-2.65,1.17-.81.8-1.62.37-1.88-.8-.2-.9.33-2.37,1.11-2.87.23-.15.73-.25.86-.12,1.13,1.1,2.61.72,3.92.89Z"/><path class="cls-1" d="m509.95,14.15c-.47.75-1.04.85-1.7.57-1.18-.5-2.36-.98-3.5-1.56-.32-.17-.62-.66-.65-1.02-.02-.24.43-.71.71-.76.72-.11,1.52-.21,2.2,0,1.41.42,2.21,1.58,2.94,2.78Z"/><path class="cls-1" d="m805.47,85.33c1.99-.39,2.92.66,3.87,1.73-.65,1.45-1.79,1.92-3.47,1.97-.13-1.23-.26-2.4-.4-3.7Z"/><path class="cls-1" d="m94.71,19.82c-.02.74-.58,1.24-1.38,1.25-.91,0-1.75-.76-1.78-1.62-.02-.66.55-1.07,1.5-1.05.98.01,1.68.62,1.66,1.43Z"/></svg>