<svg width="50" height="389" viewBox="0 0 50 389" fill="none" xmlns="http://www.w3.org/2000/svg">
<rect width="50" height="389" fill="#041334"/>
<rect y="60.1154" width="50" height="37.0712" fill="#DD3421"/>
<rect y="22.0424" width="50" height="38.0731" fill="#FDDB03"/>
<rect y="97.1865" width="50" height="38.0731" fill="#30524B"/>
<ellipse cx="24.9999" cy="359.576" rx="17.1054" ry="8.90317" fill="#DD3421"/>
<path d="M19.7442 362.719H18.0242C18.0308 361.719 18.0275 360.996 18.0142 360.549C18.0075 360.556 17.9475 360.616 17.8342 360.729C17.7208 360.842 17.6108 360.909 17.5042 360.929C17.2442 360.916 17.1208 360.916 17.1342 360.929C16.9008 360.909 16.7842 361.019 16.7842 361.259L16.7942 362.719H15.1142L15.0942 356.069H16.8242V360.299H18.0442V356.069H19.7442V362.719ZM22.3001 362.729L20.6201 362.719L20.6101 356.049H22.3001V362.729ZM28.408 362.679H25.698C25.418 362.679 25.0313 362.462 24.538 362.029C24.178 361.709 23.918 361.442 23.758 361.229C23.5913 360.989 23.4513 360.689 23.338 360.329C23.2247 359.962 23.168 359.626 23.168 359.319C23.168 358.839 23.3113 358.309 23.598 357.729C23.8713 357.176 24.3247 356.742 24.958 356.429C25.5047 356.162 26.0713 356.029 26.658 356.029H28.298L27.998 356.699H26.658C26.1313 356.699 25.708 357.016 25.388 357.649C25.1347 358.149 24.998 358.699 24.978 359.299C24.958 359.986 25.118 360.632 25.458 361.239C25.8247 361.886 26.2547 362.209 26.748 362.209C26.7613 361.742 26.7547 361.472 26.728 361.399C26.7147 361.299 26.7013 361.202 26.688 361.109C26.6413 360.989 26.5147 360.929 26.308 360.929C26.2413 360.929 26.1713 360.936 26.098 360.949C26.1447 360.756 26.2313 360.516 26.358 360.229H28.408V362.679ZM34.0899 362.719H32.3699C32.3765 361.719 32.3732 360.996 32.3599 360.549C32.3532 360.556 32.2932 360.616 32.1799 360.729C32.0665 360.842 31.9565 360.909 31.8499 360.929C31.5899 360.916 31.4665 360.916 31.4799 360.929C31.2465 360.909 31.1299 361.019 31.1299 361.259L31.1399 362.719H29.4599L29.4399 356.069H31.1699V360.299H32.3899V356.069H34.0899V362.719Z" fill="#FEF9F5"/>
<path fill-rule="evenodd" clip-rule="evenodd" d="M6 389H43.9046C39.3199 381.652 32.5298 377 24.9523 377C17.3748 377 10.5847 381.652 6 389Z" fill="black"/>
</svg>
