<svg width="50" height="389" viewBox="0 0 50 389" fill="none" xmlns="http://www.w3.org/2000/svg">
<rect width="50" height="389" fill="black"/>
<path d="M15.3259 362.197C15.2992 362.344 15.1926 362.75 15.0059 363.417C14.8726 363.91 14.8059 364.317 14.8059 364.637C14.8059 365.01 14.8859 365.35 15.0459 365.657C14.3392 365.697 13.1459 365.697 11.4659 365.657L8.0659 352.357H11.5859L14.0659 361.937C14.9592 358.35 15.5259 355.804 15.7659 354.297C15.8059 354.084 15.8259 353.884 15.8259 353.697C15.8259 353.177 15.6992 352.73 15.4459 352.357C15.4992 352.397 16.2326 352.39 17.6459 352.337L15.3259 362.197ZM28.4815 365.677H25.0415C25.0549 363.677 25.0482 362.23 25.0215 361.337C25.0082 361.35 24.8882 361.47 24.6615 361.697C24.4349 361.924 24.2149 362.057 24.0015 362.097C23.4815 362.07 23.2349 362.07 23.2615 362.097C22.7949 362.057 22.5615 362.277 22.5615 362.757L22.5815 365.677H19.2215L19.1815 352.377H22.6415V360.837H25.0815V352.377H28.4815V365.677ZM39.3334 352.337C39.1867 352.59 39.0067 353.037 38.7934 353.677L35.8534 353.657C34.4401 353.657 33.7334 354.317 33.7334 355.637C33.7334 356.45 34.2601 357.07 35.3134 357.497C36.3001 357.87 37.2801 358.25 38.2534 358.637C39.3201 359.264 39.8534 360.23 39.8534 361.537C39.8534 362.63 39.4001 363.597 38.4934 364.437C37.6001 365.277 36.6134 365.69 35.5334 365.677L31.2134 365.657L30.5734 364.317C30.7067 364.317 31.9067 364.317 34.1734 364.317C35.7334 364.144 36.5134 363.477 36.5134 362.317C36.5134 361.597 35.9734 361.024 34.8934 360.597C33.0401 359.85 32.0467 359.43 31.9134 359.337C30.8467 358.644 30.3134 357.617 30.3134 356.257C30.3134 355.23 30.7534 354.324 31.6334 353.537C32.5134 352.737 33.4734 352.337 34.5134 352.337H39.3334Z" fill="white"/>
<rect x="7.0283" y="351.015" width="34.3165" height="16.3492" stroke="white" stroke-width="0.683544"/>
<path d="M16.4448 121.689L16.4105 128.1L15.6313 128.096L15.646 125.348L7.26582 125.304L7.27072 124.388L15.6509 124.432L15.6656 121.685L16.4448 121.689ZM16.4049 129.149L16.4 130.065L12.2714 130.043L12.25 134.049L16.3786 134.071L16.3736 135.001L7.21423 134.952L7.2192 134.022L11.4571 134.045L11.4785 130.039L7.24062 130.016L7.24552 129.1L16.4049 129.149ZM16.3648 136.649L16.3372 141.803L15.558 141.799L15.5807 137.561L12.2177 137.543L12.1976 141.289L11.4321 141.285L11.4521 137.539L7.97975 137.52L7.95672 141.826L7.17749 141.822L7.20541 136.6L16.3648 136.649ZM16.3984 148.25L16.3976 148.401C16.3884 150.123 15.4808 151.116 14.1001 151.109L12.9654 151.103L12.9703 150.187L14.105 150.193C14.9936 150.198 15.6391 149.641 15.6457 148.397L15.6466 148.246C15.6532 147.002 15.0272 146.466 14.2206 146.461L14.0156 146.46C13.168 146.456 12.7819 147.069 12.1446 148.651C11.355 150.588 10.6815 151.268 9.45109 151.262L9.27338 151.261C8.04301 151.254 7.03613 150.36 7.04666 148.392L7.04747 148.241C7.05777 146.314 8.07438 145.389 9.48246 145.397L10.5214 145.402L10.5165 146.318L9.47756 146.313C8.4796 146.308 7.80637 146.933 7.79928 148.259L7.79855 148.396C7.79138 149.735 8.44436 150.34 9.27827 150.345L9.44232 150.346C10.2352 150.35 10.7437 149.86 11.4366 148.114C12.1158 146.368 12.7082 145.524 13.9932 145.53L14.2119 145.532C15.5243 145.539 16.4081 146.446 16.3984 148.25ZM16.2799 152.523L16.275 153.439L10.0275 153.406C8.68776 153.398 7.82358 153.941 7.81605 155.349L7.81525 155.499C7.80764 156.921 8.66597 157.472 10.0057 157.48L16.2532 157.513L16.2482 158.443L10.0007 158.409C8.07316 158.399 6.99859 157.381 7.00868 155.495L7.00948 155.344C7.0195 153.472 8.10482 152.479 10.0324 152.49L16.2799 152.523ZM16.2401 159.959L16.2254 162.707C16.2153 164.607 15.4043 165.423 13.9142 165.415L12.9573 165.41C11.5765 165.403 10.6925 164.537 10.7025 162.678L10.7123 160.846L7.07586 160.826L7.08076 159.91L16.2401 159.959ZM15.456 160.871L11.4915 160.85L11.4818 162.654C11.475 163.926 12.0463 164.476 12.9759 164.481L13.9055 164.486C14.8898 164.491 15.4395 163.961 15.4463 162.676L15.456 160.871ZM16.2032 166.871L16.1756 172.025L15.3964 172.021L15.419 167.783L12.056 167.765L12.036 171.511L11.2705 171.507L11.2905 167.761L7.81813 167.743L7.7951 172.049L7.01587 172.045L7.0438 166.823L16.2032 166.871ZM16.1674 173.557L16.1528 176.291C16.1435 178.027 15.3453 179.007 13.8416 178.999L13.1033 178.995C11.955 178.989 11.1926 178.397 10.9111 177.343L6.97661 179.386L6.98188 178.402L10.7793 176.44L10.7899 174.444L7.00315 174.424L7.00805 173.508L16.1674 173.557ZM15.397 174.469L11.5692 174.448L11.5598 176.198C11.5534 177.401 12.0556 178.074 13.1219 178.079L13.8191 178.083C14.8444 178.088 15.3812 177.421 15.3876 176.218L15.397 174.469ZM16.1302 180.522L16.1232 181.821L8.52992 185.472L8.52853 185.731L16.1021 185.772L16.0976 186.606L6.93827 186.557L6.94521 185.258L14.5385 181.608L14.5399 181.348L6.96634 181.307L6.9708 180.473L16.1302 180.522ZM16.077 190.463L16.0698 191.816L6.89527 194.597L6.90017 193.681L9.66618 192.849L9.68504 189.321L6.92809 188.459L6.93263 187.612L16.077 190.463ZM14.7895 190.907L10.463 189.558L10.4467 192.607L14.7874 191.304L14.7895 190.907ZM16.0568 194.239L16.0225 200.651L15.2433 200.646L15.258 197.899L6.87786 197.854L6.88275 196.938L15.2629 196.983L15.2776 194.235L16.0568 194.239ZM16.0176 201.563L16.0127 202.479L9.76524 202.446C8.42551 202.438 7.56134 202.981 7.55381 204.389L7.553 204.539C7.5454 205.961 8.40373 206.512 9.74346 206.519L15.991 206.553L15.986 207.482L9.73849 207.449C7.81092 207.439 6.73634 206.421 6.74643 204.535L6.74724 204.384C6.75725 202.511 7.84257 201.519 9.77014 201.53L16.0176 201.563ZM15.9779 208.999L15.9633 211.733C15.954 213.469 15.1558 214.449 13.652 214.441L12.9138 214.437C11.7655 214.431 11.0031 213.839 10.7216 212.785L6.78708 214.829L6.79235 213.844L10.5897 211.882L10.6004 209.886L6.81362 209.866L6.81852 208.95L15.9779 208.999ZM15.2074 209.911L11.3796 209.89L11.3703 211.64C11.3638 212.843 11.8661 213.516 12.9324 213.522L13.6296 213.525C14.6549 213.531 15.1916 212.864 15.1981 211.661L15.2074 209.911ZM15.9289 218.152L15.9217 219.505L6.7472 222.286L6.7521 221.37L9.51811 220.538L9.53697 217.011L6.78003 216.148L6.78456 215.301L15.9289 218.152ZM14.6415 218.596L10.315 217.247L10.2987 220.296L14.6394 218.993L14.6415 218.596ZM15.901 223.371L15.8961 224.287L7.51599 224.242L7.49457 228.248L6.71535 228.243L6.74166 223.322L15.901 223.371ZM15.9385 234.264L15.9377 234.415C15.9285 236.137 15.0209 237.13 13.6401 237.123L12.5054 237.117L12.5103 236.201L13.645 236.207C14.5336 236.212 15.1791 235.655 15.1858 234.411L15.1866 234.26C15.1932 233.016 14.5672 232.48 13.7607 232.476L13.5556 232.474C12.708 232.47 12.322 233.083 11.6846 234.666C10.895 236.603 10.2215 237.283 8.99113 237.276L8.81341 237.275C7.58305 237.268 6.57617 236.374 6.58669 234.406L6.5875 234.255C6.59781 232.328 7.61441 231.404 9.02249 231.411L10.0615 231.417L10.0566 232.333L9.01759 232.327C8.01963 232.322 7.3464 232.947 7.33931 234.273L7.33858 234.41C7.33142 235.75 7.98439 236.355 8.81831 236.359L8.98235 236.36C9.77525 236.364 10.2837 235.875 10.9766 234.129C11.6558 232.382 12.2482 231.538 13.5332 231.545L13.752 231.546C15.0644 231.553 15.9481 232.46 15.9385 234.264ZM15.8192 238.674L15.8045 241.422C15.7943 243.322 14.9834 244.138 13.4933 244.13L12.5363 244.125C11.1556 244.118 10.2716 243.252 10.2815 241.392L10.2913 239.561L6.65493 239.541L6.65983 238.625L15.8192 238.674ZM15.0351 239.586L11.0706 239.565L11.0609 241.369C11.0541 242.641 11.6254 243.19 12.555 243.195L13.4846 243.2C14.4689 243.206 15.0185 242.675 15.0254 241.39L15.0351 239.586ZM15.7822 245.586L15.7547 250.74L14.9754 250.736L14.9981 246.498L11.6351 246.48L11.6151 250.226L10.8495 250.222L10.8696 246.476L7.3972 246.457L7.37417 250.764L6.59494 250.76L6.62286 245.537L15.7822 245.586ZM15.8281 254.902L15.827 255.107C15.8163 257.103 14.7175 258.068 12.7216 258.057L12.2158 258.054L12.2207 257.125L12.7265 257.128C14.2577 257.136 15.0129 256.511 15.0204 255.103L15.0215 254.898C15.0291 253.49 14.2672 252.802 12.695 252.794L9.60546 252.777C7.97865 252.768 7.29094 253.544 7.28393 254.856L7.28283 255.061C7.27574 256.388 7.94151 257.157 9.51364 257.165L10.0058 257.168L10.0009 258.084L9.50874 258.081C7.4308 258.07 6.46602 256.971 6.47626 255.057L6.47736 254.852C6.48752 252.952 7.47773 251.85 9.61036 251.861L12.6999 251.878C14.7505 251.889 15.8387 252.92 15.8281 254.902ZM15.7126 258.609L15.6783 265.02L14.8991 265.016L14.9138 262.268L6.53363 262.224L6.53853 261.308L14.9187 261.352L14.9334 258.605L15.7126 258.609ZM15.6658 267.362L15.6585 268.716L6.48405 271.497L6.48894 270.581L9.25496 269.748L9.27382 266.221L6.51687 265.358L6.5214 264.511L15.6658 267.362ZM14.3783 267.807L10.0518 266.457L10.0355 269.506L14.3762 268.203L14.3783 267.807ZM15.7195 275.212L15.7184 275.417C15.7077 277.413 14.6089 278.377 12.613 278.367L12.1072 278.364L12.1121 277.434L12.6179 277.437C14.1491 277.445 14.9043 276.82 14.9118 275.412L14.9129 275.207C14.9205 273.799 14.1586 273.112 12.5864 273.103L9.49685 273.087C7.87004 273.078 7.18234 273.854 7.17532 275.166L7.17422 275.371C7.16713 276.697 7.8329 277.466 9.40503 277.475L9.89718 277.477L9.89228 278.393L9.40013 278.39C7.32219 278.379 6.35742 277.281 6.36765 275.367L6.36875 275.162C6.37891 273.261 7.36912 272.159 9.50175 272.171L12.5913 272.187C14.6419 272.198 15.7301 273.229 15.7195 275.212ZM15.5992 279.811L15.5943 280.727L9.34681 280.693C8.00708 280.686 7.1429 281.228 7.13537 282.636L7.13457 282.787C7.12696 284.208 7.98529 284.76 9.32502 284.767L15.5725 284.8L15.5676 285.73L9.32005 285.697C7.39248 285.686 6.31791 284.669 6.328 282.782L6.3288 282.632C6.33882 280.759 7.42414 279.767 9.35171 279.777L15.5992 279.811ZM15.5594 287.247L15.5545 288.163L7.17441 288.118L7.15299 292.123L6.37376 292.119L6.40008 287.198L15.5594 287.247ZM15.5158 295.412L15.5085 296.765L6.33405 299.546L6.33895 298.63L9.10496 297.797L9.12382 294.27L6.36687 293.408L6.37141 292.56L15.5158 295.412ZM14.2283 295.856L9.90181 294.507L9.88551 297.555L14.2262 296.252L14.2283 295.856ZM15.4879 300.631L15.4733 303.365C15.464 305.101 14.6658 306.081 13.162 306.073L12.4238 306.069C11.2755 306.063 10.5131 305.471 10.2316 304.417L6.29708 306.46L6.30234 305.476L10.0997 303.514L10.1104 301.518L6.32361 301.498L6.32851 300.582L15.4879 300.631ZM14.7174 301.542L10.8896 301.522L10.8803 303.272C10.8738 304.475 11.3761 305.147 12.4424 305.153L13.1396 305.157C14.1649 305.162 14.7016 304.495 14.7081 303.292L14.7174 301.542Z" fill="white"/>
<path d="M25.4888 45.9339C32.4508 45.9339 37.9888 50.924 37.9888 56.9564C37.9886 62.9885 32.4506 67.9778 25.4888 67.9778C18.5269 67.9778 12.989 62.9885 12.9888 56.9564C12.9888 50.924 18.5268 45.9339 25.4888 45.9339Z" fill="white" stroke="black"/>
<mask id="path-6-inside-1_298_261" fill="white">
<path d="M25.0996 29.3943C36.1999 29.3944 45.1981 38.4103 45.1982 49.532C45.1982 60.6538 36.2 69.6705 25.0996 69.6707C13.9991 69.6707 5 60.6539 5 49.532C5.00016 38.4102 13.9992 29.3943 25.0996 29.3943ZM12.9395 44.2351C12.2343 45.8579 11.8428 47.6491 11.8428 49.532C11.8428 56.8677 17.778 62.8152 25.0996 62.8152C28.4644 62.8151 31.5354 61.5578 33.873 59.488L12.9395 44.2351ZM25.0996 36.2498C22.14 36.2498 19.4072 37.2217 17.2012 38.864L37.665 53.7751C38.1131 52.4427 38.3564 51.0158 38.3564 49.532C38.3563 42.1965 32.421 36.2499 25.0996 36.2498Z"/>
</mask>
<path d="M25.0996 29.3943C36.1999 29.3944 45.1981 38.4103 45.1982 49.532C45.1982 60.6538 36.2 69.6705 25.0996 69.6707C13.9991 69.6707 5 60.6539 5 49.532C5.00016 38.4102 13.9992 29.3943 25.0996 29.3943ZM12.9395 44.2351C12.2343 45.8579 11.8428 47.6491 11.8428 49.532C11.8428 56.8677 17.778 62.8152 25.0996 62.8152C28.4644 62.8151 31.5354 61.5578 33.873 59.488L12.9395 44.2351ZM25.0996 36.2498C22.14 36.2498 19.4072 37.2217 17.2012 38.864L37.665 53.7751C38.1131 52.4427 38.3564 51.0158 38.3564 49.532C38.3563 42.1965 32.421 36.2499 25.0996 36.2498Z" fill="#DD3421"/>
<path d="M25.0996 29.3943L25.0996 28.3943H25.0996V29.3943ZM45.1982 49.532H46.1982V49.532L45.1982 49.532ZM25.0996 69.6707V70.6707H25.0996L25.0996 69.6707ZM5 49.532L4 49.532V49.532H5ZM12.9395 44.2351L13.5283 43.4269L12.5197 42.6919L12.0223 43.8366L12.9395 44.2351ZM11.8428 49.532L10.8428 49.532V49.532H11.8428ZM25.0996 62.8152V63.8152H25.0996L25.0996 62.8152ZM33.873 59.488L34.5359 60.2367L35.4672 59.4123L34.4619 58.6798L33.873 59.488ZM25.0996 36.2498L25.0996 35.2498H25.0996V36.2498ZM17.2012 38.864L16.604 38.0619L15.515 38.8727L16.6123 39.6722L17.2012 38.864ZM37.665 53.7751L37.0761 54.5834L38.1783 55.3864L38.6129 54.0939L37.665 53.7751ZM38.3564 49.532H39.3564V49.532L38.3564 49.532ZM25.0996 29.3943L25.0996 30.3943C35.6458 30.3944 44.1981 38.9608 44.1982 49.532L45.1982 49.532L46.1982 49.532C46.1981 37.8599 36.7541 28.3944 25.0996 28.3943L25.0996 29.3943ZM45.1982 49.532H44.1982C44.1982 60.1034 35.6459 68.6705 25.0996 68.6707L25.0996 69.6707L25.0996 70.6707C36.7542 70.6705 46.1982 61.2042 46.1982 49.532H45.1982ZM25.0996 69.6707V68.6707C14.5532 68.6707 6 60.1034 6 49.532H5H4C4 61.2043 13.4449 70.6707 25.0996 70.6707V69.6707ZM5 49.532L6 49.532C6.00015 38.9607 14.5532 30.3943 25.0996 30.3943V29.3943V28.3943C13.4451 28.3943 4.00017 37.8597 4 49.532L5 49.532ZM12.9395 44.2351L12.0223 43.8366C11.2636 45.5826 10.8428 47.5093 10.8428 49.532L11.8428 49.532L12.8428 49.532C12.8428 47.7889 13.205 46.1332 13.8566 44.6336L12.9395 44.2351ZM11.8428 49.532H10.8428C10.8428 57.4181 17.2238 63.8152 25.0996 63.8152V62.8152V61.8152C18.3321 61.8152 12.8428 56.3173 12.8428 49.532H11.8428ZM25.0996 62.8152L25.0996 63.8152C28.7184 63.8151 32.0229 62.4618 34.5359 60.2367L33.873 59.488L33.2101 58.7393C31.0479 60.6538 28.2103 61.8151 25.0996 61.8152L25.0996 62.8152ZM33.873 59.488L34.4619 58.6798L13.5283 43.4269L12.9395 44.2351L12.3506 45.0433L33.2842 60.2962L33.873 59.488ZM25.0996 36.2498V35.2498C21.9174 35.2498 18.9766 36.2956 16.604 38.0619L17.2012 38.864L17.7983 39.6661C19.8379 38.1478 22.3627 37.2498 25.0996 37.2498V36.2498ZM17.2012 38.864L16.6123 39.6722L37.0761 54.5834L37.665 53.7751L38.2539 52.9669L17.7901 38.0558L17.2012 38.864ZM37.665 53.7751L38.6129 54.0939C39.095 52.6602 39.3564 51.1258 39.3564 49.532H38.3564H37.3564C37.3564 50.9058 37.1312 52.2251 36.7172 53.4564L37.665 53.7751ZM38.3564 49.532L39.3564 49.532C39.3563 41.646 32.9751 35.2499 25.0996 35.2498L25.0996 36.2498L25.0996 37.2498C31.8669 37.2499 37.3563 42.747 37.3564 49.532L38.3564 49.532Z" fill="black" mask="url(#path-6-inside-1_298_261)"/>
<g clip-path="url(#clip0_298_261)">
<path d="M35.4387 48.4278V48.427C35.4495 48.4117 35.4602 48.3979 35.4714 48.3867L35.4822 48.376L35.483 48.3752C35.4972 48.3622 35.5111 48.3526 35.5254 48.3456C35.5327 48.3422 35.5396 48.3391 35.5469 48.3368C35.6005 48.3184 35.6517 48.3326 35.6987 48.3314C35.7295 48.3307 35.7607 48.3295 35.7916 48.3284C35.8416 48.3264 35.891 48.3241 35.9403 48.3211C35.983 48.3188 36.0266 48.3157 36.0693 48.3126C36.1078 48.3096 36.146 48.3069 36.1845 48.303C36.275 48.2954 36.366 48.2858 36.4557 48.2746C36.5112 48.2681 36.5659 48.2616 36.6206 48.2539C36.6753 48.2466 36.7293 48.2389 36.7836 48.2309C36.9119 48.2113 37.0405 48.1902 37.1684 48.1664C37.3248 48.138 37.4801 48.1065 37.6346 48.0738C37.7016 48.0596 37.769 48.0447 37.8357 48.0301C37.9023 48.0151 37.969 48.0005 38.0356 47.9852C38.0506 47.9817 38.0653 47.9779 38.0795 47.974C38.1038 47.9675 38.1269 47.9606 38.1497 47.9525C38.1674 47.9468 38.1843 47.9406 38.2009 47.9337C38.2664 47.9076 38.3215 47.8761 38.3669 47.8408C38.5935 47.6623 38.5684 47.3817 38.2934 47.1091C38.2833 47.0983 38.2725 47.0884 38.2618 47.0784C38.2375 47.0557 38.2128 47.0339 38.1893 47.0116C38.1654 46.9889 38.1419 46.9659 38.1181 46.9429C38.0718 46.8968 38.0264 46.8492 37.9859 46.7978C37.9682 46.7747 37.9509 46.7517 37.9343 46.7271C37.9181 46.7029 37.9027 46.6772 37.8885 46.6511C37.8669 46.6119 37.848 46.5705 37.8326 46.5259H37.8334C38.0664 46.3954 38.308 46.2849 38.526 46.1424C38.5569 46.1217 38.5881 46.101 38.6177 46.0791C38.6354 46.066 38.6536 46.053 38.6693 46.0407C38.6855 46.0276 38.7009 46.0146 38.7156 46.0023C38.7449 45.9762 38.7711 45.9512 38.7934 45.9259C38.8084 45.9094 38.8215 45.8921 38.8338 45.8756C38.9344 45.7359 38.929 45.6027 38.8188 45.4767C38.8115 45.4683 38.8038 45.4602 38.7957 45.4526C38.7391 45.3957 38.6609 45.3405 38.5607 45.2871C38.2028 45.0975 37.8727 44.8725 37.5537 44.6229C37.509 44.588 37.4682 44.5519 37.4308 44.5147C37.4185 44.5028 37.4057 44.4897 37.3946 44.4767C37.3433 44.421 37.3013 44.3623 37.2678 44.2997C37.2605 44.2874 37.2547 44.2744 37.2489 44.2613C37.237 44.236 37.2262 44.2091 37.2174 44.1815V44.1807C37.2131 44.1673 37.2089 44.1534 37.2054 44.1392C37.2035 44.1335 37.2019 44.1269 37.2008 44.1208C37.2 44.1185 37.1996 44.1162 37.1996 44.1143C37.1954 44.0989 37.1923 44.0828 37.19 44.0671C37.1865 44.0475 37.1842 44.0275 37.1823 44.0068C37.18 43.9861 37.1788 43.9653 37.1788 43.9434C37.1781 43.9143 37.1788 43.8847 37.1808 43.8548C37.1896 43.715 37.1788 43.5726 37.158 43.4313C37.1538 43.4041 37.1496 43.3768 37.1449 43.3495C37.1365 43.2958 37.1264 43.2413 37.1153 43.1868C37.1099 43.1603 37.1045 43.1342 37.0991 43.1073C37.0933 43.0777 37.0891 43.0509 37.0868 43.0255C37.0837 42.9733 37.0902 42.9288 37.1083 42.8889C37.1126 42.8793 37.1172 42.8701 37.1226 42.8608C37.1245 42.8585 37.1257 42.8555 37.1272 42.8532C37.1326 42.8443 37.1392 42.8359 37.1461 42.8271C37.1584 42.8109 37.1742 42.7952 37.1919 42.7791C37.2027 42.7691 37.215 42.7595 37.2281 42.7495C37.2347 42.7441 37.2412 42.7395 37.2482 42.7342C37.331 42.6743 37.4057 42.6086 37.4747 42.5391C37.5094 42.5042 37.5417 42.4681 37.5733 42.4313C37.6049 42.3944 37.6346 42.3568 37.6631 42.3176C37.7012 42.2654 37.7363 42.212 37.7694 42.1571C37.8025 42.1019 37.833 42.0458 37.8623 41.9882C37.905 41.9019 37.9435 41.8124 37.9782 41.721C38.0129 41.6293 38.0429 41.5356 38.0703 41.4408C38.103 41.3264 38.1327 41.212 38.1593 41.0976C38.1855 40.9832 38.2086 40.8695 38.229 40.7559C38.2356 40.7179 38.2421 40.6799 38.2479 40.6423C38.2598 40.567 38.2698 40.491 38.2795 40.4154C38.3531 39.8104 38.3396 39.2107 38.2529 38.6164V38.6157C38.2352 38.4943 38.2136 38.3726 38.1905 38.2517V38.2509C38.1828 38.2129 38.1751 38.1749 38.1674 38.1373C38.1431 38.0241 38.1169 37.9104 38.0876 37.7979C38.0645 37.7073 38.0395 37.6167 38.0133 37.5265C37.9932 37.4567 37.9717 37.3868 37.9497 37.3173C37.9335 37.267 37.917 37.2159 37.8996 37.1657C37.8495 37.0159 37.7948 36.8658 37.7367 36.7165C37.6554 36.5073 37.5822 36.3445 37.7555 36.1257C37.8834 35.964 37.9894 35.7944 38.0761 35.6185C38.1123 35.5456 38.145 35.4711 38.1743 35.3959C38.1778 35.3863 38.182 35.3771 38.1851 35.3678C38.1986 35.3321 38.2113 35.2972 38.2232 35.2619C38.2398 35.212 38.2552 35.1613 38.2695 35.1106C38.2837 35.0596 38.296 35.0089 38.308 34.9571C38.3407 34.8097 38.3635 34.6584 38.3762 34.5056C38.3912 34.339 38.3939 34.1701 38.387 33.9996C38.3858 33.9689 38.3839 33.9382 38.3823 33.9071C38.3723 33.7221 38.3542 33.542 38.3288 33.3654C38.3203 33.3067 38.3111 33.2479 38.3007 33.19C38.2907 33.1324 38.2799 33.0752 38.2679 33.0176C38.2621 32.9892 38.256 32.9608 38.2494 32.9324C38.2371 32.8759 38.224 32.8199 38.2098 32.7642C38.2024 32.7362 38.1955 32.7086 38.1878 32.6813C38.1658 32.5984 38.1416 32.5158 38.1154 32.4348C38.0899 32.3542 38.0618 32.2744 38.0322 32.1949C38.0125 32.1423 37.9925 32.0901 37.9709 32.0379C37.9609 32.0118 37.9501 31.9857 37.9389 31.9603C37.895 31.8571 37.8484 31.7561 37.7987 31.6559C37.7864 31.6309 37.7737 31.606 37.7606 31.5818C37.7351 31.5319 37.7089 31.4828 37.6816 31.4344C37.6411 31.3611 37.5987 31.2885 37.5548 31.2175C37.5256 31.1703 37.4959 31.1227 37.4651 31.0758C37.4046 30.9829 37.3402 30.8904 37.2736 30.8002C37.2405 30.7553 37.2058 30.71 37.1715 30.6658C36.9978 30.4432 36.8075 30.2305 36.6017 30.0259C36.3552 29.7813 36.0855 29.5483 35.7954 29.3279C35.7318 29.2799 35.6748 29.2308 35.6224 29.1793C35.5438 29.103 35.4772 29.0212 35.4213 28.9306C35.4117 28.9152 35.4025 28.8999 35.394 28.8845C35.379 28.8584 35.3647 28.8319 35.3516 28.8039C35.325 28.7494 35.3011 28.6906 35.2796 28.6284C35.0661 28.0123 34.8046 27.4364 34.496 26.902C34.4575 26.8352 34.4182 26.7688 34.3777 26.7036C34.338 26.6379 34.2976 26.573 34.256 26.5093C34.2144 26.4452 34.172 26.3815 34.1292 26.3185C34.0009 26.13 33.8653 25.9469 33.7224 25.7699C33.5332 25.5334 33.3318 25.3077 33.1191 25.0919C33.0401 25.0113 32.9592 24.933 32.8772 24.8566C32.8194 24.8013 32.7612 24.7476 32.7019 24.6961C32.5609 24.5698 32.4164 24.4489 32.2673 24.3318C31.8439 24.0001 31.3863 23.6995 30.8932 23.4312C30.8924 23.4312 30.8924 23.4304 30.8924 23.4304C30.7514 23.3544 30.6077 23.2807 30.4613 23.2089C30.4131 23.1859 30.3658 23.1628 30.3176 23.1394C30.1739 23.0719 30.0287 23.0074 29.8834 22.9456C29.5933 22.8235 29.3002 22.7144 29.0051 22.6185C28.8575 22.5712 28.7096 22.5259 28.5616 22.4853C28.5116 22.4718 28.4622 22.458 28.4126 22.4449C28.3139 22.4188 28.2145 22.3947 28.1151 22.3716H28.1144C28.015 22.3486 27.9152 22.3271 27.8154 22.3071C27.7156 22.2872 27.6155 22.268 27.5153 22.2507C26.2078 22.0261 24.8702 22.048 23.5234 22.3052C23.174 22.372 22.8299 22.4469 22.4925 22.5298C22.187 22.605 21.8865 22.6868 21.5918 22.7751C21.3587 22.845 21.1287 22.9191 20.9022 22.9974C20.6537 23.0834 20.4087 23.174 20.1679 23.2703C20.0419 23.3195 19.9175 23.3709 19.7938 23.4239C19.5773 23.5164 19.3639 23.6128 19.1539 23.7137C19.0141 23.7805 18.8758 23.85 18.7382 23.921C18.6701 23.956 18.6015 23.9921 18.5337 24.0289C18.4316 24.0834 18.3303 24.1391 18.2305 24.1959C18.1307 24.2527 18.0305 24.3103 17.9327 24.3694C17.7354 24.4869 17.5413 24.6086 17.3506 24.7357C17.2235 24.8198 17.0979 24.9058 16.9738 24.9941C16.8521 25.0804 16.7311 25.1683 16.6125 25.2589C16.4283 25.3983 16.2469 25.5423 16.0689 25.6904C15.9213 25.8129 15.7757 25.9392 15.6332 26.069C15.4929 26.1957 15.355 26.3254 15.2194 26.4583C15.1647 26.512 15.11 26.5661 15.0561 26.6206C13.8117 27.8756 12.7635 29.3847 11.9175 31.1538C11.2152 32.6206 10.7748 34.1589 10.6304 35.7771C10.6238 35.8477 10.6119 35.9099 10.593 35.9648C10.5656 36.042 10.524 36.1057 10.4628 36.1621C10.4362 36.1863 10.4061 36.2094 10.3722 36.2316C10.3665 36.2351 10.3611 36.2389 10.3549 36.2424C10.3495 36.2458 10.3437 36.2497 10.3372 36.2531C10.2509 36.3046 10.1673 36.3579 10.0864 36.4144C10.0055 36.47 9.92805 36.528 9.85254 36.5887C9.40257 36.9507 9.05238 37.3925 8.78233 37.8985C8.75266 37.955 8.72338 38.0118 8.69565 38.069C8.61166 38.2421 8.53615 38.4222 8.46912 38.6087C8.42944 38.7178 8.39361 38.8272 8.36048 38.937C8.3443 38.9923 8.32851 39.0472 8.31348 39.1024C8.29846 39.1577 8.2842 39.2126 8.2711 39.2679C8.23951 39.4007 8.21216 39.5332 8.18905 39.6668C8.16593 39.8004 8.14744 39.9332 8.13319 40.0672C8.09582 40.4258 8.0885 40.7866 8.11046 41.1486C8.11277 41.1832 8.11508 41.2166 8.11778 41.2511C8.12548 41.3529 8.13627 41.4554 8.14821 41.5579C8.15399 41.6036 8.16015 41.6492 8.16593 41.6942C8.17248 41.7398 8.1798 41.7855 8.18673 41.8312C8.19328 41.8715 8.19983 41.9111 8.20638 41.9514C8.23181 42.1011 8.26032 42.2489 8.29152 42.3952L8.3235 42.541C8.34122 42.6182 8.35971 42.695 8.37897 42.771C8.3886 42.8094 8.39862 42.8474 8.40864 42.8854C8.42867 42.9607 8.44947 43.0359 8.47105 43.1104C8.49301 43.1856 8.51574 43.2597 8.53885 43.333C8.56274 43.4064 8.58701 43.4793 8.61205 43.5511V43.5519C8.63747 43.624 8.66328 43.6958 8.68987 43.7668C8.9187 44.3723 9.20995 44.9366 9.57208 45.4529C9.63565 45.5443 9.70152 45.6338 9.7701 45.7221C9.79283 45.7516 9.81594 45.7808 9.83906 45.8096C9.88606 45.8676 9.93306 45.9251 9.9816 45.982C10.054 46.0672 10.1291 46.1509 10.2062 46.2326C10.2578 46.2879 10.3102 46.3417 10.3645 46.395C10.8734 46.9018 11.4752 47.344 12.1798 47.7157C12.3081 47.7832 12.4183 47.8412 12.5123 47.8926C12.5362 47.9057 12.5581 47.918 12.5793 47.9306C12.6113 47.9491 12.6413 47.9667 12.6683 47.984C12.7045 48.007 12.7373 48.0289 12.7658 48.0504C12.7873 48.0665 12.8062 48.0823 12.8228 48.0984C12.8286 48.1038 12.8347 48.1092 12.8394 48.1145C12.953 48.232 12.948 48.3514 12.8417 48.556C12.8263 48.5852 12.8089 48.6159 12.7893 48.6485C12.7796 48.665 12.7696 48.6823 12.7585 48.7C12.7049 48.7875 12.6383 48.8885 12.5601 49.0056V49.0063C12.5446 49.0294 12.5285 49.0536 12.5119 49.0785C12.488 49.1142 12.4607 49.1491 12.4345 49.1841C12.4256 49.196 12.4171 49.2079 12.409 49.2198C12.3366 49.3242 12.2888 49.4332 12.3925 49.5664C12.4013 49.5776 12.4102 49.5883 12.4206 49.5972C12.4325 49.6094 12.4449 49.6202 12.4576 49.629C12.4699 49.6379 12.483 49.6463 12.4969 49.6528C12.5077 49.6574 12.5188 49.6624 12.5296 49.6663C12.646 49.7066 12.7835 49.6716 12.9102 49.6509C13.0536 49.6279 13.1961 49.6037 13.3436 49.578C13.5143 49.5484 13.6907 49.5177 13.8795 49.4843C13.9597 49.4701 14.0425 49.4559 14.128 49.4409C14.128 49.4409 14.3846 49.3396 14.4173 49.4179C14.4501 49.4962 14.4239 49.801 14.4262 50.0037C14.4281 50.2064 14.4397 50.7508 14.3988 51.079C14.3749 51.2625 14.3256 51.4629 14.504 51.5869C14.692 51.7159 14.8511 51.5762 15.0094 51.481C15.6255 51.1113 16.1879 50.6717 16.7766 50.0621C16.7419 50.5919 16.7165 50.9865 16.6891 51.3796C16.676 51.567 16.6606 51.7566 16.8629 51.8637C17.0355 51.9555 17.1845 51.8791 17.3344 51.7919C18.4054 51.1769 19.3959 50.4602 20.1771 49.4954C20.3952 49.2259 20.5397 49.2524 20.8259 49.4256C20.8259 49.4256 24.2993 51.9002 28.7354 51.572C33.3591 51.2303 35.4418 48.4289 35.4418 48.4289L35.4387 48.4278Z" fill="#010101"/>
<path d="M19.8514 48.9384C19.1283 49.7262 18.399 50.5082 17.3508 51.0333C17.3531 50.4763 17.3673 50.011 17.3519 49.5473C17.3462 49.3707 17.3176 49.1645 17.0861 49.1115C16.8877 49.0666 16.786 49.2083 16.6677 49.3307C16.1973 49.8206 15.7258 50.3093 15.0393 50.7688C15.0794 50.1696 15.1398 49.6935 15.1364 49.219C15.1294 48.4723 14.9638 48.3817 14.2915 48.6808C13.9583 48.8294 13.6308 49.0021 13.241 48.9729C13.4228 48.2086 13.4228 48.2051 14.1675 48.2051C15.5725 48.2051 16.6446 47.5855 17.4494 46.4634C17.5557 46.3136 17.5854 46.2611 17.6879 46.109C17.6936 46.101 17.6324 46.1136 17.6936 46.101C18.1806 47.1045 19.0139 48.1794 19.8518 48.9388L19.8514 48.9384Z" fill="#FEFEFE"/>
<path d="M37.0819 46.6887C37.2791 46.9068 37.4625 47.1375 37.6894 47.4082C37.1281 47.5022 36.6234 47.5859 36.0325 47.6838C36.3018 47.2208 36.5668 46.8358 36.7063 46.3778C36.8469 45.9175 37.0064 45.4591 37.1327 44.9635C37.2179 45.0107 37.2899 45.0284 37.3288 45.074C37.5214 45.3013 37.961 45.418 37.9387 45.6794C37.9163 45.929 37.4729 45.9186 37.2202 46.0303C36.8634 46.1881 36.8207 46.3989 37.0819 46.6887Z" fill="#F5F5F5"/>
<path d="M15.9299 44.0072C15.9156 44.2252 15.9098 44.4429 15.8836 44.6594C15.8601 44.8502 15.7996 45.0433 15.5527 45.0126C15.32 44.983 15.34 44.7807 15.3504 44.6168C15.3955 43.948 15.4568 43.2778 15.3385 42.6113C15.0145 40.7835 14.1011 39.3078 12.6287 38.1749C12.5412 38.1066 12.3709 38.0809 12.4183 37.9358C12.4761 37.758 12.6487 37.8252 12.7624 37.8663C12.9338 37.9288 13.1122 38.0041 13.2505 38.1181C15.0977 39.648 16.0489 41.5874 15.9295 44.0064L15.9299 44.0072Z" fill="white"/>
<path d="M35.9474 41.4185C35.0883 39.7666 34.6757 37.9653 34.6684 36.0934C34.6649 35.3855 34.698 35.3805 33.9622 35.3552C32.8053 35.3137 31.6696 35.483 30.522 35.6224C26.2003 36.146 21.9834 37.0827 17.894 38.5784C17.2113 38.8279 17.2213 38.8314 17.5469 39.4944C18.3774 41.1932 18.6564 42.9629 18.1906 44.8145C18.1197 45.0948 18.1305 45.3239 18.2584 45.58C19.1372 47.3379 20.3996 48.6911 22.1991 49.5734C23.7617 50.3377 25.3724 50.8502 27.3533 51.0053C27.6095 51.036 28.1142 51.0218 28.6169 50.9853C30.6656 50.8383 32.5441 50.2459 34.0882 48.8328C34.4819 48.4719 34.814 48.0458 35.1946 47.6704C35.6496 47.2208 35.863 46.597 36.0965 45.9796C36.7113 44.3557 36.756 42.9748 35.9474 41.4189V41.4185Z" fill="white"/>
<path d="M32.9544 43.6705C32.2259 43.4747 31.5282 43.7423 30.8794 44.0306C29.5738 44.5949 28.195 44.5339 26.8906 43.915C26.1709 43.5545 25.4105 43.2954 24.6246 43.1219C23.873 42.9054 23.0196 43.1388 22.5288 43.7515C22.1039 44.2475 22.1085 44.9972 22.4421 45.5627C22.8112 46.1585 23.4295 46.5137 24.0571 46.7893C25.1015 47.2611 25.9737 47.5552 26.9684 47.5824C28.3183 47.7253 29.6601 47.6942 30.8089 47.4849C31.7227 47.3513 32.6778 46.9786 33.2263 46.2077C33.5253 45.7858 33.7761 45.2737 33.7772 44.7558C33.7811 44.2609 33.4687 43.7991 32.9663 43.6739L32.9544 43.6705ZM24.6723 44.2786C24.5259 44.7024 24.3876 45.1397 24.2551 45.5719C24.1819 45.7697 24.1538 46.0511 23.9854 46.1106C23.7932 46.1474 23.6091 45.9712 23.4488 45.8687C23.0589 45.5808 22.7084 45.132 22.7164 44.6348C22.7534 43.8263 23.4734 43.3945 24.2401 43.5369C24.7783 43.6225 24.8784 43.7085 24.6758 44.2671L24.672 44.2786H24.6723ZM26.6906 44.8199C26.5651 45.2287 26.4553 45.6499 26.4198 46.0795C26.3886 46.3171 26.4233 46.6818 26.2684 46.8246C26.132 46.9429 25.8697 46.8822 25.6963 46.8584C25.1254 46.7747 24.6608 46.5805 24.6978 46.0088C24.7155 45.5063 24.9216 44.9677 25.0568 44.5116C25.1812 44.0402 25.3789 43.8367 25.8847 44.054C26.0658 44.1273 26.2441 44.2087 26.4187 44.2974C26.6282 44.3934 26.7681 44.5826 26.6933 44.8091L26.6906 44.8199ZM28.5545 46.9198C28.4836 47.1214 28.2832 47.1379 28.0702 47.1152C27.8225 47.0907 27.5752 47.0626 27.3263 47.0319C26.8551 46.9878 26.8833 46.7144 26.9603 46.3087C27.0139 45.9843 27.0404 45.6556 27.1052 45.3309C27.1915 44.9101 27.3209 44.8034 27.7273 44.8421C28.0209 44.8913 28.4281 44.8882 28.625 45.1347C28.7706 45.3431 28.739 45.684 28.7093 45.9455C28.6527 46.2657 28.6327 46.595 28.5579 46.9102L28.5545 46.9198ZM29.8227 47.1099C28.8865 47.2492 29.1304 46.7064 29.1882 46.0779C29.2071 45.9125 29.2075 45.7539 29.184 45.5934C29.1658 45.4349 29.1192 45.2387 29.2155 45.1009C29.3092 44.97 29.5303 44.9542 29.7356 44.9224C30.0199 44.9024 30.446 44.7155 30.6891 44.8168C30.817 44.8878 30.8725 45.0475 30.9414 45.2218C31.0123 45.4176 31.0786 45.6295 31.1379 45.8395C31.3475 46.544 31.2982 46.8964 30.5115 47.0139C30.2892 47.0553 30.0531 47.0837 29.8343 47.1087L29.8227 47.1099ZM32.6288 46.1186C32.5317 46.2204 32.4235 46.3067 32.3114 46.3912C32.0521 46.5897 31.8194 46.7743 31.7732 46.3432C31.705 45.8054 31.5767 45.3558 31.3675 44.9101C31.1568 44.4771 31.3533 44.3319 31.7697 44.2394C32.0764 44.1653 32.3869 44.0659 32.6847 44.1216C32.9155 44.1684 33.1451 44.3081 33.2283 44.4989C33.2837 44.6368 33.2552 44.78 33.2283 44.9251C33.1381 45.3355 32.9212 45.8111 32.6377 46.1102L32.6296 46.1186H32.6288Z" fill="#010101"/>
<path d="M23.2539 38.4567C23.4704 38.4801 23.6885 38.4874 23.9057 38.502C24.2867 38.545 24.707 38.5036 25.0075 38.7492C25.0638 38.7949 24.7779 39.2387 24.6681 39.5063C24.2463 40.5336 24.9197 41.6903 26.0204 41.8389C26.6325 41.9214 27.3175 41.4834 27.3645 40.8976C27.4169 40.2442 27.3525 39.5769 26.8533 39.0736C25.8559 38.0682 24.5969 37.8386 23.2435 37.9269C23.0936 37.9369 22.9831 38.0175 22.9719 38.1719C22.9584 38.3604 23.0898 38.4394 23.2543 38.4571L23.2539 38.4567Z" fill="#010101"/>
<path d="M31.5245 40.6641C31.9567 40.9064 32.335 40.7352 32.6798 40.4568C33.5231 39.7754 33.448 38.5715 32.5057 38.0187C32.1598 37.8156 32.1567 37.6732 32.4787 37.4828C32.7665 37.3127 33.0624 37.1568 33.3521 36.9898C33.4615 36.9269 33.6376 36.8942 33.5852 36.7157C33.5332 36.5391 33.3729 36.5253 33.2134 36.5483C33.1471 36.5579 33.0809 36.5702 33.0158 36.5863C31.8812 36.8739 30.7925 38.2014 30.7289 39.3727C30.7035 39.9804 31.0248 40.3835 31.5241 40.6638L31.5245 40.6641Z" fill="black"/>
<path d="M29.4849 48.9511C29.394 49.3192 28.8982 49.2321 28.6039 49.2586C28.1763 49.2701 27.7933 49.2674 27.3938 49.1303C27.2286 49.0727 27.039 49.0098 26.9231 48.8781C26.7955 48.7368 26.8622 48.5341 27.0564 48.5038C27.2659 48.4727 27.4851 48.5514 27.6951 48.5656C28.0869 48.6101 28.5064 48.6013 28.919 48.6048C29.1448 48.6029 29.5119 48.6462 29.4861 48.9415L29.4849 48.9507V48.9511Z" fill="#060606"/>
<path d="M27.8768 43.2313C28.2197 43.4064 29.1528 43.5626 29.5214 43.4448C29.7275 43.3772 29.7641 43.1372 29.5657 43.0324C29.3042 42.9107 28.9705 42.9319 28.6966 42.8919C28.4558 42.89 27.9165 42.7576 27.7836 42.9929C27.7435 43.0701 27.7797 43.1649 27.8676 43.2252L27.8764 43.2313H27.8768Z" fill="#111111"/>
<path d="M28.8819 41.3375C28.9952 41.4158 29.1108 41.3924 29.2028 41.3056C29.2872 41.2262 29.3496 41.1233 29.4298 41.0385C29.6786 40.7747 29.9521 40.5175 30.3374 40.7467C30.594 40.8991 30.5215 41.4661 30.2345 41.7886C30.1794 41.8508 30.1101 41.8999 30.0492 41.9571C29.9302 42.0688 29.7684 42.1556 29.9433 42.3614C30.1009 42.5468 30.2472 42.5291 30.4214 42.4074C30.8328 42.1199 31.0385 41.716 31.0963 41.2788C31.1368 40.6089 30.7357 40.0871 30.1898 40.0453C29.6239 40.0019 28.8476 40.5724 28.7895 41.0715C28.7771 41.1778 28.7887 41.2734 28.8819 41.3379V41.3375Z" fill="#040404"/>
<path d="M31.5121 44.3185C31.135 44.449 31.3153 44.8038 31.447 45.0878C31.5857 45.4096 31.6812 45.7585 31.7394 46.1098C31.8095 46.7056 31.8731 46.7371 32.3504 46.362C32.8701 46.0188 33.27 45.1493 33.2588 44.6264C33.2415 44.4037 33.0616 44.264 32.8555 44.1726C32.4232 44.0045 31.9459 44.1972 31.5225 44.3139L31.5121 44.3181V44.3185Z" fill="#FCFCFC"/>
<path d="M30.1108 44.8533C29.9332 44.8951 29.7598 44.9193 29.5811 44.9454C29.343 44.9746 29.1554 45.0602 29.1581 45.2948C29.1538 45.4253 29.1835 45.5577 29.1951 45.6879C29.2417 46.063 29.0864 46.4799 29.1276 46.8584C29.1746 47.1889 29.5549 47.1337 29.8284 47.1095C30.0499 47.0845 30.2872 47.0557 30.5118 47.0139C31.2176 46.8837 31.3517 46.6711 31.1737 45.9731C31.1086 45.7209 31.0269 45.4591 30.9418 45.2218C30.8921 45.0936 30.8466 44.9642 30.7545 44.8652C30.6224 44.7208 30.3473 44.8053 30.1227 44.8502L30.1108 44.8529V44.8533Z" fill="#FCFCFC"/>
<path d="M28.7145 45.3527C28.6455 44.8948 28.09 44.8986 27.7279 44.8418C27.3214 44.803 27.1924 44.9097 27.1057 45.3305C27.0375 45.6752 27.0105 46.023 26.9512 46.367C26.8753 46.7482 26.89 46.987 27.3145 47.0296C27.5591 47.0607 27.8022 47.0876 28.0461 47.1126C28.3254 47.1509 28.5496 47.1014 28.5885 46.7835C28.6336 46.3125 28.7804 45.8407 28.716 45.3639L28.7137 45.3527H28.7145Z" fill="#FCFCFC"/>
<path d="M26.5828 44.403C26.3806 44.2502 26.1275 44.1615 25.8963 44.0586C25.4386 43.8617 25.2059 43.9834 25.0788 44.4402C24.954 44.8606 24.7799 45.3278 24.7159 45.7896C24.6308 46.3194 24.7984 46.676 25.4298 46.8054C25.6324 46.8484 25.8597 46.8976 26.0681 46.8933C26.4129 46.8903 26.3852 46.506 26.4068 46.2603C26.4276 45.9128 26.4823 45.5742 26.5705 45.2391C26.6283 44.96 26.8421 44.6222 26.5913 44.4099L26.5832 44.4026L26.5828 44.403Z" fill="#FDFDFD"/>
<path d="M24.2348 43.5354C23.1338 43.3223 22.3078 44.363 22.935 45.3316C23.128 45.6284 23.3973 45.8549 23.7028 46.0369C23.7972 46.0914 23.9236 46.1536 24.0222 46.0937C24.1767 45.9889 24.2241 45.6199 24.3026 45.418C24.4409 44.9354 24.6251 44.4667 24.7588 43.983C24.8578 43.6417 24.5546 43.5891 24.2472 43.5373L24.2348 43.5354Z" fill="#FCFCFC"/>
<path d="M32.7905 29.1241C32.5235 29.1064 32.2539 29.0699 31.9869 29.0745C29.133 29.1145 26.3307 29.5644 23.5511 30.1698C20.9053 30.7457 18.3087 31.4935 15.8212 32.578C15.4263 32.75 14.969 32.9032 14.7741 33.2952C14.3981 34.0453 14.1877 34.8603 14.0544 35.693C14.0167 35.926 14.071 36.0558 14.3002 36.1606C15.2529 36.5952 16.0327 37.2547 16.6471 38.0909C16.8821 38.411 17.0813 38.2982 17.4323 38.1346C18.8207 37.4881 20.3621 37.0113 21.8349 36.6109C25.5822 35.5909 29.2023 34.9325 33.081 34.6734C34.0017 34.6119 35.0492 34.7617 35.9237 35.1513C36.1552 35.2538 36.3718 35.4032 36.2096 35.6811C36.0701 35.9191 35.8729 35.779 35.6883 35.6765C35.2534 35.4362 35.1293 35.513 35.1212 36.0074C35.1189 36.1418 35.1532 36.2773 35.1413 36.409C35.1105 36.786 35.2807 36.8505 35.6259 36.8013C37.0594 36.5998 37.927 35.5613 37.8785 34.0714C37.7887 31.3273 35.6294 29.2147 32.7909 29.1241H32.7905Z" fill="white"/>
<path d="M33.1136 28.2994C32.7719 28.2987 32.426 28.2714 32.0827 28.2737C31.9818 28.2668 31.8308 28.2872 31.7753 28.1935C31.6917 27.8407 31.4833 27.4314 30.9085 26.5968C30.6627 26.2402 30.447 25.9427 30.1831 25.5837C30.1472 25.5373 30.0895 25.4428 30.1199 25.4117C30.138 25.3856 30.1912 25.3829 30.2617 25.3975C31.5688 25.8022 32.6486 26.6537 33.2492 27.8821C33.3444 28.0699 33.4203 28.2906 33.1229 28.2991L33.1136 28.2998V28.2994Z" fill="#FEFEFE"/>
<path d="M31.0462 28.2526C31.0092 28.296 30.9137 28.3029 30.8474 28.306C30.3212 28.324 29.793 28.3578 29.2687 28.4073C28.8464 28.4726 28.8927 28.1831 28.7663 27.8791C28.6492 27.5497 28.4989 27.188 28.3722 26.9212C28.0952 26.3354 27.7546 25.7749 27.4792 25.1872C27.3771 24.8977 27.7882 24.9392 27.9688 24.9422C28.7844 24.9599 29.4039 25.3434 29.8134 26.0459C30.1859 26.6214 30.6671 27.4449 31.0007 28.0442C31.0358 28.1048 31.0866 28.2073 31.0493 28.2484L31.0462 28.2522V28.2526Z" fill="#FEFEFE"/>
<path d="M28.1704 28.5313C28.1207 28.5997 28.0043 28.6066 27.9203 28.6196C27.4881 28.6757 27.0562 28.7398 26.6255 28.81C26.283 28.8834 26.248 28.6929 26.1856 28.4131C25.9644 27.4852 25.5202 26.3319 25.1716 25.4282C25.1477 25.3465 25.1396 25.2493 25.1878 25.1887C25.2236 25.1384 25.2849 25.1069 25.3631 25.0827C25.5253 25.0355 25.7121 25.004 25.8824 24.9749C26.6679 24.8056 26.7765 25.2609 27.1055 25.8482C27.4734 26.532 27.7689 27.2479 28.0182 27.9812C28.0594 28.0906 28.1164 28.2204 28.1611 28.3386C28.1831 28.397 28.2027 28.4818 28.1738 28.5259L28.1704 28.5313Z" fill="#FEFEFE"/>
<path d="M25.4998 28.959C25.4594 29.0173 25.3739 29.0442 25.2999 29.0592C24.8064 29.1529 24.3079 29.2515 23.8132 29.3544C23.594 29.4082 23.4538 29.3763 23.4245 29.1287C23.2831 28.3409 23.1082 27.2825 22.9977 26.5005C22.9699 26.277 22.9164 25.9995 23.0628 25.8095C23.1795 25.6651 23.3864 25.5929 23.5686 25.5315C23.7863 25.4643 24.0999 25.3469 24.2979 25.4037C24.5645 25.4801 24.6719 26.0106 24.7667 26.2751C24.8973 26.6967 25.046 27.1692 25.2032 27.6783C25.2972 27.9839 25.3881 28.281 25.4625 28.5386C25.491 28.6711 25.5734 28.825 25.5041 28.9528L25.5002 28.9586L25.4998 28.959Z" fill="#FEFEFE"/>
<path d="M22.7363 29.5805C22.6819 29.6477 22.5783 29.6681 22.4943 29.6903C22.1422 29.7779 21.7905 29.8719 21.4411 29.9671C21.3444 29.9921 21.2176 30.0224 21.1448 29.9433C21.1044 29.9015 21.0836 29.8232 21.0716 29.759C20.9329 29.0338 20.8748 28.0192 20.9025 27.2902C20.9164 26.7397 21.102 26.5208 21.6052 26.3058C21.7238 26.249 21.8417 26.1903 21.9596 26.1312C22.1018 26.0659 22.2401 25.9653 22.3352 26.0218C22.3965 26.0682 22.3965 26.1707 22.4007 26.2467C22.4076 26.5826 22.4292 26.9113 22.462 27.2337C22.5228 27.8614 22.6296 28.4242 22.7232 29.0523C22.7332 29.2174 22.8222 29.4243 22.7409 29.5744L22.7366 29.5801L22.7363 29.5805Z" fill="#FEFEFE"/>
<path d="M20.4256 30.2358C20.384 30.2915 20.305 30.3176 20.2376 30.3387C20.0199 30.4013 19.7957 30.462 19.5757 30.523C19.2598 30.594 18.9628 30.751 18.6492 30.8209C18.5201 30.8328 18.5067 30.6958 18.5074 30.5906C18.5036 30.0166 18.6145 29.2615 18.675 28.7064C18.6935 28.3874 18.7659 28.096 19.0233 27.8825C19.3257 27.5958 19.6805 27.3716 20.0665 27.109C20.122 27.0725 20.2083 27.0161 20.2611 27.0395C20.3227 27.0825 20.298 27.1938 20.2938 27.2656C20.2472 27.6403 20.2044 27.9666 20.1917 28.3048C20.1682 28.8327 20.31 29.5279 20.4325 30.0193C20.4498 30.0888 20.4699 30.1694 20.4298 30.2309L20.4259 30.2362L20.4256 30.2358Z" fill="#FEFEFE"/>
<path d="M17.8893 29.4327C17.818 29.7967 17.8026 30.2362 17.788 30.622C17.7718 30.9265 17.8427 31.1618 17.5152 31.2693C16.8561 31.5296 16.1973 31.8129 15.5605 32.1573C15.4672 32.2064 15.2974 32.2955 15.3644 32.1208C15.6768 31.2712 16.8861 29.6331 17.7964 28.8649C18.0819 28.6653 17.9113 29.2884 17.8908 29.4239L17.8889 29.4331L17.8893 29.4327Z" fill="#FEFEFE"/>
<path d="M35.347 33.1623C35.3667 33.2886 35.3844 33.4238 35.4746 33.4998C35.5801 33.5908 35.7704 33.5681 35.8448 33.4579C35.9488 33.2994 35.9288 33.0637 35.9045 32.8802C35.7997 32.1872 35.6984 31.4639 35.3024 30.8228C35.2172 30.695 35.1205 30.5172 34.9541 30.5042C34.862 30.4984 34.7742 30.5625 34.7565 30.6497C34.7314 30.7883 34.8297 30.923 34.8782 31.0497C35.171 31.7189 35.2461 32.4383 35.3455 33.1504L35.347 33.1619V33.1623Z" fill="#050505"/>
<path d="M32.1787 31.001C32.0773 30.842 31.9699 30.6823 31.8493 30.5349C31.7988 30.4758 31.7399 30.4178 31.6659 30.3913C31.5727 30.3552 31.4475 30.3932 31.4163 30.4934C31.3866 30.5825 31.4475 30.6892 31.496 30.7706C31.9572 31.5108 32.1113 32.3373 32.1771 33.1854C32.1898 33.309 32.218 33.4591 32.3308 33.5224C32.4422 33.5873 32.6071 33.5589 32.6756 33.4549C32.8105 33.2134 32.6999 32.9151 32.683 32.6587C32.6109 32.0893 32.5034 31.5077 32.1848 31.0117L32.1787 31.0017V31.001Z" fill="#060606"/>
<path d="M27.4461 30.6854C27.3178 30.7664 27.3852 30.9472 27.4534 31.0582C28.0058 31.9619 28.299 32.9631 28.4897 33.9939C28.5171 34.147 28.6107 34.3302 28.7879 34.3017C29.0522 34.2495 29.009 33.886 28.9647 33.6829C28.7459 32.727 28.4608 31.7661 27.8567 30.9265C27.7685 30.804 27.6183 30.6017 27.4538 30.6808L27.4457 30.6854H27.4461Z" fill="#050505"/>
<path d="M24.166 31.4025C23.9318 31.0632 23.5951 31.267 23.7915 31.6375C24.2404 32.6199 24.6526 33.6153 24.8032 34.6899C24.8232 34.8311 24.8799 35.0162 25.0394 35.0277C25.133 35.0369 25.2204 34.9747 25.2605 34.8764C25.3626 34.6085 25.2428 34.3198 25.1996 34.0484C24.9958 33.1224 24.6899 32.2106 24.1726 31.4121L24.1656 31.4025H24.166Z" fill="#040404"/>
<path d="M20.5574 32.3124C20.4819 32.059 20.1225 31.9876 20.1483 32.3247C20.4118 33.3965 20.772 34.4446 21.0764 35.5053C21.1322 35.688 21.2077 35.9548 21.4416 35.9456C21.5425 35.9422 21.6276 35.8738 21.6407 35.7828C21.6561 35.6869 21.6145 35.5805 21.5864 35.4857C21.2497 34.433 20.9146 33.3696 20.5617 32.322L20.5574 32.312V32.3124Z" fill="#060606"/>
<path d="M17.2586 33.3094C17.1673 32.98 16.7447 32.9343 16.7832 33.3412C17.1049 34.3605 17.2613 35.4354 17.7109 36.4128C17.8419 36.6343 18.0492 37.2351 18.352 37.1868C18.4444 37.1737 18.5084 37.1015 18.5072 37.0144C18.5072 36.9134 18.4487 36.8094 18.4101 36.7134C17.9359 35.6143 17.6504 34.4472 17.2625 33.3197L17.2586 33.3094Z" fill="#040404"/>
</g>
<path d="M24.9521 377C32.5296 377 39.3196 381.652 43.9043 389H6.00098C10.5856 381.653 17.3749 377 24.9521 377Z" fill="black"/>
<defs>
<clipPath id="clip0_298_261">
<rect width="31" height="30" fill="white" transform="translate(8 22)"/>
</clipPath>
</defs>
</svg>
