<svg width="50" height="389" viewBox="0 0 50 389" fill="none" xmlns="http://www.w3.org/2000/svg">
<rect width="50" height="389" fill="#FEF9F5"/>
<rect y="253.461" width="50" height="26.0246" fill="#30524B"/>
<rect y="227.437" width="50" height="26.0246" fill="#041334"/>
<rect y="279.486" width="50" height="26.7095" fill="#FDDB03"/>
<rect y="306.196" width="50" height="26.0246" fill="#DD3421"/>
<path d="M15.6394 362.197C15.6127 362.344 15.506 362.75 15.3194 363.417C15.186 363.91 15.1194 364.317 15.1194 364.637C15.1194 365.01 15.1994 365.35 15.3594 365.657C14.6527 365.697 13.4594 365.697 11.7794 365.657L8.37938 352.357H11.8994L14.3794 361.937C15.2727 358.35 15.8394 355.804 16.0794 354.297C16.1194 354.084 16.1394 353.884 16.1394 353.697C16.1394 353.177 16.0127 352.73 15.7594 352.357C15.8127 352.397 16.546 352.39 17.9594 352.337L15.6394 362.197ZM28.795 365.677H25.355C25.3683 363.677 25.3617 362.23 25.335 361.337C25.3217 361.35 25.2017 361.47 24.975 361.697C24.7483 361.924 24.5283 362.057 24.315 362.097C23.795 362.07 23.5483 362.07 23.575 362.097C23.1083 362.057 22.875 362.277 22.875 362.757L22.895 365.677H19.535L19.495 352.377H22.955V360.837H25.395V352.377H28.795V365.677ZM39.6469 352.337C39.5002 352.59 39.3202 353.037 39.1069 353.677L36.1669 353.657C34.7535 353.657 34.0469 354.317 34.0469 355.637C34.0469 356.45 34.5735 357.07 35.6269 357.497C36.6135 357.87 37.5935 358.25 38.5669 358.637C39.6335 359.264 40.1669 360.23 40.1669 361.537C40.1669 362.63 39.7135 363.597 38.8069 364.437C37.9135 365.277 36.9269 365.69 35.8469 365.677L31.5269 365.657L30.8869 364.317C31.0202 364.317 32.2202 364.317 34.4869 364.317C36.0469 364.144 36.8269 363.477 36.8269 362.317C36.8269 361.597 36.2869 361.024 35.2069 360.597C33.3535 359.85 32.3602 359.43 32.2269 359.337C31.1602 358.644 30.6269 357.617 30.6269 356.257C30.6269 355.23 31.0669 354.324 31.9469 353.537C32.8269 352.737 33.7869 352.337 34.8269 352.337H39.6469Z" fill="black"/>
<rect x="7.34177" y="351.015" width="34.3165" height="16.3492" stroke="#041334" stroke-width="0.683544"/>
<path fill-rule="evenodd" clip-rule="evenodd" d="M6 389H43.9046C39.3199 381.652 32.5298 377 24.9523 377C17.3748 377 10.5847 381.652 6 389Z" fill="black"/>
</svg>
