<?xml version="1.0" encoding="UTF-8"?><svg id="Laptop" xmlns="http://www.w3.org/2000/svg" viewBox="0 0 689.73 1022.13"><defs><style>.cls-1{fill:none;stroke:#000;stroke-width:5px;}.cls-2,.cls-3,.cls-4,.cls-5,.cls-6,.cls-7,.cls-8,.cls-9,.cls-10,.cls-11,.cls-12,.cls-13,.cls-14{stroke-width:0px;}.cls-3{fill:#111;}.cls-4{fill:#fdfdfd;}.cls-5{fill:#fff;}.cls-6{fill:#fefefe;}.cls-7{fill:#fcfcfc;}.cls-8{fill:#f5f5f5;}.cls-9{fill:#030303;}.cls-10{fill:#040404;}.cls-11{fill:#010101;}.cls-12{fill:#060606;}.cls-13{fill:#050505;}.cls-14{fill:#020202;}</style></defs><path id="Outlines" class="cls-1" d="m683.92,498.36c-1.11-3.97-3.37-6.89-6.69-8.67-.4-.21-.81-.41-1.23-.58-.32-.14-.65-.27-.99-.39-.53-.18-1.08-.34-1.64-.48-.01,0-.02-.01-.02-.01-.93-.22-1.91-.38-2.94-.48-1.34-.14-2.77-.17-4.29-.1-13.98.7-27.97,1.4-41.95,2.09-27.96,1.4-55.93,2.79-83.89,4.21-13.99.72-27.97,1.44-41.95,2.17-.46.03-.9.05-1.32.06-1.69.07-3.14.04-4.29-.38-.23-.08-.45-.18-.66-.3-.99-.56-1.7-1.52-2.11-3.15-.05-.22-.11-.46-.15-.71-.01-.05-.02-.09-.02-.14-.04-.24-.07-.5-.1-.77-.01-.03-.02-.07-.01-.1-.03-.3-.05-.62-.07-.95-.03-.65-.11-1.3-.23-1.94-.12-.64-.27-1.28-.45-1.91-.19-.63-.41-1.25-.65-1.87-.24-.62-.51-1.23-.8-1.85-.18-.38-.37-.76-.56-1.14-.58-1.14-1.2-2.27-1.85-3.39-.51-.9-1.02-1.79-1.52-2.68-.53-.94-1.08-1.88-1.65-2.8-.81-1.35-1.65-2.69-2.52-4.01-.55-.83-1.1-1.65-1.67-2.46-2.82-4.08-5.86-7.98-8.99-11.74-1.26-1.5-2.53-2.98-3.81-4.44h0c.18-.27.36-.5.55-.69l.18-.18h.01c.24-.22.48-.39.71-.51.12-.06.24-.11.36-.15.9-.3,1.75-.06,2.55-.08.52-.01,1.04-.03,1.56-.06.84-.03,1.67-.07,2.5-.12.72-.04,1.45-.09,2.17-.14.65-.05,1.29-.1,1.94-.16,1.52-.13,3.05-.29,4.56-.48.93-.11,1.85-.22,2.77-.35.92-.12,1.83-.25,2.74-.39,2.16-.33,4.32-.69,6.47-1.09,2.63-.48,5.24-1.01,7.84-1.56,1.13-.24,2.26-.49,3.38-.74,1.12-.26,2.24-.51,3.37-.77.25-.06.49-.12.73-.18.41-.11.8-.23,1.18-.36.3-.1.58-.2.86-.32,1.1-.44,2.03-.97,2.79-1.57,3.81-3.01,3.39-7.75-1.24-12.35-.17-.17-.35-.34-.53-.51-.41-.38-.82-.76-1.22-1.14-.4-.38-.8-.77-1.2-1.16-.78-.78-1.54-1.58-2.22-2.45-.31-.39-.6-.78-.87-1.19-.27-.41-.53-.84-.77-1.28-.36-.66-.67-1.36-.93-2.11,3.92-2.2,7.98-4.07,11.65-6.47.53-.34,1.04-.69,1.55-1.06.3-.22.59-.44.86-.66.27-.22.53-.44.78-.65.49-.44.93-.86,1.31-1.29.25-.28.47-.57.68-.85,1.69-2.36,1.6-4.61-.25-6.73-.12-.14-.25-.28-.39-.41-.95-.96-2.27-1.89-3.95-2.79-6.02-3.2-11.57-7-16.94-11.21-.75-.59-1.44-1.2-2.07-1.83-.21-.21-.41-.43-.61-.64-.85-.94-1.56-1.93-2.13-2.99-.12-.21-.22-.43-.32-.65-.2-.43-.38-.88-.53-1.35h0c-.07-.24-.14-.47-.2-.71-.03-.1-.06-.21-.08-.31-.01-.04-.02-.08-.02-.11-.07-.26-.12-.53-.16-.8-.06-.34-.1-.68-.13-1.02-.03-.35-.05-.71-.06-1.07-.01-.49,0-.99.03-1.5.15-2.36-.03-4.76-.38-7.15-.07-.46-.14-.92-.22-1.38-.14-.91-.31-1.83-.5-2.75-.1-.45-.19-.9-.28-1.34-.11-.49-.17-.96-.2-1.38-.05-.88.06-1.63.36-2.31.07-.16.15-.32.24-.47.03-.04.05-.09.08-.13.09-.15.2-.29.32-.44.21-.27.47-.54.77-.81.18-.17.39-.33.61-.5.11-.09.22-.17.34-.26,1.39-1.01,2.65-2.12,3.81-3.29.58-.59,1.13-1.2,1.66-1.82.53-.62,1.04-1.26,1.51-1.92.64-.88,1.23-1.78,1.79-2.71.56-.93,1.07-1.88,1.56-2.85.72-1.46,1.37-2.97,1.95-4.51.58-1.55,1.09-3.13,1.55-4.73.55-1.93,1.05-3.86,1.5-5.79.44-1.93.83-3.85,1.17-5.77.11-.64.22-1.28.32-1.92.2-1.27.37-2.55.53-3.83,1.24-10.21,1.01-20.33-.45-30.36h0c-.29-2.06-.64-4.11-1.05-6.15h0c-.13-.65-.26-1.29-.39-1.93-.4-1.91-.85-3.83-1.34-5.73-.39-1.53-.8-3.06-1.25-4.58-.34-1.18-.7-2.36-1.07-3.53-.27-.85-.55-1.71-.84-2.56-.84-2.53-1.76-5.06-2.74-7.58-1.37-3.53-2.6-6.28.32-9.97,2.15-2.73,3.93-5.59,5.39-8.56.61-1.23,1.16-2.49,1.65-3.76.06-.16.13-.32.18-.47.23-.6.44-1.19.64-1.79.29-.84.55-1.69.78-2.55.24-.86.45-1.72.65-2.59.55-2.49.93-5.04,1.15-7.62.24-2.81.29-5.66.17-8.54-.02-.52-.05-1.04-.07-1.56-.18-3.12-.48-6.16-.9-9.14-.15-.99-.3-1.98-.47-2.96-.17-.97-.36-1.94-.55-2.91-.1-.48-.2-.96-.31-1.44-.21-.95-.44-1.9-.67-2.84-.12-.47-.24-.94-.37-1.4-.38-1.4-.79-2.79-1.22-4.16-.44-1.36-.91-2.71-1.4-4.05-.33-.89-.67-1.77-1.03-2.65-.17-.44-.35-.88-.54-1.31-.74-1.74-1.53-3.45-2.36-5.14-.21-.42-.42-.84-.64-1.25-.43-.84-.87-1.67-1.33-2.49-.68-1.24-1.39-2.46-2.13-3.66-.49-.8-.99-1.6-1.51-2.39-1.03-1.57-2.1-3.13-3.22-4.65-.56-.76-1.14-1.52-1.72-2.27-2.92-3.76-6.12-7.35-9.58-10.8-4.15-4.13-8.68-8.06-13.56-11.78-1.07-.81-2.03-1.64-2.91-2.51-1.32-1.29-2.44-2.67-3.38-4.2-.16-.26-.32-.52-.46-.78-.25-.44-.48-.9-.71-1.36-.45-.92-.85-1.91-1.21-2.96-3.59-10.4-7.99-20.12-13.18-29.14-.65-1.13-1.31-2.25-1.99-3.35-.67-1.1-1.36-2.19-2.05-3.28-.7-1.08-1.41-2.16-2.13-3.22-2.17-3.18-4.45-6.27-6.84-9.26-3.18-3.99-6.57-7.8-10.15-11.44-1.33-1.36-2.69-2.68-4.07-3.97-.97-.93-1.95-1.84-2.95-2.71-2.37-2.13-4.8-4.17-7.31-6.15-7.12-5.6-14.82-10.67-23.11-15.2-.01,0-.01-.01-.01-.01-2.37-1.29-4.78-2.54-7.25-3.75-.81-.39-1.61-.78-2.42-1.16-2.42-1.15-4.86-2.24-7.3-3.27-4.88-2.06-9.81-3.9-14.77-5.52-2.48-.8-4.96-1.55-7.46-2.25-.84-.23-1.67-.46-2.51-.68-1.66-.44-3.33-.85-5-1.24h-.01c-1.67-.39-3.35-.75-5.03-1.09-1.68-.34-3.36-.66-5.05-.95-21.99-3.79-44.49-3.42-67.14.92-5.88,1.13-11.66,2.39-17.34,3.79-5.14,1.27-10.19,2.65-15.15,4.14-3.92,1.18-7.79,2.43-11.6,3.75-4.18,1.45-8.3,2.98-12.35,4.61-2.12.83-4.21,1.7-6.29,2.59-3.64,1.56-7.23,3.19-10.76,4.89-2.35,1.14-4.68,2.3-6.99,3.5-1.15.59-2.3,1.2-3.44,1.82-1.72.93-3.42,1.87-5.1,2.82-1.68.96-3.36,1.93-5.01,2.93-3.32,1.98-6.58,4.04-9.79,6.18-2.14,1.42-4.25,2.88-6.34,4.36-2.05,1.46-4.08,2.95-6.08,4.47-3.1,2.35-6.15,4.78-9.14,7.28-2.48,2.08-4.93,4.21-7.33,6.39-2.36,2.14-4.68,4.33-6.96,6.57-.92.91-1.84,1.82-2.75,2.74-20.93,21.18-38.56,46.65-52.79,76.51-11.81,24.76-19.22,50.72-21.65,78.03-.11,1.19-.31,2.24-.63,3.17-.46,1.3-1.16,2.38-2.19,3.33-.45.41-.95.8-1.52,1.17-.1.06-.19.12-.29.18-.1.07-.2.13-.3.19-1.45.86-2.86,1.77-4.22,2.71-1.36.94-2.66,1.92-3.93,2.94-7.57,6.11-13.46,13.57-18,22.11-.5.95-.99,1.91-1.46,2.88-1.42,2.92-2.69,5.96-3.82,9.11-.66,1.84-1.27,3.69-1.82,5.54-.27.93-.54,1.86-.79,2.79s-.49,1.86-.71,2.79c-.53,2.24-.99,4.48-1.38,6.73s-.7,4.5-.94,6.76c-.63,6.05-.75,12.14-.38,18.25.04.58.08,1.15.12,1.73.13,1.72.3,3.45.51,5.18.1.77.2,1.54.3,2.3.1.77.22,1.54.34,2.31.11.68.22,1.35.34,2.03.43,2.53.91,5.03,1.43,7.49l.54,2.46c.3,1.3.61,2.6.93,3.88.16.65.33,1.29.5,1.93.34,1.27.69,2.54,1.05,3.8.37,1.27.75,2.52,1.14,3.76.4,1.24.81,2.47,1.23,3.68h0c.43,1.23.86,2.44,1.31,3.64,3.85,10.22,8.75,19.74,14.84,28.46,1.07,1.54,2.18,3.05,3.33,4.54.38.5.77.99,1.16,1.48.79.98,1.58,1.95,2.4,2.91,1.22,1.44,2.48,2.85,3.78,4.23.87.93,1.75,1.84,2.66,2.74,8.56,8.55,18.68,16.02,30.53,22.29,2.16,1.14,4.01,2.12,5.59,2.99.4.22.77.43,1.13.64.54.31,1.04.61,1.5.9.61.38,1.16.75,1.64,1.12.36.27.68.54.96.81.1.09.2.18.28.27,1.91,1.98,1.83,4,.04,7.45-.26.49-.56,1.01-.88,1.56-.16.28-.33.57-.52.87-.9,1.48-2.02,3.18-3.34,5.16h0c-.27.41-.54.81-.82,1.23-.4.6-.86,1.19-1.29,1.78-.15.2-.29.4-.43.6-1.22,1.76-2.02,3.6-.28,5.85.15.19.3.37.47.52.2.21.41.39.62.54.21.15.43.29.66.4.18.08.37.16.55.23,1.96.68,4.27.09,6.4-.26,2.41-.39,4.81-.8,7.29-1.23,2.87-.5,5.84-1.02,9.01-1.58,1.35-.24,2.74-.48,4.18-.73-6.54,10.82-12.43,20.12-17.06,30.14-1.59,3.43-3.08,6.86-4.49,10.31-.44,1.08-.87,2.16-1.29,3.23-1.27,3.24-2.44,6.48-3.54,9.74-.42,1.25-.83,2.49-1.22,3.74-.32,1.01-.64,2.03-.94,3.04-.26.86-.52,1.73-.76,2.6-.01.01-.01.02-.01.04-.16.56-.32,1.12-.48,1.68-.62,2.22-1.19,4.45-1.72,6.69-.24.97-.46,1.93-.68,2.9-.85,3.78-1.58,7.58-2.19,11.39-.16.97-.31,1.93-.44,2.9-.06.39-.12.79-.17,1.2-.12.82-.23,1.64-.32,2.46-.13.99-.25,1.99-.35,2.99-.07.62-.13,1.23-.19,1.84-.07.66-.13,1.33-.18,2-.05.54-.09,1.08-.13,1.62-.07.74-.12,1.48-.16,2.22-.04.54-.07,1.07-.1,1.6-.02.31-.04.63-.05.95-.05.93-.09,1.86-.12,2.79-.03.79-.05,1.58-.07,2.38-.01.54-.02,1.07-.03,1.61v.58c-.16,15.51,1.71,31.24,5.79,47.22.74,2.9,1.55,5.72,2.44,8.49.3.92.6,1.84.91,2.75.42,1.21.85,2.42,1.29,3.61,12.45,33.36,36.13,57.65,67.7,75.7.38.22.78.42,1.15.64.19.11.37.22.55.34.18.12.35.25.5.39.08.07.15.14.22.22l.1.1c.07.09.14.18.21.28.14.21.26.44.34.7.06.16.11.34.13.53.06.32.07.68.03,1.09-.04.42-.07.83-.09,1.24t0,.01c-.06,1.26-.03,2.5.09,3.71.04.42.08.83.14,1.24.05.41.12.82.19,1.23.28,1.62.7,3.21,1.21,4.77,1.68,5.18,4.39,10.04,6.86,14.92,14.07,27.84,31.05,53.88,49.51,78.99,1.54,2.11,4.06,4.06,2.34,6.86-.13.22-.3.44-.49.68-.25.31-.56.63-.93.96-22.58,20.58-18.49,50.67-4.64,70.31,2.14,3.04,4.37,5.89,6.68,8.57.51.59,1.01,1.16,1.52,1.73.5.55,1,1.09,1.5,1.62.68.72,1.37,1.43,2.07,2.12.17.18.34.35.52.52.52.52,1.05,1.02,1.58,1.52,1.77,1.67,3.59,3.25,5.44,4.73.74.6,1.49,1.18,2.24,1.74.76.57,1.52,1.13,2.29,1.67,1.15.8,2.32,1.58,3.5,2.33,2.37,1.5,4.79,2.87,7.27,4.12.69.35,1.39.69,2.09,1.02.55.26,1.11.52,1.67.76.84.38,1.69.74,2.55,1.09.86.35,1.72.68,2.59,1.01.44.16.87.32,1.31.47.77.27,1.54.53,2.32.78,2.77.9,5.59,1.66,8.48,2.3.92.2,1.85.39,2.78.57,1.41.27,2.82.51,4.25.72.95.13,1.91.26,2.88.38,6.98.82,14.25.97,21.81.48,2.31-.15,3.92-.18,4.95.2.19.07.37.16.52.27.08.05.15.11.22.18.78.73.86,2.09.43,4.52-.07.35-.14.73-.23,1.13-3.52,16.69-1.74,27.23,7.18,36.04,1.83,1.82,3.97,3.56,6.42,5.26,2.45,1.71,5.22,3.38,8.32,5.05.38.2.75.39,1.13.57s.77.35,1.17.52h.01c4.22,1.77,8.46,3.39,12.71,4.88.85.3,1.71.6,2.56.88,5.33,1.8,10.69,3.38,16.08,4.74,1.14.29,2.29.57,3.43.83,1.55.37,3.11.72,4.67,1.05.55.12,1.1.23,1.65.34,2.92.6,5.85,1.13,8.8,1.6,1.43.23,2.87.44,4.31.64,1.34.19,2.68.36,4.02.52.4.05.81.09,1.22.14.46.06.92.11,1.38.15,8.37.9,16.83,1.29,25.38,1.18,2.67-.03,5.34-.11,8.03-.24h.03c3.59-.18,7.2-.44,10.83-.79.36-.03.71-.07,1.06-.11,1.06-.13,2.09-.29,3.09-.48.67-.13,1.33-.27,1.98-.43.65-.16,1.28-.33,1.91-.51.62-.19,1.24-.38,1.84-.59,23.86-8.33,30.3-36.82,19.14-54.58-4.05-6.44-8.13-12.89-12.47-19.12-.96-1.38-1.94-2.76-2.93-4.12-10.42-14.27-22.53-27.06-39.28-35.42-.41-.21-.88-.39-1.35-.58-.2-.08-.4-.16-.59-.25-.08-.04-.15-.07-.22-.1-.19-.09-.37-.19-.54-.29-.01,0-.01-.01-.01-.01-.08-.05-.15-.1-.23-.15-.15-.1-.29-.21-.42-.33-.07-.06-.13-.12-.18-.18-.4-.44-.65-1-.64-1.75,0-.27.04-.57.11-.89,1.67-7.41.4-14.59-1.11-21.69-.16-.72-.31-1.44-.47-2.16-.05-.22-.09-.44-.14-.65-.17-.8-.34-1.59-.5-2.38-.05-.21-.09-.41-.13-.62-.29-1.41-.55-2.81-.78-4.22-.26-1.58-.45-3.07-.57-4.51-.04-.48-.07-.95-.09-1.42-.13-2.72.02-5.23.52-7.66.1-.55.23-1.09.39-1.63.02-.07.04-.14.06-.21.43-1.51,1.01-2.99,1.75-4.48.01-.01.02-.02.02-.04.21-.43.44-.86.69-1.29h0c.37-.66.76-1.31,1.2-1.97,0-.01,0-.02,0-.02.43-.66.89-1.32,1.4-1.99.01-.01.01-.02.01-.02.33-.45.68-.9,1.05-1.35.74-.92,1.54-1.85,2.41-2.81,15.57-17.15,27.67-36.55,36.62-57.57.89-2.1,1.75-4.22,2.59-6.35.83-2.13,1.63-4.29,2.4-6.45.39-1.08.77-2.16,1.13-3.25.37-1.09.73-2.18,1.09-3.28.36-1.1.7-2.2,1.04-3.3.68-2.21,1.33-4.43,1.95-6.67.93-3.35,1.79-6.74,2.58-10.15.07-.31.14-.61.22-.9.31-1.17.65-2.19,1.09-3.08.11-.22.22-.43.35-.63.25-.41.53-.77.84-1.11.79-.84,1.81-1.47,3.18-1.88.27-.08.56-.16.87-.22.15-.03.3-.06.46-.09.24-.05.49-.08.75-.11s.53-.06.8-.08c8.91-.74,17.83-1.42,26.76-2.08,38.67-2.84,77.37-5.21,115.84-10.43,2.31-.31,4.33-.57,6.11-.82.45-.07.88-.13,1.29-.19.21-.03.42-.06.62-.09.4-.06.79-.13,1.17-.19.38-.06.74-.12,1.09-.19.87-.17,1.67-.35,2.4-.54.6-.16,1.14-.34,1.65-.52.25-.1.49-.2.72-.3,1.06-.48,1.95-1.06,2.73-1.81.52-.5.99-1.08,1.43-1.75.15-.22.29-.46.43-.7.06-.12.13-.25.21-.38.14-.26.27-.53.41-.81.13-.28.26-.57.4-.88.13-.3.26-.62.39-.95s.26-.68.4-1.04c.19-.53.39-1.1.6-1.7.19-.6.4-1.24.62-1.92.43-1.35.88-2.84,1.37-4.5,3.37-11.36,6.85-22.7,10.37-34.03,1.17-3.77,2.36-7.55,3.54-11.32,5.92-18.86,11.92-37.69,17.73-56.58,1.16-3.77,2.31-7.55,3.46-11.34,1.15-3.79,2.29-7.57,3.41-11.36,1.25-4.2,2.48-8.41,3.7-12.62.35-1.21.7-2.42,1.04-3.64,3.89-13.57,7.59-27.19,11.01-40.9.41-1.64.86-3.29,1.23-4.95.18-.83.34-1.66.47-2.49.01-.06.02-.11.02-.17.06-.39.11-.78.15-1.17.05-.39.08-.78.1-1.17.16-3.03-.1-5.71-.75-8.04Zm-271.86,475.83c4.93-.29,9.81-.92,14.61-1.91h.01c2.5-.52,4.97-1.13,7.41-1.85,1.82,4.12.32,7.14-3.47,9.22-3.9,2.17-10.23,3.33-17.84,3.68-5.01.23-10.58.11-16.38-.31-22.52-1.66-48.51-7.89-58.79-15.76-4.2-3.2-5.78-6.68-3.44-10.23,4.57,2.12,9.29,4.12,14.11,5.95,12.18,4.64,25.04,8.21,37.97,10.05,8.63,1.23,17.29,1.68,25.81,1.16Z"/><path id="Lines" class="cls-11" d="m683.92,498.36c-1.11-3.97-3.37-6.89-6.69-8.67-.4-.21-.81-.41-1.23-.58-.32-.14-.65-.27-.99-.39-.53-.18-1.08-.34-1.64-.48-.01,0-.02-.01-.02-.01-.93-.22-1.91-.38-2.94-.48-1.34-.13-2.77-.16-4.29-.09-13.99.69-27.97,1.39-41.95,2.08-27.96,1.4-55.93,2.79-83.89,4.21-13.98.71-27.96,1.43-41.94,2.16-.46.02-.91.05-1.33.07-1.69.07-3.14.04-4.29-.38-.23-.08-.45-.18-.66-.3-.99-.56-1.7-1.52-2.11-3.15-.05-.22-.11-.46-.15-.71-.01-.05-.02-.09-.02-.14-.04-.25-.08-.5-.1-.77-.01-.03-.02-.07-.01-.1-.04-.31-.06-.62-.08-.96-.03-.65-.11-1.29-.22-1.93-.12-.64-.27-1.28-.45-1.91-.19-.63-.41-1.25-.65-1.87-.24-.62-.51-1.23-.8-1.85-.18-.38-.37-.76-.56-1.14-.58-1.14-1.21-2.27-1.85-3.39-.52-.9-1.03-1.79-1.53-2.68-.53-.94-1.08-1.88-1.64-2.8-.81-1.35-1.65-2.69-2.52-4.01-.55-.83-1.1-1.65-1.67-2.46-2.82-4.08-5.84-7.98-8.99-11.74-1.25-1.5-2.52-2.98-3.81-4.44h0c.18-.27.36-.5.55-.69l.18-.18h.01c.24-.23.47-.39.71-.51.12-.06.24-.11.36-.15.9-.31,1.76-.07,2.55-.09.52-.01,1.04-.03,1.56-.05.84-.03,1.67-.07,2.5-.12.72-.04,1.45-.09,2.17-.14.65-.05,1.29-.1,1.94-.16,1.52-.13,3.05-.29,4.56-.48.93-.11,1.85-.22,2.77-.35.92-.12,1.83-.25,2.74-.39,2.16-.33,4.32-.69,6.47-1.09,2.63-.48,5.24-1.01,7.84-1.56,1.13-.24,2.26-.49,3.38-.74s2.24-.5,3.36-.76c.25-.06.5-.12.74-.19.41-.11.8-.23,1.18-.36.3-.1.58-.2.86-.32,1.1-.44,2.03-.97,2.79-1.57,3.81-3.01,3.39-7.75-1.24-12.35-.17-.18-.35-.35-.53-.52-.41-.38-.82-.75-1.22-1.13-.4-.38-.8-.77-1.2-1.16-.78-.78-1.54-1.58-2.22-2.45-.3-.39-.59-.78-.87-1.19-.27-.41-.53-.84-.77-1.28-.36-.66-.68-1.36-.94-2.11h.01c3.92-2.2,7.98-4.07,11.65-6.47.52-.35,1.04-.7,1.54-1.07.3-.22.6-.44.87-.65.27-.22.53-.44.78-.65.49-.44.93-.86,1.31-1.29.25-.28.47-.57.68-.85,1.69-2.36,1.6-4.61-.25-6.73-.12-.14-.25-.28-.39-.41-.95-.96-2.27-1.89-3.95-2.79-6.02-3.2-11.57-7-16.94-11.21-.75-.59-1.44-1.2-2.07-1.83-.21-.2-.42-.42-.61-.64-.86-.94-1.57-1.93-2.13-2.99-.12-.21-.22-.43-.32-.65-.2-.43-.38-.88-.53-1.35h0c-.07-.24-.14-.47-.2-.71-.03-.1-.06-.21-.08-.31-.01-.04-.02-.08-.02-.11-.07-.26-.12-.53-.16-.8-.06-.33-.1-.67-.13-1.02-.04-.35-.06-.7-.06-1.07-.01-.49,0-.99.03-1.5.15-2.36-.03-4.76-.38-7.15-.07-.46-.14-.92-.22-1.38-.14-.91-.31-1.83-.5-2.75-.09-.45-.18-.89-.27-1.34-.1-.5-.17-.95-.21-1.38-.05-.88.06-1.63.36-2.31.07-.16.15-.32.24-.47.03-.04.05-.09.08-.13.09-.15.2-.29.32-.44.21-.27.47-.54.77-.81.18-.17.39-.33.61-.5.11-.09.22-.17.34-.26,1.39-1.01,2.65-2.12,3.81-3.29.58-.59,1.13-1.2,1.66-1.82.53-.62,1.03-1.26,1.51-1.92.64-.88,1.23-1.78,1.79-2.71.56-.93,1.07-1.88,1.56-2.85.72-1.46,1.37-2.97,1.95-4.51.58-1.55,1.09-3.13,1.55-4.73.55-1.93,1.05-3.86,1.5-5.79.44-1.93.83-3.85,1.17-5.77.11-.64.22-1.28.32-1.92.2-1.27.37-2.55.53-3.83,1.24-10.21,1.01-20.33-.45-30.36h0c-.3-2.06-.66-4.11-1.05-6.15h0c-.13-.65-.26-1.29-.39-1.93-.41-1.91-.85-3.83-1.34-5.73-.39-1.53-.81-3.06-1.25-4.58-.34-1.18-.7-2.36-1.07-3.53-.27-.85-.55-1.71-.84-2.56-.84-2.53-1.76-5.06-2.74-7.58-1.37-3.53-2.6-6.28.32-9.97,2.15-2.73,3.93-5.59,5.39-8.56.61-1.23,1.16-2.49,1.65-3.76.06-.16.13-.32.18-.47.23-.6.44-1.19.64-1.79.28-.84.54-1.7.78-2.55.24-.86.45-1.72.65-2.59.55-2.49.93-5.04,1.15-7.62.25-2.81.3-5.66.18-8.54-.02-.52-.05-1.04-.08-1.56-.17-3.12-.47-6.16-.9-9.14-.14-.99-.3-1.98-.47-2.96-.17-.97-.35-1.94-.55-2.91-.1-.48-.2-.96-.31-1.44-.21-.95-.43-1.9-.67-2.84-.12-.47-.24-.94-.37-1.4-.37-1.4-.78-2.79-1.22-4.16-.43-1.36-.9-2.71-1.4-4.05-.33-.89-.67-1.77-1.03-2.65-.17-.44-.35-.88-.54-1.31-.74-1.74-1.52-3.45-2.36-5.14-.21-.42-.42-.84-.64-1.25-.43-.84-.87-1.67-1.33-2.49-.68-1.24-1.39-2.46-2.13-3.66-.49-.8-.99-1.6-1.51-2.39-1.02-1.57-2.1-3.13-3.22-4.65-.56-.76-1.14-1.52-1.72-2.27-2.92-3.76-6.12-7.35-9.58-10.8-4.15-4.13-8.68-8.06-13.56-11.78-1.07-.81-2.03-1.64-2.91-2.51-1.32-1.29-2.44-2.67-3.38-4.2-.16-.26-.32-.52-.46-.78-.25-.44-.49-.89-.71-1.36-.45-.92-.85-1.91-1.21-2.96-3.59-10.4-7.99-20.12-13.18-29.14-.65-1.13-1.31-2.25-1.99-3.35-.67-1.11-1.35-2.2-2.05-3.28-.7-1.08-1.41-2.16-2.13-3.22-2.16-3.18-4.44-6.27-6.84-9.26-3.18-3.99-6.57-7.8-10.15-11.44-1.33-1.36-2.69-2.68-4.07-3.97-.97-.93-1.95-1.84-2.95-2.71-2.37-2.13-4.8-4.17-7.31-6.15-7.12-5.6-14.82-10.67-23.11-15.2-.01,0-.01-.01-.01-.01-2.37-1.28-4.79-2.53-7.25-3.74-.81-.39-1.61-.78-2.42-1.17-2.42-1.14-4.86-2.23-7.3-3.27-4.88-2.06-9.81-3.9-14.77-5.52-2.48-.8-4.97-1.56-7.46-2.25-.84-.23-1.67-.46-2.51-.68-1.66-.44-3.33-.85-5-1.24h-.01c-1.67-.39-3.35-.75-5.03-1.09-1.68-.34-3.36-.66-5.05-.95-21.99-3.79-44.49-3.42-67.14.92-5.88,1.13-11.66,2.39-17.34,3.79-5.14,1.27-10.19,2.65-15.15,4.14-3.92,1.18-7.79,2.43-11.6,3.75-4.18,1.45-8.3,2.98-12.35,4.61-2.12.83-4.21,1.7-6.29,2.59-3.64,1.56-7.23,3.19-10.76,4.89-2.35,1.13-4.68,2.3-6.99,3.5-1.15.59-2.3,1.2-3.44,1.82-1.72.92-3.42,1.86-5.1,2.82-1.68.96-3.36,1.93-5.01,2.93-3.32,1.98-6.58,4.04-9.79,6.18-2.14,1.42-4.25,2.87-6.34,4.36-2.05,1.46-4.08,2.94-6.08,4.47-3.1,2.35-6.15,4.78-9.14,7.28-2.48,2.07-4.93,4.2-7.33,6.39-2.36,2.14-4.68,4.33-6.96,6.57-.92.91-1.84,1.82-2.75,2.74-20.93,21.18-38.56,46.65-52.79,76.51-11.81,24.76-19.22,50.72-21.65,78.03-.11,1.19-.31,2.24-.63,3.17-.46,1.3-1.16,2.38-2.19,3.33-.45.41-.95.8-1.52,1.17-.1.06-.19.12-.29.18-.09.06-.19.12-.3.18-1.45.87-2.86,1.77-4.22,2.72-1.36.94-2.66,1.92-3.93,2.94-7.57,6.11-13.46,13.57-18,22.11-.5.95-.99,1.91-1.46,2.88-1.41,2.92-2.68,5.96-3.81,9.11-.67,1.84-1.27,3.69-1.83,5.54-.27.93-.54,1.86-.79,2.79s-.49,1.86-.71,2.79c-.53,2.24-.99,4.48-1.38,6.73s-.7,4.5-.94,6.76c-.63,6.05-.75,12.14-.38,18.25.04.58.08,1.15.12,1.73.13,1.72.31,3.45.51,5.18.1.77.2,1.54.3,2.3.11.77.23,1.54.35,2.31.11.68.22,1.35.33,2.03.43,2.53.91,5.02,1.43,7.49l.54,2.46c.3,1.3.61,2.6.93,3.88.16.65.33,1.29.5,1.93.34,1.27.69,2.54,1.05,3.8.37,1.27.75,2.52,1.14,3.76.4,1.24.81,2.47,1.23,3.68h0c.43,1.23.86,2.44,1.31,3.64,3.85,10.22,8.75,19.74,14.84,28.46,1.07,1.54,2.18,3.05,3.33,4.54.38.5.77.99,1.16,1.48.79.98,1.58,1.95,2.4,2.91,1.22,1.44,2.48,2.85,3.78,4.23.87.93,1.75,1.84,2.66,2.74,8.56,8.55,18.68,16.02,30.53,22.29,2.16,1.14,4.01,2.12,5.59,2.99.4.22.77.43,1.13.64.54.31,1.04.61,1.5.9.61.39,1.16.76,1.64,1.12.36.27.68.54.96.81.1.09.2.18.28.27,1.91,1.98,1.83,4,.04,7.45-.26.49-.55,1.01-.88,1.56-.16.28-.33.57-.52.87-.9,1.48-2.02,3.18-3.34,5.16h0c-.26.4-.53.81-.81,1.23-.4.6-.86,1.19-1.3,1.78-.15.2-.29.4-.43.6-1.22,1.76-2.02,3.6-.28,5.85.15.19.3.37.47.52.2.21.41.39.62.54.21.15.43.29.66.4.18.08.37.16.55.23,1.96.68,4.27.09,6.4-.26,2.41-.39,4.81-.8,7.29-1.23,2.87-.5,5.84-1.02,9.01-1.58,1.35-.24,2.74-.48,4.18-.73-6.54,10.82-12.43,20.12-17.06,30.14-1.59,3.43-3.08,6.86-4.49,10.31-.44,1.08-.87,2.16-1.29,3.23-1.26,3.24-2.44,6.48-3.54,9.74-.42,1.25-.83,2.49-1.22,3.74-.32,1.01-.64,2.03-.94,3.04-.26.86-.52,1.73-.76,2.6-.01.01-.01.02-.01.04-.16.56-.32,1.12-.48,1.68-.62,2.22-1.19,4.45-1.72,6.69-.24.97-.46,1.93-.68,2.9-.85,3.78-1.58,7.58-2.19,11.39-.16.97-.31,1.93-.44,2.9-.06.39-.12.79-.17,1.2-.12.82-.23,1.64-.32,2.46-.13.99-.25,1.99-.35,2.99-.07.62-.13,1.23-.19,1.84-.07.66-.13,1.33-.18,2-.05.54-.09,1.08-.13,1.62-.07.74-.12,1.48-.16,2.22-.04.54-.07,1.07-.1,1.6-.02.31-.04.63-.05.95-.05.93-.09,1.86-.12,2.79-.03.79-.05,1.58-.07,2.38-.01.54-.02,1.07-.03,1.61v.58c-.15,15.51,1.72,31.24,5.8,47.21.73,2.89,1.55,5.73,2.43,8.5.3.92.6,1.84.91,2.75.42,1.21.85,2.42,1.29,3.61,12.45,33.36,36.13,57.65,67.7,75.7.38.22.78.42,1.15.64.19.11.37.22.55.34.18.12.35.25.5.39.08.07.15.14.22.22l.1.1c.07.09.14.18.21.28.14.21.26.44.34.7.06.16.11.34.13.53.05.32.06.68.02,1.09-.04.42-.07.83-.08,1.24t0,.01c-.06,1.26-.03,2.5.09,3.71.04.42.08.83.14,1.24.05.41.12.82.19,1.23.28,1.62.7,3.21,1.21,4.77,1.68,5.18,4.39,10.04,6.86,14.92,14.07,27.84,31.05,53.88,49.51,78.99,1.54,2.11,4.06,4.06,2.34,6.86-.13.22-.3.44-.49.68-.25.31-.56.63-.93.96-22.58,20.58-18.49,50.67-4.64,70.31,2.14,3.04,4.37,5.89,6.68,8.57.51.59,1.01,1.16,1.52,1.73.5.55,1,1.09,1.5,1.62.68.72,1.37,1.43,2.07,2.12.17.18.34.35.52.52.52.52,1.05,1.02,1.58,1.52,1.77,1.67,3.59,3.25,5.44,4.73.74.6,1.49,1.18,2.24,1.74.76.57,1.52,1.13,2.29,1.67,1.15.81,2.32,1.58,3.5,2.33,2.37,1.5,4.79,2.87,7.27,4.12.69.35,1.39.69,2.09,1.02.55.26,1.11.52,1.67.76.84.38,1.69.74,2.55,1.09.86.35,1.72.68,2.59,1.01.44.16.87.32,1.31.47.77.27,1.54.53,2.32.78,2.77.9,5.59,1.66,8.48,2.3.92.2,1.85.39,2.78.57,1.41.27,2.82.51,4.25.72.95.13,1.91.26,2.88.38,6.98.82,14.25.97,21.81.48,2.31-.15,3.92-.18,4.95.2.19.07.37.16.52.27.08.05.15.11.22.18.78.73.86,2.09.43,4.52-.07.35-.14.73-.23,1.13-3.52,16.69-1.74,27.23,7.18,36.04,1.83,1.82,3.97,3.56,6.42,5.26,2.45,1.71,5.22,3.38,8.32,5.05.38.2.75.39,1.13.57s.77.35,1.17.52h.01c4.22,1.77,8.46,3.39,12.71,4.88.85.3,1.71.6,2.56.88,5.33,1.8,10.69,3.38,16.08,4.74,1.14.29,2.29.57,3.43.83,1.55.37,3.11.72,4.67,1.05.55.12,1.1.23,1.65.34,2.92.6,5.85,1.13,8.8,1.6,1.43.23,2.87.44,4.31.64,1.34.19,2.68.36,4.02.52.4.05.81.09,1.22.14.46.06.92.11,1.38.15,8.37.9,16.83,1.29,25.38,1.18,2.67-.03,5.34-.11,8.03-.24h.03c3.59-.17,7.2-.43,10.83-.78.36-.03.71-.07,1.06-.12,1.06-.12,2.09-.28,3.09-.48.67-.13,1.33-.27,1.98-.43.65-.16,1.28-.33,1.91-.51.62-.19,1.24-.38,1.84-.59,23.86-8.33,30.3-36.82,19.14-54.58-4.05-6.44-8.13-12.89-12.47-19.12-.97-1.38-1.94-2.76-2.93-4.12-10.42-14.27-22.53-27.06-39.28-35.42-.41-.21-.88-.39-1.35-.58-.2-.08-.4-.16-.59-.25-.08-.04-.15-.07-.22-.1-.19-.09-.37-.19-.54-.29-.01,0-.01-.01-.01-.01-.08-.05-.15-.1-.23-.15-.15-.1-.3-.21-.42-.33-.07-.06-.13-.12-.18-.18-.4-.44-.65-1-.64-1.75,0-.27.03-.57.11-.89,1.67-7.41.4-14.59-1.11-21.69-.16-.72-.31-1.44-.47-2.16-.05-.22-.09-.44-.14-.65-.17-.8-.34-1.59-.5-2.38-.05-.21-.09-.41-.13-.62-.29-1.41-.56-2.81-.79-4.22-.25-1.58-.44-3.07-.56-4.51-.04-.48-.07-.95-.09-1.42-.13-2.72.02-5.23.52-7.66.1-.55.23-1.09.39-1.63.02-.07.04-.14.06-.21.43-1.51,1.01-2.99,1.75-4.48.01-.01.02-.02.02-.04.21-.43.44-.86.69-1.29h0c.37-.66.77-1.31,1.2-1.97,0-.01,0-.02,0-.02.44-.66.9-1.32,1.4-1.99.01-.01.01-.02.01-.02.33-.45.68-.9,1.05-1.35.74-.92,1.54-1.85,2.41-2.81,15.57-17.15,27.67-36.55,36.62-57.57.89-2.1,1.76-4.22,2.59-6.35.83-2.13,1.63-4.29,2.4-6.45.39-1.08.77-2.16,1.13-3.25.37-1.09.73-2.18,1.09-3.28.36-1.1.7-2.2,1.04-3.3.68-2.21,1.33-4.43,1.95-6.67.93-3.35,1.79-6.74,2.58-10.15.07-.31.14-.61.22-.9.3-1.17.64-2.19,1.09-3.08.11-.22.22-.43.35-.63.25-.41.53-.77.84-1.11.79-.84,1.81-1.47,3.18-1.88.27-.08.56-.16.87-.22.15-.03.3-.06.46-.09.24-.05.49-.08.75-.11.26-.04.53-.06.8-.09,8.91-.74,17.83-1.42,26.76-2.07,38.67-2.84,77.37-5.21,115.84-10.43,2.31-.31,4.33-.57,6.11-.82.45-.07.88-.13,1.29-.19.21-.03.42-.06.62-.09.4-.06.79-.13,1.17-.19.37-.06.74-.13,1.09-.19.87-.17,1.67-.35,2.4-.54.6-.16,1.14-.34,1.65-.52.25-.1.49-.2.72-.3,1.06-.48,1.95-1.06,2.73-1.81.52-.5.99-1.08,1.43-1.75.14-.22.28-.45.43-.7.06-.12.13-.25.21-.38.14-.26.27-.53.41-.81.13-.28.26-.57.4-.88.13-.3.26-.62.39-.95s.26-.68.4-1.04c.19-.53.39-1.1.6-1.7.19-.6.4-1.24.62-1.92.42-1.35.87-2.84,1.36-4.5,3.38-11.36,6.85-22.7,10.38-34.03,1.17-3.77,2.36-7.55,3.54-11.32,5.92-18.86,11.92-37.69,17.73-56.58,1.16-3.77,2.31-7.55,3.46-11.34,1.15-3.79,2.29-7.57,3.41-11.36,1.25-4.2,2.48-8.41,3.7-12.62.35-1.21.7-2.42,1.04-3.64,3.9-13.57,7.6-27.2,11.02-40.91.41-1.64.86-3.29,1.22-4.94.18-.83.35-1.66.47-2.49.01-.06.02-.11.02-.17.06-.39.11-.78.15-1.17.04-.38.07-.77.09-1.16.16-3.04-.09-5.72-.74-8.05Zm-223.13-61.7c-6.4,6.34-11.99,13.53-18.61,19.62-25.97,23.85-57.56,33.85-92.02,36.33-8.45.62-16.94.86-21.25.34-33.32-2.62-60.41-11.27-86.69-24.17-30.27-14.89-51.5-37.73-66.28-67.4-2.15-4.32-2.33-8.19-1.14-12.92,7.83-31.25,3.14-61.12-10.83-89.79-5.47-11.19-5.64-11.25,5.84-15.46,68.78-25.24,139.7-41.05,212.39-49.89,19.3-2.35,38.4-5.21,57.86-4.51,12.38.43,11.82.51,11.88,12.46.12,31.6,7.06,62,21.51,89.88,13.6,26.26,15.03,51.82,4.69,79.23-3.93,10.42-9.7,18.69-17.35,26.28Zm32.6-45.68c1.43.8,2.64,1.09,3.3,1.87,3.24,3.84,10.63,5.8,10.25,10.22-.37,4.21-7.83,4.03-12.08,5.92-6,2.66-6.72,6.22-2.33,11.11,3.32,3.68,6.4,7.57,10.22,12.15-9.44,1.59-17.93,3-27.87,4.65,4.53-7.81,8.99-14.31,11.33-22.05,2.37-7.77,5.05-15.5,7.18-23.87ZM105.23,234.51c2.25-14.05,5.79-27.81,12.11-40.47,3.28-6.62,10.97-9.2,17.61-12.1,41.84-18.31,85.51-30.93,130.01-40.65,46.75-10.22,93.88-17.81,141.88-18.49,4.5-.07,9.03.54,13.52.84,47.74,1.53,84.06,37.19,85.57,83.5.81,25.15-13.78,42.68-37.89,46.08-5.8.83-8.66-.26-8.14-6.62.19-2.23-.38-4.52-.34-6.78.14-8.35,2.22-9.64,9.54-5.59,3.1,1.73,6.42,4.1,8.76.08,2.73-4.69-.91-7.21-4.81-8.94-14.71-6.58-30.39-6.38-45.87-5.35-65.24,4.37-129.38,15.6-192.41,32.82-24.77,6.76-49.33,14.61-72.69,25.52-5.9,2.76-9.28,2.03-13.24-3.38-10.33-14.11-23.45-25.24-39.47-32.58-3.86-1.77-4.77-3.95-4.14-7.89Zm-13.69,224.13c3.06-12.9,3.06-12.96,15.58-12.96,23.64,0,41.66-10.45,55.2-29.4,1.79-2.52,3.44-5.14,5.17-7.71.1-.14.46-.12,1.49-.34,8.19,16.94,19.44,31.97,33.53,44.79,1.83,1.65,1.89,3.22.22,5.05-12.16,13.29-24.43,26.49-42.06,35.36.04-9.41.28-17.26.02-25.09-.1-2.98-.58-6.46-4.47-7.35-3.34-.76-5.05,1.63-7.04,3.69-7.91,8.27-15.84,16.52-27.39,24.27.68-10.11,1.69-18.14,1.63-26.15-.12-12.61-2.9-14.14-14.21-9.09-5.61,2.51-11.11,5.43-17.67,4.93Zm97.75,263.35c-30.63-6.48-56.47-21.13-76.72-45.18-39.62-47.09-41.17-100.04-23.59-155.72,4.92-15.66,12.52-30.15,22.46-45.06,1.92,7.06.23,12.61-.46,18.15-.4,3.1-1.23,6.48,1.77,8.57,3.16,2.18,5.84-.18,8.5-1.79,10.36-6.24,19.82-13.66,29.72-23.95-.58,8.94-1.01,15.6-1.47,22.24-.22,3.16-.48,6.36,2.92,8.17,2.9,1.55,5.41.26,7.93-1.21,18.01-10.38,34.67-22.48,47.81-38.76,3.67-4.55,6.1-4.1,10.91-1.18,52.53,31.99,108.47,45.54,169.43,29.54,24.55-6.44,46.23-18.23,64.34-36.11,4.33-4.28,6.8-4.2,10.26.89,6.32,9.36,12.88,18.43,16.75,29.28,2.23,6.22.78,7.29-5.37,7.57-27.68,1.19-55.33,3.08-83.02,4.29-6.72.3-10.12,2.83-12.07,9.25-6.5,21.37-13.63,42.53-20.11,63.9-1.77,5.83-4.2,8.11-10.77,9.03-36.1,5.02-72.12,10.77-108.09,16.73-6.54,1.09-10.14-.26-12.27-6.48-1.17-3.46-3.06-6.66-4.65-9.98-1.05-2.18-2.56-4.09-5.19-3.32-3.32.98-3,3.84-2.2,6.32,2.84,8.91,6.34,17.54,11.31,25.51,4.03,6.46,8.03,12.92,12.72,20.49-2.65.34-4.3.6-5.95.74-23.07,2.08-30.8,9.97-32.14,33.27-1.15,19.84,6.23,36.45,19.72,50.62,2.07,2.19,4.22,4.3,7.5,7.64-14.53.42-27.3-.78-39.98-3.46Zm52.82-38.78c.22,4,3.49,4.25,6.53,4.52.06,0,.12.01.19.02.28.02.55.05.82.08.09.01.18.02.27.03.27.04.56.08.81-.01.02,0,.03-.01.04-.01,15.09-6.22,21.85,3.7,28.68,14.37,5.19,8.09,11.23,15.62,16.94,23.46-4.97,3.2-13.32,4.17-21.75,4.49-42.29,1.69-74.61-40.53-59.65-77.66,1.34-3.32,2.73-6.1,6.6-6.96,18.27-4.01,36.38-5.42,53.63,3.94,8.98,4.87,9.66,9.98,2.07,16.97-7.66,7.08-16.38,12.05-27.33,11.71-3.68-.1-8.17-.42-7.85,5.05Zm43.31-58.5c-1.69,4.83-11.33,3.66-17.49,5.03-15.99,3.52-16.05,3.36-25.07-10.63-1.97-3.04-3.72-6.22-6.3-10.6,11.23-1.49,21.31-2.56,31.27-4.29,4.53-.78,6.08,1.91,7.85,4.75,3.38,5.47,11.37,11.03,9.74,15.74Zm-1.1-22.66s.04-.01.06-.01c2.55-.35,5.02-.69,7.42-1.03,1.45-.2,2.87-.4,4.28-.59,4.91-.69,9.61-1.34,14.3-2.02,2.21-.34,3.86.35,5.15,2.1,3.62,4.92,7.22,9.86,11.23,15.32.18.24.35.48.53.72.83,1.13.18,2.74-1.21,2.97-.27.05-.54.09-.81.14-2.27.38-4.48.75-6.65,1.11-1.74.29-3.46.57-5.15.86-2.11.35-4.19.7-6.26,1.05-1.93.33-3.85.66-5.77.99-2.51.42-4.34-.42-5.85-2.43-.97-1.28-1.94-2.55-2.93-3.83-2.51-3.27-5.1-6.62-7.94-10.29-.51-.67-1.04-1.35-1.57-2.04-.88-1.13-.22-2.78,1.17-3.02Zm-9.95,34.81c3.33-.42,5-.62,6.67-.86,12.69-1.69,20.06,2.57,25.37,14.43.85,1.87,1.15,3.72-1.06,3.84-5.05.26-11.35,6.86-14.43-3.82-1.89-6.58-10.09-8.29-16.55-13.59Zm19.61,27.61c2.47-.56,5.01-.8,7.52-1.16,12.98-1.81,20.27,2.45,24.92,14.57.3.76.32,1.61.46,2.37-2.07,6.58-3.94,13.08-6.18,19.48-1.21,3.48-3.48,2.08-5.17.32-8.33-8.81-16.72-17.58-24.79-26.6-3.95-4.43-2.36-7.69,3.24-8.98Zm31.85-3.46c-.14-2.81,2.88-1.65,3.75-2.49,2.65-.14,3.9.64,3.12,2.83-.55,1.62-.06,4.47-2.78,4.19-2.32-.22-3.97-2.35-4.09-4.53Zm5.74-11.89c-14.87,2.92-15.3,2.66-26.22-16.32,9.72-1.61,18.59-3.04,27.41-4.55,2.85-.5,4.93.38,6.5,2.76,3.34,5.13-1.63,16.92-7.69,18.11Zm7.41-34.62c-2.29-2.25-4.58-4.5-6.88-6.73-2.3-2.24-4.61-4.48-6.91-6.71-1.08-1.04-1.21-2.71-.31-3.91.01,0,.02-.03.03-.04s.02-.02.02-.03c.02-.02.04-.05.06-.07.49-.58,1.17-.96,1.92-1.05,7.09-.88,14.19-1.71,21.26-2.67,3.46-.46,5.58-.26,3.93,4.23-1.83,5.01-3.02,10.28-4.85,15.31-1.71,4.69-4.63,5.24-8.27,1.67Zm-133.05,273.84c-6.02-16.34-4.21-31.67,7.65-45.12,1.93-2.19,3.7-4.38,6.48-.52,11.85,16.56,24.19,32.7,37.29,48.28,12.9,15.33,26.44,30.01,42.02,44.35-36.63,9.38-81.06-13.48-93.44-46.99Zm190.58,16.75c7.63,5.83,16.67,9.94,22.74,17.57,9.48,11.93,18.7,24.08,27.55,36.48,6,8.43,7.59,17.77,4.85,28.2-2.77,10.64-9.72,16.82-19.48,18.71-23.54,4.55-47.15,3.69-70.37-2.69-8.44-2.32-16.75-5.16-25.1-7.83-7.34-2.3-14.19-5.52-20.26-10.39-10.63-8.55-11.36-10-10.49-25.29.1-8.78,3.18-16.67,12.54-23.25,21.95-15.39,46.53-24.11,71.62-32.1,2.22-.7,4.31-1,6.4.59Zm-42.52-143.43c3.06-2.14,5.47,1.67,7.4,3.84,4.19,4.65,6.79,10.37,9.62,15.92,1.09,2.17,2.14,4.33,3.16,6.54.49,1.07.97,2.17,1.45,3.24.79,1.83,1.57,3.66,2.3,5.53.34.79.64,1.59.94,2.38.3.72.57,1.43.83,2.17.44,1.13.86,2.26,1.25,3.4.3.83.6,1.67.88,2.5.42,1.21.83,2.45,1.23,3.68.1.24.18.49.26.75.22.66.44,1.32.64,1.99.49,1.51.97,3.02,1.41,4.53.81,2.67,1.59,5.35,2.34,8.07.54,1.91,1.06,3.84,1.57,5.79.06.2.1.39.16.59,0,0,0,.04.02.1.02.06.04.14.04.2.16,1.07.42,4.63-3.04,6.08-3.66,1.53-5.13-2.52-5.41-3.42-.02-.09-.04-.15-.04-.15-2.28-9.37-5-18.61-8.13-27.77-.43-1.31-.89-2.61-1.35-3.92-4.27-12.04-9.64-23.51-16.08-34.54-1.31-2.23-4.15-5.61-1.45-7.5Zm263.85-60.9c-1.36,4.33-3.22,6.18-8.07,6.72-91.3,10.35-183.15,13.97-274.6,22.32-3.1.28-6.18.6-10,.95-2.8-.35-5.64-2.24-8.27-4.37-14.41-11.61-26.87-25.06-37.68-40.03-1.83-2.54-5.13-5.47-.4-8.45,4.89-3.1,5.7,1.71,7.37,4.14,8.07,11.8,18.39,21.46,29.34,30.41,7.43,6.08,10.12,4.81,13.2-5.33,16.24-53.59,32.44-107.17,48.6-160.8,3.02-10.02,6.12-20.02,8.6-30.17,1.16-4.79,3.4-6.19,8.15-6.4,70.39-3.11,140.75-6.37,211.11-9.63,20.62-.95,41.25-2.08,61.88-2.96,7.18-.31,11.29,5.51,9.34,12.59-17.55,64.26-38.52,127.48-58.57,191.01Z"/><path id="Shirt" class="cls-5" d="m474.49,497.44c-27.69,1.19-55.34,3.08-83.03,4.29-6.72.3-10.12,2.82-12.07,9.24-6.5,21.37-13.64,42.54-20.12,63.9-1.77,5.82-4.19,8.11-10.77,9.02-36.1,5.03-72.11,10.77-108.09,16.74-6.54,1.09-10.14-.26-12.26-6.48-1.17-3.46-3.06-6.66-4.65-9.98-1.05-2.19-2.56-4.09-5.19-3.32-3.32.97-3,3.84-2.21,6.32,2.84,8.9,6.34,17.53,11.31,25.5,4.04,6.46,8.03,12.92,12.72,20.49-2.64.34-4.29.6-5.94.74-23.08,2.09-30.81,9.98-32.14,33.27-1.15,19.84,6.22,36.45,19.72,50.63,2.07,2.19,4.21,4.29,7.49,7.63-14.53.42-27.29-.78-39.97-3.46-30.63-6.48-56.47-21.13-76.72-45.18-39.61-47.09-41.16-100.04-23.59-155.71,4.93-15.66,12.52-30.15,22.46-45.06,1.93,7.06.24,12.6-.46,18.15-.4,3.1-1.23,6.48,1.77,8.57,3.16,2.19,5.84-.18,8.51-1.79,10.36-6.24,19.82-13.66,29.72-23.95-.58,8.94-1.01,15.6-1.47,22.24-.22,3.16-.48,6.36,2.92,8.17,2.9,1.55,5.41.26,7.93-1.21,18.01-10.38,34.67-22.48,47.8-38.76,3.68-4.55,6.1-4.09,10.91-1.17,52.53,31.98,108.47,45.54,169.43,29.54,24.55-6.44,46.23-18.23,64.34-36.12,4.33-4.27,6.8-4.19,10.26.89,6.32,9.36,12.88,18.43,16.76,29.28,2.23,6.22.78,7.29-5.37,7.57Z"/><path id="Pants" class="cls-5" d="m386.45,838.96c-3.66,1.53-5.13-2.52-5.41-3.42-.02-.1-.04-.16-.04-.16-2.29-9.36-5.01-18.6-8.13-27.77-.44-1.31-.89-2.6-1.35-3.92-4.27-12.05-9.64-23.51-16.08-34.55-1.31-2.23-4.15-5.61-1.45-7.49,3.06-2.15,5.47,1.67,7.39,3.84,4.19,4.65,6.8,10.38,9.62,15.92,1.09,2.17,2.15,4.33,3.16,6.54.5,1.07.97,2.17,1.45,3.24.8,1.83,1.57,3.66,2.31,5.53.34.79.64,1.59.93,2.39.3.72.58,1.43.83,2.17.44,1.13.85,2.27,1.25,3.4.3.83.6,1.67.87,2.5.42,1.21.83,2.44,1.23,3.68.1.24.18.5.26.76.22.66.44,1.31.64,1.99.5,1.51.97,3.02,1.41,4.53.81,2.66,1.59,5.35,2.35,8.07.54,1.91,1.05,3.84,1.57,5.78.06.2.1.4.16.6,0,0,0,.04.02.1.02.06.04.14.04.2.16,1.07.42,4.63-3.04,6.08Z"/><path id="Hand" class="cls-5" d="m296.39,725.67c-4.97,3.2-13.32,4.17-21.75,4.49-42.29,1.69-74.61-40.53-59.65-77.66,1.34-3.32,2.73-6.1,6.6-6.96,18.27-4.01,36.38-5.42,53.63,3.94,8.98,4.87,9.66,9.98,2.07,16.97-7.66,7.08-16.38,12.05-27.33,11.71-3.68-.1-8.17-.42-7.85,5.05.22,4,3.49,4.25,6.53,4.52.06,0,.12.01.19.02.28.02.55.05.82.08.09.01.18.02.27.03.27.04.56.08.81-.01.02,0,.03-.01.04-.01,15.09-6.22,21.85,3.7,28.68,14.37,5.19,8.09,11.23,15.62,16.94,23.46Z"/><g id="Hair"><path id="left" class="cls-6" d="m202.73,458.07c-12.16,13.3-24.43,26.5-42.06,35.36.04-9.4.28-17.25.02-25.08-.1-2.98-.58-6.46-4.47-7.35-3.34-.76-5.05,1.63-7.04,3.7-7.91,8.27-15.84,16.52-27.39,24.27.68-10.12,1.69-18.15,1.63-26.16-.12-12.6-2.9-14.13-14.21-9.08-5.61,2.5-11.11,5.43-17.67,4.93,3.06-12.9,3.06-12.96,15.58-12.96,23.63,0,41.66-10.46,55.2-29.4,1.79-2.52,3.44-5.15,5.17-7.71.1-.14.46-.12,1.49-.34,8.19,16.93,19.44,31.96,33.53,44.78,1.83,1.65,1.89,3.22.22,5.05Z"/><path id="righ" class="cls-8" d="m492.53,420.1c3.32,3.68,6.4,7.57,10.22,12.14-9.44,1.59-17.93,3-27.87,4.65,4.53-7.81,8.98-14.31,11.33-22.04,2.37-7.77,5.05-15.5,7.18-23.87,1.43.79,2.64,1.09,3.3,1.87,3.24,3.84,10.63,5.8,10.26,10.22-.38,4.21-7.83,4.04-12.09,5.92-6,2.66-6.72,6.22-2.33,11.11Z"/></g><path id="Headphones" class="cls-5" d="m136.78,374.84c-.24,3.68-.34,7.35-.78,11.01-.4,3.22-1.41,6.48-5.57,5.96-3.92-.5-3.58-3.92-3.4-6.68.76-11.29,1.79-22.6-.2-33.85-5.45-30.85-20.81-55.75-45.58-74.88-1.47-1.15-4.33-1.59-3.54-4.04.97-3,3.88-1.87,5.78-1.17,2.88,1.05,5.88,2.33,8.21,4.25,31.07,25.82,47.07,58.56,45.06,99.38Z"/><g id="Shoes"><path class="cls-6" d="m299.37,935.33c-36.63,9.38-81.06-13.48-93.44-46.99-6.02-16.34-4.21-31.66,7.65-45.12,1.93-2.19,3.7-4.37,6.48-.52,11.85,16.56,24.19,32.7,37.29,48.28,12.9,15.33,26.44,30.01,42.02,44.35Z"/><path class="cls-9" d="m430.62,979.65c-3.9,2.17-10.23,3.33-17.84,3.68-5.01.23-10.58.11-16.38-.31-21.57-2.8-39.07-5-55.03-13.57-1.28-.69-2.57-1.38-3.76-2.19-4.2-3.2-5.78-6.68-3.44-10.23,4.57,2.12,9.29,4.12,14.11,5.95,12.18,4.64,25.04,8.21,37.97,10.05,8.63,1.23,17.29,1.68,25.81,1.16,4.93-.29,9.81-.92,14.61-1.91h.01c2.5-.52,4.97-1.13,7.41-1.85,1.82,4.12.32,7.14-3.47,9.22Z"/><path class="cls-6" d="m446.8,959.14c-8.85-12.4-18.07-24.55-27.55-36.48-6.07-7.63-15.11-11.74-22.74-17.57-2.09-1.59-4.18-1.29-6.4-.59-25.09,7.99-49.67,16.71-71.62,32.1-9.36,6.58-12.44,14.47-12.54,23.25-.87,15.29-.14,16.74,10.49,25.29,6.07,4.87,12.92,8.09,20.26,10.39,8.35,2.67,16.66,5.51,25.1,7.83,23.22,6.38,46.83,7.24,70.37,2.69,9.76-1.89,16.71-8.07,19.48-18.71,2.74-10.43,1.15-19.77-4.85-28.2Zm-16.18,20.51c-3.9,2.17-10.23,3.33-17.84,3.68-5.01.23-10.58.11-16.38-.31-22.52-1.66-48.51-7.89-58.79-15.76-4.2-3.2-5.78-6.68-3.44-10.23,4.57,2.12,9.29,4.12,14.11,5.95,12.18,4.64,25.04,8.21,37.97,10.05,8.63,1.23,17.29,1.68,25.81,1.16,4.93-.29,9.81-.92,14.61-1.91h.01c2.5-.52,4.97-1.13,7.41-1.85,1.82,4.12.32,7.14-3.47,9.22Z"/></g><g id="Laptop-2"><path class="cls-5" d="m667.07,497.16c-20.63.87-41.26,2.01-61.88,2.96-70.36,3.26-140.73,6.52-211.11,9.62-4.75.22-7,1.61-8.15,6.4-2.48,10.16-5.59,20.16-8.61,30.17-16.16,53.63-32.36,107.22-48.6,160.8-3.08,10.14-5.76,11.41-13.2,5.33-10.95-8.94-21.27-18.6-29.34-30.41-1.67-2.43-2.48-7.24-7.37-4.13-4.73,2.98-1.43,5.9.4,8.45,10.81,14.97,23.28,28.42,37.69,40.03,2.62,2.13,5.47,4.02,8.27,4.37,3.82-.36,6.9-.68,10-.95,91.45-8.35,183.3-11.97,274.6-22.32,4.85-.54,6.72-2.39,8.07-6.72,20.06-63.53,41.03-126.75,58.58-191.02,1.95-7.08-2.17-12.9-9.34-12.58Zm-270.6,43.33c-16.88,57.76-33.95,115.46-51.06,173.17-.85,2.88-1.77,6.54-6,5.74-3.18-.6-3.28-3.42-2.96-6.5,2.41-8.03,4.89-16.42,7.45-24.81,15.17-49.71,30.31-99.44,45.68-149.12,1.09-3.54.91-10.49,6.56-8.86,5.11,1.49,1.33,7.02.34,10.38Zm177.98,50.84c-1.29,4.27-2.84,6.76-8.27,5.84-7.59-1.25-14.55,1.91-20.71,6-6.32,4.21-9.7,10.77-8.41,18.27,1.39,8.17,8.09,11.77,15.46,13.93,5.31,1.53,12.7-.28,13.16,8.69.48,9.08-6.08,20.27-14.13,22-7.41,1.57-12.56,4.81-16.72,11.43-5.05,8.03-13.44,4.95-19.88,2.19-5.45-2.33-9.78-2.78-15.25-.74-7.55,2.82-14.63,2.35-18.33-6.54-1.41-3.42-4.37-3.7-7.53-4.37-12.58-2.72-18.76-11.27-17.19-21.27,1.35-7.06,1.07-12.36-1.77-17.23-4.33-7.49-3.36-14.65,1.19-21.55,2.88-4.35,4.69-8.11,2.29-13.91-3.22-7.77,2.7-18.72,10.83-21.19,6.12-1.83,9.28-5.21,11.19-11.23,3.02-9.54,20.53-17.43,31.41-14.19,4.27,1.25,7.81,1.35,12.09.04,10.89-3.34,21.37.66,27.77,10.87,3.02,4.81,6.48,7.91,11.75,10.08,9.42,3.84,13.79,13.89,11.05,22.88Zm81.38-77.88c-19.5.83-38.98,1.69-58.48,2.41-61.02,2.25-122.06,4.43-183.1,6.62-1.69.06-3.38.02-5.57.02-2.72-.99-8.45,1.69-8.73-3.14-.28-4.85,5.31-3.78,8.71-3.92,81.63-3.36,163.29-6.64,244.92-9.94.56-.02,1.13-.1,1.69-.1,3.32-.06,7.77-1.05,8.07,3.66.34,4.89-4.21,4.25-7.51,4.39Z"/><path class="cls-5" d="m285.42,624.71c-1.69,4.83-11.33,3.66-17.49,5.03-15.98,3.52-16.04,3.36-25.06-10.63-1.97-3.04-3.72-6.22-6.3-10.59,11.23-1.49,21.31-2.56,31.27-4.29,4.53-.78,6.08,1.91,7.85,4.75,3.38,5.47,11.37,11.03,9.74,15.74Z"/><path class="cls-5" d="m326.88,680.25c-2.07,6.58-3.94,13.08-6.18,19.48-1.21,3.48-3.48,2.09-5.17.32-8.33-8.81-16.72-17.57-24.79-26.6-3.96-4.43-2.37-7.69,3.24-8.98,2.46-.56,5.01-.79,7.51-1.15,12.98-1.81,20.27,2.44,24.93,14.57.3.76.32,1.61.46,2.37Z"/><path class="cls-5" d="m326.08,619.51c-.27.05-.54.09-.81.14-2.27.38-4.48.75-6.65,1.11-1.74.29-3.46.57-5.15.86-2.11.35-4.19.7-6.26,1.05-1.93.33-3.85.66-5.77.99-2.51.42-4.34-.42-5.85-2.43-.97-1.28-1.94-2.55-2.93-3.83-2.51-3.27-5.1-6.62-7.94-10.29-.51-.67-1.04-1.35-1.57-2.04-.88-1.13-.22-2.78,1.17-3.02.02,0,.04-.01.06-.01,2.55-.35,5.02-.69,7.42-1.03,1.45-.2,2.87-.4,4.28-.59,4.91-.69,9.61-1.34,14.3-2.02,2.21-.34,3.86.35,5.15,2.1,3.62,4.92,7.22,9.86,11.23,15.32.18.24.35.48.53.72.83,1.13.18,2.74-1.21,2.97Z"/><path class="cls-5" d="m331.57,649.12c-14.87,2.92-15.31,2.66-26.22-16.32,9.72-1.61,18.58-3.04,27.41-4.55,2.84-.5,4.93.38,6.5,2.76,3.34,5.13-1.63,16.92-7.69,18.11Z"/><path class="cls-5" d="m352.1,597.52c-1.83,5.01-3.02,10.28-4.85,15.31-1.71,4.69-4.63,5.24-8.27,1.67-2.29-2.25-4.58-4.5-6.88-6.73-2.3-2.24-4.61-4.48-6.91-6.71-1.08-1.04-1.21-2.71-.31-3.91.01,0,.02-.03.03-.04s.02-.02.02-.03c.02-.02.04-.05.06-.07.49-.58,1.17-.96,1.92-1.05,7.09-.88,14.19-1.71,21.26-2.67,3.46-.46,5.58-.26,3.93,4.23Z"/><path class="cls-5" d="m305.36,654.27c-5.05.26-11.35,6.86-14.43-3.82-1.89-6.58-10.1-8.29-16.56-13.6,3.34-.42,5.01-.62,6.68-.85,12.68-1.69,20.06,2.56,25.36,14.43.85,1.87,1.15,3.72-1.05,3.84Z"/><path class="cls-5" d="m332.71,661.35c-.56,1.63-.06,4.47-2.78,4.19-2.33-.22-3.98-2.35-4.09-4.53-.14-2.8,2.88-1.65,3.76-2.48,2.64-.14,3.9.64,3.12,2.82Z"/><path class="cls-14" d="m655.27,505.41c-.57,0-1.13.08-1.69.1-81.64,3.3-163.28,6.58-244.91,9.94-3.41.14-8.98-.93-8.7,3.93.28,4.82,6,2.13,8.71,3.14,2.19,0,3.89.04,5.58-.02,61.03-2.2,122.06-4.38,183.09-6.62,19.5-.72,38.99-1.58,58.48-2.41,3.29-.14,7.84.49,7.52-4.39-.31-4.71-4.76-3.72-8.08-3.66Z"/><path class="cls-14" d="m396.13,530.12c-5.64-1.63-5.47,5.31-6.56,8.86-15.37,49.66-30.5,99.4-45.68,149.12-2.56,8.38-5.03,16.78-7.44,24.8-.33,3.08-.23,5.9,2.96,6.5,4.22.79,5.14-2.86,5.99-5.74,17.11-57.7,34.18-115.4,51.07-173.17.98-3.36,4.76-8.89-.35-10.37Z"/><path class="cls-5" d="m562.39,577.35c-1.03-.9-2.41-1.6-3.75-1.93-6.52-1.62-10.32-5.8-13.56-11.66-4.94-8.96-12.88-11.05-22.46-6.94-2.98,1.28-5.43,2.25-8.74.59-10.6-5.33-21.08-.73-26.22,10.41-2.71,5.85-6.41,11.09-13.82,12.53-6.99,1.35-9.08,7.12-7.1,12.99,2.29,6.78.9,12.08-3,17.42-4.08,5.57-4.59,11.08-.68,17.26,2.92,4.62,3.28,10.23,2.59,15.63-1.39,10.83,1.02,14.8,11.83,16.92,4.53.89,8.21,2.36,10.1,6.61,2.41,5.43,6.16,5.83,11.04,3.72,6.25-2.69,12.41-3.67,18.5.76,1.49,1.09,3.71,1.18,4.71,1.48,2.91.06,5.22.6,6.37-1.43,5.06-8.91,13.46-12.38,22.77-14.68,4.67-1.15,5.83-5.33,5.9-9.31.07-4.21-4.06-3.03-6.48-3.7-11.59-3.23-20.96-12.3-21.76-21.33-1.07-12.12,6.12-24.11,17.69-29.25,4.13-1.83,8.34-3.5,12.98-3.65,2.79-.09,5.43.12,6.56-3.72,1.24-4.18-.9-6.45-3.47-8.71Zm-74.75,71.62c-5.95-.19-14.76-9.43-13.86-14.78.87-5.23,4.75-7.54,9.63-7.67,5.54-.15,12.79,8.18,12.4,14.28-.81,4.14-2.23,8.35-8.16,8.16Zm12.32-44.68c-.33,6.34-2.54,10.59-10.14,10.24-7.54-.35-10.54-4.05-10.12-11.27.21-3.62-.1-7.28.26-10.88.63-6.23,7.19-9.64,11.54-5.55,4.79,4.51,9.54,9.71,8.46,17.46Zm29.47,40.45c-.41,5.29-7.75,11.14-13.31,10.61-5.09-.49-7.68-5.46-6.89-13.86,1.51-4.9,3.81-9.67,10.5-9.56,5.14.09,10.16,6.91,9.71,12.8Zm-8.41-52.17c-7.01-.44-12.06-5.26-11.5-10.99.68-6.94,9.83-13.21,18.61-12.67,6.06.37,9.5,3.19,8.77,9.73-.54,8.68-7.15,14.47-15.88,13.93Z"/><path class="cls-10" d="m528.13,568.91c-8.78-.54-17.93,5.73-18.61,12.67-.56,5.73,4.48,10.55,11.5,10.99,8.73.54,15.34-5.25,15.88-13.93.73-6.54-2.71-9.36-8.77-9.73Z"/><path class="cls-10" d="m491.5,586.83c-4.35-4.1-10.91-.68-11.54,5.55-.37,3.6-.06,7.26-.26,10.88-.41,7.22,2.58,10.92,10.12,11.27,7.6.35,9.82-3.9,10.14-10.24,1.08-7.74-3.67-12.95-8.46-17.46Z"/><path class="cls-13" d="m519.72,631.93c-6.69-.12-8.99,4.66-10.5,9.56-.78,8.39,1.8,13.37,6.89,13.86,5.56.54,12.9-5.32,13.31-10.61.45-5.89-4.57-12.71-9.71-12.8Z"/><path class="cls-13" d="m483.4,626.52c-4.88.13-8.76,2.43-9.63,7.67-.89,5.35,7.91,14.6,13.86,14.78,5.93.19,7.35-4.02,8.16-8.16.39-6.1-6.86-14.43-12.4-14.28Z"/><path class="cls-11" d="m563.39,568.45c-5.27-2.15-8.73-5.26-11.74-10.07-6.4-10.21-16.88-14.22-27.77-10.88-4.28,1.31-7.81,1.22-12.09-.05-10.88-3.23-28.39,4.66-31.41,14.21-1.91,6.02-5.07,9.39-11.18,11.23-8.14,2.46-14.06,13.42-10.84,21.17,2.41,5.82.61,9.57-2.27,13.92-4.56,6.89-5.53,14.05-1.19,21.54,2.82,4.87,3.12,10.18,1.76,17.24-1.56,9.99,4.61,18.54,17.19,21.26,3.15.68,6.11.95,7.54,4.39,3.69,8.88,10.77,9.36,18.33,6.53,5.46-2.05,9.79-1.59,15.23.74,6.45,2.76,14.83,5.85,19.88-2.18,4.17-6.63,9.3-9.85,16.72-11.44,8.05-1.72,14.61-12.91,14.14-22-.46-8.96-7.86-7.15-13.16-8.69-7.38-2.15-14.07-5.75-15.47-13.92-1.29-7.5,2.09-14.06,8.41-18.27,6.16-4.11,13.13-7.26,20.72-6,5.42.9,6.96-1.57,8.26-5.85,2.73-8.98-1.62-19.04-11.05-22.89Zm2.46,17.61c-1.14,3.84-3.78,3.64-6.56,3.72-4.64.15-8.85,1.82-12.98,3.65-11.57,5.13-18.76,17.13-17.69,29.25.8,9.03,10.17,18.1,21.76,21.33,2.42.67,6.56-.5,6.48,3.7-.07,3.98-1.23,8.16-5.9,9.31-9.31,2.3-17.72,5.77-22.77,14.68-1.15,2.03-3.46,1.49-6.37,1.43-1-.29-3.22-.39-4.71-1.48-6.09-4.43-12.25-3.46-18.5-.76-4.88,2.11-8.64,1.71-11.04-3.72-1.89-4.25-5.57-5.72-10.1-6.61-10.81-2.12-13.22-6.09-11.83-16.92.69-5.41.34-11.01-2.59-15.63-3.91-6.18-3.4-11.69.68-17.26,3.91-5.33,5.29-10.63,3-17.42-1.98-5.86.11-11.64,7.1-12.99,7.41-1.43,11.11-6.67,13.82-12.53,5.15-11.14,15.62-15.73,26.22-10.41,3.31,1.66,5.77.69,8.74-.59,9.58-4.11,17.52-2.02,22.46,6.94,3.24,5.86,7.03,10.04,13.56,11.66,1.34.33,2.72,1.03,3.75,1.93,2.57,2.26,4.7,4.53,3.47,8.71Z"/></g><g id="Face"><path class="cls-5" d="m473.45,331.15c-14.45-27.88-21.39-58.28-21.51-89.88-.06-11.95.5-12.03-11.88-12.46-19.46-.7-38.56,2.16-57.86,4.51-72.69,8.84-143.61,24.65-212.39,49.89-11.48,4.21-11.31,4.27-5.84,15.46,13.97,28.67,18.66,58.54,10.83,89.79-1.19,4.73-1.01,8.6,1.14,12.92,14.78,29.67,36.01,52.51,66.28,67.4,26.28,12.9,53.37,21.55,86.69,24.17,4.31.52,12.8.28,21.25-.34,34.46-2.48,66.05-12.48,92.02-36.33,6.62-6.09,12.21-13.28,18.61-19.62,7.65-7.59,13.42-15.86,17.35-26.28,10.34-27.41,8.91-52.97-4.69-79.23Z"/><path class="cls-11" d="m423.11,369.16c-12.25-3.3-23.99,1.21-34.9,6.08-21.96,9.52-45.15,8.5-67.09-1.95-12.1-6.09-24.9-10.46-38.11-13.39-12.64-3.66-26.99.28-35.25,10.62-7.15,8.37-7.07,21.03-1.45,30.57,6.21,10.06,16.61,16.05,27.16,20.7,17.57,7.97,32.23,12.93,48.97,13.39,22.7,2.41,45.27,1.89,64.6-1.64,15.37-2.25,31.43-8.55,40.66-21.56,5.03-7.12,9.25-15.77,9.26-24.51.06-8.35-5.19-16.15-13.64-18.26l-.2-.06Zm-139.29,10.26c-2.46,7.15-4.79,14.53-7.01,21.83-1.23,3.34-1.7,8.08-4.54,9.09-3.23.62-6.33-2.35-9.02-4.08-6.56-4.86-12.45-12.43-12.32-20.82.62-13.64,12.73-20.94,25.63-18.53,9.05,1.44,10.74,2.9,7.33,12.33l-.07.2Zm33.95,9.14c-2.11,6.9-3.96,14.01-4.55,21.26-.52,4.01.06,10.17-2.55,12.58-2.29,2-6.71.97-9.62.57-9.6-1.41-17.42-4.69-16.8-14.34.3-8.48,3.77-17.57,6.04-25.27,2.09-7.96,5.41-11.39,13.93-7.72,3.05,1.24,6.05,2.61,8.98,4.11,3.52,1.62,5.88,4.82,4.62,8.64l-.04.18Zm31.35,35.44c-1.19,3.4-4.56,3.68-8.15,3.29-4.17-.41-8.33-.89-12.51-1.41-7.92-.75-7.45-5.36-6.16-12.2.9-5.47,1.35-11.02,2.44-16.51,1.45-7.1,3.63-8.9,10.46-8.25,4.94.83,11.79.78,15.1,4.94,2.45,3.52,1.92,9.27,1.42,13.68-.95,5.41-1.29,10.96-2.54,16.28l-.06.17Zm21.33,3.21c-15.74,2.35-11.65-6.81-10.67-17.42.32-2.79.33-5.47-.07-8.17-.3-2.68-1.09-5.99.53-8.31,1.57-2.21,5.29-2.48,8.75-3.01,4.78-.34,11.95-3.49,16.03-1.78,2.15,1.2,3.08,3.89,4.24,6.84,1.19,3.31,2.31,6.88,3.3,10.42,3.53,11.89,2.7,17.84-10.54,19.82-3.74.7-7.71,1.18-11.39,1.6l-.19.02Zm47.2-16.73c-1.64,1.71-3.46,3.18-5.34,4.6-4.36,3.35-8.27,6.47-9.05-.81-1.15-9.08-3.3-16.66-6.83-24.19-3.54-7.31-.24-9.76,6.76-11.32,5.16-1.25,10.38-2.93,15.39-1.99,3.88.79,7.74,3.15,9.14,6.37.93,2.32.46,4.74,0,7.19-1.51,6.93-5.16,14.96-9.94,20l-.14.14Z"/><path class="cls-11" d="m259.96,281.16c3.64.39,7.31.52,10.97.76,6.41.72,13.48.02,18.53,4.17.94.77-3.86,8.26-5.71,12.78-7.09,17.34,4.23,36.86,22.74,39.37,10.29,1.4,21.82-6,22.61-15.89.88-11.03-.2-22.29-8.6-30.79-16.78-16.97-37.95-20.85-60.72-19.35-2.52.17-4.38,1.53-4.57,4.13-.23,3.18,1.98,4.51,4.75,4.81Z"/><path class="cls-2" d="m399.06,318.42c7.27,4.09,13.63,1.2,19.43-3.5,14.19-11.5,12.92-31.82-2.93-41.15-5.82-3.43-5.87-5.83-.45-9.05,4.84-2.87,9.82-5.5,14.69-8.32,1.84-1.06,4.8-1.61,3.92-4.62-.87-2.98-3.57-3.21-6.25-2.82-1.12.16-2.23.37-3.32.64-19.08,4.86-37.39,27.26-38.46,47.03-.42,10.25,4.98,17.06,13.37,21.79Z"/><path class="cls-12" d="m364.76,458.29c-1.53,6.21-9.87,4.74-14.82,5.19-7.19.2-13.64.15-20.35-2.16-2.78-.97-5.97-2.03-7.92-4.26-2.14-2.39-1.02-5.8,2.24-6.31,3.52-.52,7.21.8,10.75,1.04,6.59.75,13.65.6,20.58.66,3.8-.03,9.97.7,9.54,5.68l-.02.16Z"/><path class="cls-3" d="m337.72,361.74c5.76,2.96,21.46,5.59,27.66,3.6,3.47-1.14,4.08-5.19.75-6.96-4.4-2.06-10.01-1.7-14.62-2.37-4.05-.03-13.12-2.27-15.36,1.7-.68,1.3-.06,2.9,1.42,3.92l.15.1Z"/><path class="cls-10" d="m354.62,329.78c1.91,1.32,3.85.93,5.4-.54,1.42-1.34,2.47-3.08,3.81-4.51,4.18-4.45,8.78-8.79,15.27-4.92,4.32,2.57,3.1,12.14-1.73,17.59-.93,1.05-2.09,1.88-3.12,2.85-2,1.88-4.72,3.35-1.78,6.82,2.65,3.13,5.11,2.83,8.04.77,6.92-4.86,10.38-11.67,11.35-19.05.68-11.31-6.06-20.11-15.25-20.82-9.52-.73-22.58,8.89-23.55,17.32-.21,1.8-.01,3.41,1.56,4.49Z"/><path class="cls-7" d="m398.85,380.1c-6.35,2.2-3.31,8.19-1.1,12.99,2.33,5.43,3.94,11.32,4.92,17.25,1.18,10.05,2.25,10.59,10.28,4.26,8.74-5.79,15.47-20.47,15.28-29.29-.29-3.76-3.31-6.11-6.78-7.66-7.27-2.84-15.3.42-22.42,2.38l-.18.07Z"/><path class="cls-7" d="m375.29,389.12c-2.99.7-5.9,1.11-8.91,1.56-4,.49-7.16,1.94-7.11,5.89-.07,2.2.43,4.44.62,6.63.78,6.33-1.83,13.37-1.14,19.76.79,5.58,7.19,4.65,11.78,4.24,3.73-.42,7.72-.91,11.5-1.61,11.87-2.2,14.12-5.79,11.13-17.56-1.09-4.25-2.47-8.67-3.9-12.68-.84-2.17-1.6-4.35-3.15-6.02-2.22-2.44-6.85-1.01-10.63-.25l-.2.04Z"/><path class="cls-7" d="m351.8,397.55c-1.16-7.73-10.51-7.66-16.6-8.62-6.83-.65-9.01,1.15-10.46,8.25-1.15,5.82-1.6,11.69-2.6,17.49-1.28,6.44-1.03,10.46,6.11,11.19,4.12.53,8.21.98,12.31,1.4,4.69.65,8.47-.19,9.12-5.55.76-7.95,3.23-15.92,2.14-23.96l-.04-.19Z"/><path class="cls-4" d="m315.95,381.52c-3.4-2.58-7.66-4.07-11.55-5.82-7.7-3.32-11.61-1.27-13.75,6.44-2.1,7.09-5.03,14.98-6.11,22.78-1.43,8.94,1.39,14.96,12,17.14,3.41.73,7.23,1.56,10.74,1.49,5.8-.05,5.33-6.54,5.69-10.68.35-5.86,1.27-11.58,2.75-17.24.97-4.71,4.57-10.41.35-14l-.14-.12Z"/><path class="cls-7" d="m276.46,366.88c-18.52-3.59-32.41,13.97-21.86,30.32,3.25,5.01,7.78,8.83,12.92,11.9,1.58.92,3.71,1.97,5.37.96,2.6-1.77,3.39-8,4.72-11.4,2.33-8.15,5.43-16.05,7.67-24.22,1.67-5.76-3.44-6.65-8.61-7.52l-.21-.03Z"/></g><g id="Beanie"><path id="fold" class="cls-5" d="m420.36,123.64c-4.49-.3-9.02-.91-13.52-.83-48,.68-95.13,8.27-141.88,18.49-44.5,9.72-88.17,22.34-130.01,40.65-6.64,2.9-14.33,5.49-17.61,12.1-6.32,12.66-9.86,26.42-12.1,40.47-.64,3.94.28,6.12,4.13,7.89,16.02,7.33,29.14,18.47,39.48,32.58,3.96,5.41,7.33,6.14,13.24,3.38,23.36-10.91,47.92-18.76,72.69-25.52,63.03-17.21,127.17-28.44,192.41-32.82,15.48-1.03,31.17-1.23,45.88,5.35,3.9,1.73,7.53,4.25,4.81,8.94-2.35,4.02-5.66,1.65-8.77-.08-7.31-4.05-9.4-2.76-9.54,5.59-.04,2.27.54,4.55.34,6.78-.52,6.36,2.35,7.45,8.15,6.62,24.11-3.4,38.7-20.93,37.89-46.07-1.51-46.31-37.83-81.97-85.57-83.5Z"/><path class="cls-6" d="m430.94,115.12c-7.01-.01-14.11-.58-21.15-.53-2.07-.14-5.17.28-6.31-1.65-1.71-7.26-5.99-15.68-17.78-32.87-5.04-7.34-9.47-13.47-14.88-20.86-.74-.95-1.92-2.9-1.3-3.54.37-.54,1.46-.59,2.9-.29,26.81,8.33,48.97,25.86,61.29,51.15,1.95,3.86,3.51,8.41-2.59,8.58h-.19Z"/><path class="cls-6" d="m396.33,113.64c-.73.86-2.62,1-3.94,1.06-10.42.36-20.88,1.03-31.25,2.02-8.36,1.3-7.45-4.46-9.95-10.5-2.32-6.54-5.29-13.73-7.8-19.03-5.48-11.64-12.23-22.78-17.68-34.45-2.02-5.75,6.11-4.93,9.69-4.86,16.14.35,28.41,7.97,36.51,21.93,7.38,11.43,16.9,27.79,23.51,39.7.7,1.2,1.7,3.24.96,4.06l-.06.08Z"/><path class="cls-6" d="m346.17,117.52c-.95,1.32-3.18,1.45-4.79,1.7-8.29,1.07-16.56,2.31-24.81,3.66-6.56,1.41-7.23-2.25-8.44-7.63-4.24-17.84-12.75-40.03-19.43-57.41-.46-1.57-.61-3.44.31-4.61.69-.97,1.86-1.57,3.36-2.04,3.11-.91,6.69-1.52,9.95-2.08,15.05-3.26,17.14,5.5,23.44,16.8,7.05,13.15,12.72,26.92,17.49,41.02.79,2.1,1.88,4.6,2.74,6.88.42,1.13.8,2.75.24,3.61l-.06.1Z"/><path class="cls-6" d="m300.66,124.55c-.77,1.12-2.41,1.64-3.83,1.93-9.45,1.8-19,3.69-28.48,5.67-4.2,1.03-6.89.42-7.45-4.34-2.71-15.14-6.06-35.49-8.18-50.53-.53-4.29-1.55-9.63,1.25-13.28,2.24-2.78,6.2-4.16,9.69-5.35,4.17-1.29,10.18-3.55,13.97-2.45,5.11,1.47,7.16,11.67,8.98,16.76,2.5,8.1,5.35,17.19,8.36,26.97,1.8,5.87,3.54,11.59,4.97,16.54.54,2.55,2.13,5.51.8,7.97l-.08.11Z"/><path class="cls-6" d="m253.42,135.16c-1.04,1.29-3.04,1.68-4.65,2.12-6.77,1.69-13.53,3.5-20.25,5.34-1.86.48-4.29,1.07-5.69-.46-.77-.81-1.17-2.32-1.41-3.55-2.67-13.99-3.78-33.56-3.25-47.62.26-10.62,3.83-14.84,13.51-18.99,2.28-1.1,4.55-2.23,6.81-3.37,2.73-1.26,5.39-3.2,7.22-2.11,1.18.9,1.18,2.88,1.26,4.34.13,6.48.55,12.82,1.18,19.04,1.17,12.11,3.22,22.96,5.02,35.08.19,3.19,1.91,7.17.34,10.07l-.08.11Z"/><path class="cls-6" d="m214.55,145.4c-.79,1.06-2.3,1.57-3.59,1.97-4.16,1.2-8.44,2.36-12.64,3.53-6.03,1.36-11.71,4.37-17.69,5.71-2.47.23-2.72-2.4-2.71-4.41-.07-11,2.05-25.47,3.2-36.11.35-6.11,1.74-11.7,6.65-15.79,5.77-5.49,12.55-9.79,19.92-14.83,1.06-.7,2.71-1.78,3.72-1.33,1.18.82.7,2.95.62,4.33-.89,7.18-1.71,13.44-1.95,19.91-.45,10.11,2.26,23.44,4.6,32.85.33,1.33.72,2.88-.05,4.06l-.07.1Z"/><path class="cls-6" d="m172.98,125.96c-1.39,7.11-1.69,15.69-1.97,23.22-.32,5.94,1.06,10.54-5.3,12.64-12.82,5.08-25.64,10.61-38.03,17.33-1.81.96-5.12,2.7-3.81-.72,6.08-16.58,29.6-48.56,47.31-63.56,5.55-3.9,2.24,8.27,1.84,10.91l-.03.18Z"/><path class="cls-13" d="m463.35,191.8c.33,2.13.63,4.41,2.14,5.7,1.78,1.54,4.98,1.16,6.23-.7,1.75-2.68,1.41-6.65,1.01-9.75-1.76-11.69-3.47-23.9-10.13-34.72-1.43-2.15-3.06-5.16-5.86-5.38-1.55-.1-3.03.98-3.32,2.45-.42,2.34,1.23,4.61,2.04,6.75,4.92,11.29,6.19,23.44,7.86,35.46l.03.2Z"/><path class="cls-12" d="m410.07,157.51c-1.7-2.68-3.51-5.38-5.54-7.87-.85-1-1.84-1.98-3.08-2.42-1.57-.61-3.68.04-4.2,1.72-.5,1.51.53,3.31,1.34,4.68,7.75,12.49,10.35,26.44,11.45,40.75.21,2.09.69,4.62,2.58,5.69,1.87,1.09,4.65.62,5.8-1.14,2.27-4.08.41-9.11.12-13.44-1.21-9.61-3.02-19.43-8.38-27.8l-.11-.17Z"/><path class="cls-13" d="m330.47,153.17c-2.16,1.37-1.03,4.42.13,6.29,9.29,15.25,14.22,32.15,17.43,49.55.46,2.59,2.03,5.68,5.02,5.2,4.44-.88,3.72-7.02,2.97-10.44-3.68-16.14-8.47-32.35-18.64-46.52-1.49-2.07-4.01-5.48-6.78-4.15l-.13.08Z"/><path class="cls-10" d="m275.3,165.59c-3.94-5.73-9.6-2.29-6.3,3.97,7.55,16.58,14.48,33.38,17.02,51.52.34,2.38,1.29,5.51,3.97,5.7,1.57.16,3.05-.89,3.72-2.55,1.72-4.53-.3-9.39-1.02-13.98-3.43-15.63-8.57-31.02-17.28-44.49l-.11-.16Z"/><path class="cls-12" d="m215.66,181.03c-1.27-4.27-7.32-5.48-6.88.21,4.43,18.09,10.49,35.78,15.61,53.68.94,3.09,2.21,7.59,6.14,7.43,1.7-.06,3.13-1.21,3.35-2.75.26-1.62-.44-3.41-.92-5.01-5.67-17.76-11.3-35.71-17.23-53.4l-.07-.17Z"/><path class="cls-10" d="m158.98,198.99c-1.53-5.56-8.64-6.33-7.99.54,5.41,17.2,8.04,35.34,15.6,51.84,2.2,3.74,5.69,13.88,10.78,13.06,1.56-.22,2.63-1.44,2.61-2.91,0-1.7-.98-3.46-1.64-5.08-7.98-18.55-12.78-38.25-19.3-57.28l-.07-.18Z"/></g></svg>