<?xml version="1.0" encoding="UTF-8"?><svg id="Submark" xmlns="http://www.w3.org/2000/svg" viewBox="0 0 804.68 781.45"><defs><style>.cls-1{stroke:#000;stroke-width:5px;}.cls-1,.cls-2{fill:#010101;}.cls-3,.cls-4,.cls-5,.cls-6,.cls-7,.cls-8,.cls-9,.cls-10,.cls-2,.cls-11,.cls-12{stroke-width:0px;}.cls-4{fill:#111;}.cls-5{fill:#fdfdfd;}.cls-6{fill:#fff;}.cls-7{fill:#fefefe;}.cls-8{fill:#fcfcfc;}.cls-9{fill:#f5f5f5;}.cls-10{fill:#040404;}.cls-11{fill:#060606;}.cls-12{fill:#050505;}</style></defs><path id="Lines" class="cls-1" d="m712.24,688.4v-.02c.28-.4.56-.76.85-1.05l.28-.28.02-.02c.37-.34.73-.59,1.1-.77.19-.09.37-.17.56-.23,1.39-.48,2.72-.11,3.94-.14.8-.02,1.61-.05,2.41-.08,1.3-.05,2.58-.11,3.86-.19,1.11-.06,2.24-.14,3.35-.22,1-.08,1.99-.15,2.99-.25,2.35-.2,4.71-.45,7.04-.74,1.44-.17,2.86-.34,4.28-.54,1.42-.19,2.82-.39,4.23-.6,3.33-.51,6.67-1.06,9.99-1.68,4.06-.74,8.09-1.56,12.1-2.41,1.74-.37,3.49-.76,5.22-1.14,1.73-.39,3.46-.77,5.19-1.17.39-.09.77-.19,1.14-.29.63-.17,1.23-.35,1.82-.56.46-.15.9-.31,1.33-.49,1.7-.68,3.13-1.5,4.31-2.42,5.88-4.65,5.23-11.96-1.91-19.06-.26-.28-.54-.54-.82-.8-.63-.59-1.27-1.16-1.88-1.74-.62-.59-1.23-1.19-1.85-1.79-1.2-1.2-2.38-2.44-3.43-3.78-.46-.6-.91-1.2-1.34-1.84-.42-.63-.82-1.3-1.19-1.98-.56-1.02-1.05-2.1-1.45-3.26h.02c6.05-3.4,12.32-6.28,17.98-9.99.8-.54,1.61-1.08,2.38-1.65.46-.34.93-.68,1.34-1,.42-.34.82-.68,1.2-1,.76-.68,1.44-1.33,2.02-1.99.39-.43.73-.88,1.05-1.31,2.61-3.64,2.47-7.11-.39-10.39-.19-.22-.39-.43-.6-.63-1.47-1.48-3.5-2.92-6.1-4.31-9.29-4.94-17.86-10.8-26.14-17.3-1.16-.91-2.22-1.85-3.19-2.82-.32-.31-.65-.65-.94-.99-1.33-1.45-2.42-2.98-3.29-4.61-.19-.32-.34-.66-.49-1-.31-.66-.59-1.36-.82-2.08v-.02c-.11-.35-.22-.71-.31-1.08-.05-.15-.09-.32-.12-.48-.02-.06-.03-.12-.03-.17-.11-.4-.19-.82-.25-1.23-.09-.51-.15-1.03-.2-1.57-.06-.54-.09-1.08-.09-1.65-.02-.76,0-1.53.05-2.31.23-3.64-.05-7.35-.59-11.03-.11-.71-.22-1.42-.34-2.13-.22-1.4-.48-2.82-.77-4.24-.14-.69-.28-1.37-.42-2.07-.15-.77-.26-1.47-.32-2.13-.08-1.36.09-2.52.56-3.56.11-.25.23-.49.37-.73.05-.06.08-.14.12-.2.14-.23.31-.45.49-.68.32-.42.73-.83,1.19-1.25.28-.26.6-.51.94-.77.17-.14.34-.26.52-.4,2.15-1.56,4.09-3.27,5.88-5.08.9-.91,1.74-1.85,2.56-2.81.82-.96,1.59-1.94,2.33-2.96.99-1.36,1.9-2.75,2.76-4.18.86-1.44,1.65-2.9,2.41-4.4,1.11-2.25,2.11-4.58,3.01-6.96.9-2.39,1.68-4.83,2.39-7.3.85-2.98,1.62-5.96,2.31-8.94.68-2.98,1.28-5.94,1.81-8.9.17-.99.34-1.98.49-2.96.31-1.96.57-3.94.82-5.91,1.91-15.76,1.56-31.38-.69-46.86v-.02c-.46-3.16-1.02-6.33-1.62-9.48v-.02c-.2-.99-.4-1.98-.6-2.96-.63-2.95-1.31-5.91-2.07-8.84-.6-2.36-1.25-4.72-1.93-7.07-.52-1.82-1.08-3.64-1.65-5.45-.42-1.31-.85-2.64-1.3-3.95-1.3-3.9-2.72-7.81-4.23-11.7-2.11-5.45-4.01-9.69.49-15.39,3.32-4.21,6.07-8.63,8.32-13.21.94-1.9,1.79-3.84,2.55-5.8.09-.25.2-.49.28-.73.35-.93.68-1.84.99-2.76.43-1.3.83-2.62,1.2-3.94.37-1.33.69-2.65,1-4,.85-3.84,1.44-7.78,1.77-11.76.39-4.34.46-8.74.28-13.18-.03-.8-.08-1.6-.12-2.41-.26-4.82-.73-9.51-1.39-14.11-.22-1.53-.46-3.06-.73-4.57-.26-1.5-.54-2.99-.85-4.49-.15-.74-.31-1.48-.48-2.22-.32-1.47-.66-2.93-1.03-4.38-.19-.73-.37-1.45-.57-2.16-.57-2.16-1.2-4.31-1.88-6.42-.66-2.1-1.39-4.18-2.16-6.25-.51-1.37-1.03-2.73-1.59-4.09-.26-.68-.54-1.36-.83-2.02-1.14-2.69-2.35-5.32-3.64-7.93-.32-.65-.65-1.3-.99-1.93-.66-1.3-1.34-2.58-2.05-3.84-1.05-1.91-2.15-3.8-3.29-5.65-.76-1.23-1.53-2.47-2.33-3.69-1.57-2.42-3.24-4.83-4.97-7.18-.86-1.17-1.76-2.35-2.65-3.5-4.51-5.8-9.45-11.34-14.79-16.67-6.4-6.37-13.4-12.44-20.93-18.18-1.65-1.25-3.13-2.53-4.49-3.87-2.04-1.99-3.77-4.12-5.22-6.48-.25-.4-.49-.8-.71-1.2-.39-.68-.76-1.37-1.1-2.1-.69-1.42-1.31-2.95-1.87-4.57-5.54-16.05-12.33-31.05-20.34-44.97-1-1.74-2.02-3.47-3.07-5.17-1.03-1.71-2.08-3.4-3.16-5.06-1.08-1.67-2.18-3.33-3.29-4.97-3.33-4.91-6.85-9.68-10.56-14.29-4.91-6.16-10.14-12.04-15.66-17.66-2.05-2.1-4.15-4.14-6.28-6.13-1.5-1.44-3.01-2.84-4.55-4.18-3.66-3.29-7.41-6.44-11.28-9.49-10.99-8.64-22.87-16.47-35.67-23.46-.02,0-.02-.02-.02-.02-3.66-1.98-7.39-3.9-11.19-5.77-1.25-.6-2.48-1.2-3.73-1.81-3.73-1.76-7.5-3.44-11.27-5.05-7.53-3.18-15.14-6.02-22.8-8.52-3.83-1.23-7.67-2.41-11.51-3.47-1.3-.35-2.58-.71-3.87-1.05-2.56-.68-5.14-1.31-7.72-1.91h-.02c-2.58-.6-5.17-1.16-7.76-1.68-2.59-.52-5.19-1.02-7.79-1.47-33.94-5.85-68.66-5.28-103.62,1.42-9.07,1.74-18,3.69-26.76,5.85-7.93,1.96-15.73,4.09-23.38,6.39-6.05,1.82-12.02,3.75-17.9,5.79-6.45,2.24-12.81,4.6-19.06,7.11-3.27,1.28-6.5,2.62-9.71,4-5.62,2.41-11.16,4.92-16.61,7.55-3.63,1.74-7.22,3.55-10.79,5.4-1.77.91-3.55,1.85-5.31,2.81-2.65,1.42-5.28,2.87-7.87,4.35-2.59,1.48-5.19,2.98-7.73,4.52-5.12,3.06-10.16,6.23-15.11,9.54-3.3,2.19-6.56,4.43-9.78,6.73-3.16,2.25-6.3,4.54-9.38,6.9-4.78,3.63-9.49,7.38-14.11,11.24-3.83,3.19-7.61,6.48-11.31,9.86-3.64,3.3-7.22,6.68-10.74,10.14-1.42,1.4-2.84,2.81-4.24,4.23-32.3,32.69-59.51,72-81.47,118.08-18.23,38.21-29.66,78.28-33.41,120.43-.17,1.84-.48,3.46-.97,4.89-.71,2.01-1.79,3.67-3.38,5.14-.69.63-1.47,1.23-2.35,1.81-.15.09-.29.19-.45.28-.14.09-.29.19-.46.28-2.24,1.34-4.41,2.73-6.51,4.2-2.1,1.45-4.11,2.96-6.07,4.54-11.68,9.43-20.77,20.94-27.78,34.12-.77,1.47-1.53,2.95-2.25,4.44-2.18,4.51-4.14,9.2-5.88,14.06-1.03,2.84-1.96,5.69-2.82,8.55-.42,1.44-.83,2.87-1.22,4.31-.39,1.44-.76,2.87-1.1,4.31-.82,3.46-1.53,6.91-2.13,10.39s-1.08,6.94-1.45,10.43c-.97,9.34-1.16,18.74-.59,28.17.06.9.12,1.77.19,2.67.2,2.65.48,5.32.79,7.99.15,1.19.31,2.38.46,3.55.17,1.19.36,2.38.54,3.57.17,1.05.34,2.08.51,3.13.66,3.9,1.4,7.75,2.21,11.56l.83,3.8c.46,2.01.94,4.01,1.44,5.99.25,1,.51,1.99.77,2.98.52,1.96,1.06,3.92,1.62,5.86.57,1.96,1.16,3.89,1.76,5.8.62,1.91,1.25,3.81,1.9,5.68v.02c.66,1.88,1.33,3.75,2.02,5.6,5.94,15.77,13.5,30.47,22.9,43.92,1.65,2.38,3.36,4.71,5.14,7.01.59.77,1.19,1.53,1.79,2.28,1.22,1.51,2.44,3.01,3.7,4.49,1.88,2.22,3.83,4.4,5.83,6.53,1.34,1.44,2.7,2.84,4.11,4.23,13.21,13.2,28.83,24.72,47.12,34.4,3.33,1.76,6.19,3.27,8.63,4.61.62.34,1.19.66,1.74.99.83.48,1.61.94,2.31,1.39.94.6,1.79,1.17,2.53,1.73.56.42,1.05.83,1.48,1.25.15.14.31.28.43.42,2.95,3.06,2.82,6.17.06,11.5-.4.76-.85,1.56-1.36,2.41-.25.43-.51.88-.8,1.34-1.39,2.28-3.12,4.91-5.15,7.96v.02c-.4.6-.82,1.23-1.25,1.88-.62.93-1.33,1.84-2.01,2.75-.23.31-.45.62-.66.93-1.88,2.72-3.12,5.56-.43,9.03.23.29.46.57.73.8.31.32.63.6.96.83.32.23.66.45,1.02.62.28.12.57.25.85.35,3.02,1.05,6.59.14,9.88-.4,3.72-.6,7.42-1.23,11.25-1.9,4.43-.77,9.01-1.57,13.91-2.44,2.08-.37,4.23-.74,6.45-1.13,0,0,6.66-2.64,7.51-.6.85,2.04.17,9.98.23,15.26.05,5.28.35,19.46-.71,28.01-.62,4.78-1.9,10,2.73,13.23,4.88,3.36,9.01-.28,13.12-2.76,15.99-9.63,30.59-21.08,45.87-36.96-.9,13.8-1.56,24.08-2.27,34.32-.34,4.88-.74,9.82,4.51,12.61,4.48,2.39,8.35.4,12.24-1.87,27.8-16.02,53.51-34.69,73.79-59.82,5.66-7.02,9.41-6.33,16.84-1.82,0,0,90.16,64.46,205.31,55.91,120.02-8.9,174.08-81.87,174.08-81.87Z"/><g id="Hair"><path id="left" class="cls-7" d="m307.63,701.7c-18.77,20.52-37.7,40.89-64.91,54.57.06-14.51.43-26.63.03-38.71-.15-4.6-.89-9.97-6.9-11.35-5.15-1.17-7.79,2.52-10.86,5.71-12.21,12.76-24.45,25.49-42.27,37.46,1.04-15.61,2.61-28.01,2.52-40.37-.18-19.45-4.48-21.81-21.93-14.02-8.65,3.87-17.15,8.37-27.27,7.61,4.72-19.91,4.72-20,24.05-20,36.47,0,64.3-16.14,85.19-45.37,2.76-3.9,3.53-5.27,6.19-9.23.15-.21-1.44.12.15-.21,12.64,26.14,34.27,54.14,56.02,73.92h0Z"/><path id="righ" class="cls-9" d="m754.89,643.1c5.12,5.68,9.88,11.69,15.77,18.74-14.57,2.45-27.67,4.63-43.01,7.18,6.99-12.06,13.87-22.09,17.49-34.02,3.65-11.99,7.79-23.93,11.07-36.84,2.21,1.23,4.08,1.69,5.09,2.88,5,5.92,16.41,8.96,15.83,15.77-.58,6.5-12.09,6.23-18.65,9.14-9.26,4.11-10.37,9.6-3.59,17.15Z"/></g><path id="Headphones" class="cls-6" d="m205.84,573.25c-.37,5.68-.52,11.35-1.2,16.99-.61,4.97-2.18,10-8.59,9.2-6.04-.77-5.52-6.04-5.25-10.31,1.17-17.42,2.76-34.88-.31-52.24-8.41-47.61-32.12-86.05-70.34-115.56-2.27-1.78-6.69-2.45-5.46-6.23,1.5-4.63,5.98-2.88,8.93-1.81,4.45,1.63,9.08,3.59,12.67,6.56,47.95,39.85,72.64,90.37,69.54,153.38Z"/><g id="Face"><path class="cls-6" d="m725.44,505.82c-22.3-43.03-33.01-89.95-33.2-138.71-.09-18.44.77-18.57-18.33-19.23-30.03-1.08-59.51,3.33-89.3,6.96-112.18,13.64-221.64,38.04-327.79,77-17.72,6.5-17.46,6.59-9.01,23.86,21.56,44.25,28.8,90.35,16.71,138.58-1.84,7.3-1.56,13.27,1.76,19.94,22.81,45.79,55.58,81.04,102.29,104.02,40.56,19.91,82.37,33.26,133.79,37.3,6.65.8,19.75.43,32.8-.52,53.18-3.83,101.94-19.26,142.02-56.07,10.22-9.4,18.84-20.5,28.72-30.28,11.81-11.71,17.35-27.96,23.41-44.04,15.96-42.3,17.12-78.27-3.87-118.8Z"/><path class="cls-2" d="m647.75,564.48c-18.91-5.1-37.02,1.87-53.86,9.38-33.89,14.7-69.68,13.11-103.54-3.01-18.68-9.39-38.42-16.14-58.82-20.66-19.51-5.64-41.66.44-54.4,16.4-11.03,12.92-10.91,32.45-2.25,47.18,9.58,15.52,25.63,24.77,41.92,31.95,27.11,12.29,49.75,19.95,75.57,20.66,35.04,3.72,69.87,2.91,99.69-2.54,23.72-3.48,48.51-13.19,62.75-33.27,7.76-10.99,14.27-24.33,14.3-37.82.1-12.89-8.01-24.92-21.05-28.18l-.31-.09Zm-214.98,15.84c-3.8,11.04-7.39,22.43-10.83,33.69-1.9,5.15-2.63,12.48-7,14.03-4.99.96-9.77-3.63-13.93-6.3-10.12-7.5-19.22-19.19-19.01-32.14.96-21.06,19.65-32.31,39.55-28.6,13.97,2.23,16.57,4.47,11.31,19.02l-.1.3Zm52.39,14.1c-3.26,10.65-6.11,21.62-7.03,32.81-.81,6.19.09,15.69-3.93,19.41-3.54,3.08-10.35,1.5-14.85.88-14.82-2.18-26.88-7.24-25.92-22.13.46-13.09,5.81-27.12,9.32-39,3.23-12.28,8.36-17.58,21.49-11.92,4.7,1.91,9.33,4.03,13.86,6.34,5.44,2.5,9.07,7.43,7.13,13.33l-.07.28Zm48.38,54.7c-1.84,5.25-7.04,5.68-12.57,5.09-6.43-.64-12.85-1.37-19.31-2.17-12.23-1.15-11.5-8.27-9.5-18.84,1.39-8.45,2.08-17.01,3.76-25.47,2.24-10.96,5.6-13.74,16.15-12.73,7.62,1.28,18.19,1.2,23.3,7.62,3.78,5.43,2.96,14.31,2.19,21.12-1.47,8.34-1.99,16.92-3.93,25.13l-.09.25Zm32.92,4.95c-24.3,3.63-17.97-10.51-16.47-26.88.49-4.31.5-8.44-.11-12.62-.47-4.13-1.68-9.24.82-12.83,2.43-3.41,8.17-3.82,13.5-4.65,7.38-.52,18.44-5.39,24.75-2.75,3.32,1.85,4.76,6.01,6.55,10.55,1.84,5.1,3.56,10.62,5.1,16.09,5.44,18.35,4.16,27.53-16.26,30.59-5.77,1.08-11.9,1.82-17.58,2.47l-.3.03Zm72.84-25.82c-2.52,2.65-5.33,4.9-8.24,7.1-6.73,5.17-12.77,9.98-13.97-1.25-1.77-14.01-5.1-25.72-10.53-37.33-5.47-11.28-.37-15.06,10.44-17.47,7.96-1.93,16.02-4.52,23.75-3.07,5.99,1.22,11.95,4.86,14.11,9.83,1.44,3.59.7,7.32,0,11.1-2.34,10.69-7.97,23.08-15.33,30.87l-.21.22Z"/><path class="cls-2" d="m395.95,428.67c5.62.61,11.28.8,16.92,1.18,9.89,1.12,20.8.04,28.6,6.44,1.46,1.19-5.96,12.75-8.81,19.72-10.95,26.76,6.53,56.89,35.1,60.76,15.89,2.15,33.67-9.26,34.89-24.52,1.36-17.02-.31-34.4-13.27-47.51-25.89-26.19-58.57-32.17-93.7-29.87-3.89.26-6.76,2.36-7.05,6.38-.35,4.91,3.06,6.97,7.33,7.43Z"/><path class="cls-3" d="m610.63,486.17c11.22,6.31,21.04,1.85,29.99-5.4,21.89-17.75,19.94-49.11-4.52-63.51-8.98-5.29-9.06-9-.7-13.96,7.47-4.43,15.15-8.49,22.67-12.84,2.84-1.64,7.41-2.49,6.05-7.14-1.35-4.6-5.51-4.96-9.65-4.36-1.72.25-3.44.57-5.13.99-29.45,7.49-57.71,42.07-59.36,72.58-.66,15.83,7.68,26.33,20.64,33.63Z"/><path class="cls-11" d="m557.69,702.03c-2.36,9.59-15.23,7.32-22.87,8.01-11.1.3-21.04.23-31.41-3.34-4.29-1.5-9.21-3.14-12.22-6.57-3.31-3.68-1.58-8.96,3.46-9.75,5.44-.81,11.13,1.24,16.58,1.61,10.17,1.16,21.06.93,31.77,1.02,5.86-.05,15.39,1.08,14.72,8.77l-.03.24Z"/><path class="cls-4" d="m515.95,553.04c8.9,4.56,33.12,8.63,42.69,5.56,5.35-1.76,6.3-8.01,1.15-10.74-6.79-3.17-15.45-2.62-22.56-3.66-6.25-.05-20.25-3.5-23.7,2.63-1.04,2.01-.1,4.48,2.18,6.05l.23.16Z"/><path class="cls-10" d="m542.04,503.71c2.94,2.04,5.94,1.43,8.33-.83,2.19-2.07,3.81-4.75,5.89-6.96,6.46-6.87,13.56-13.57,23.56-7.6,6.66,3.97,4.78,18.74-2.67,27.14-1.43,1.62-3.23,2.9-4.81,4.39-3.09,2.91-7.29,5.17-2.75,10.53,4.09,4.83,7.89,4.37,12.41,1.2,10.68-7.49,16.02-18.01,17.52-29.4,1.05-17.45-9.36-31.04-23.53-32.13-14.69-1.13-34.84,13.73-36.35,26.73-.32,2.77-.02,5.26,2.4,6.94Z"/><path class="cls-8" d="m610.31,581.36c-9.79,3.4-5.11,12.64-1.69,20.04,3.6,8.38,6.08,17.47,7.59,26.62,1.82,15.52,3.47,16.34,15.86,6.57,13.49-8.94,23.87-31.59,23.58-45.21-.45-5.8-5.12-9.44-10.47-11.82-11.22-4.38-23.61.64-34.6,3.68l-.27.11Z"/><path class="cls-8" d="m573.94,595.29c-4.61,1.09-9.11,1.72-13.75,2.4-6.18.76-11.05,2.99-10.98,9.1-.11,3.4.66,6.85.96,10.24,1.21,9.77-2.82,20.63-1.75,30.49,1.22,8.61,11.09,7.17,18.19,6.54,5.75-.65,11.91-1.4,17.74-2.49,18.32-3.39,21.8-8.93,17.18-27.11-1.69-6.57-3.81-13.39-6.02-19.57-1.29-3.34-2.47-6.71-4.86-9.29-3.43-3.76-10.57-1.56-16.4-.39l-.31.07Z"/><path class="cls-8" d="m537.69,608.3c-1.79-11.93-16.21-11.83-25.61-13.31-10.55-1.01-13.9,1.77-16.15,12.73-1.77,8.98-2.47,18.04-4.01,27-1.97,9.93-1.59,16.15,9.43,17.26,6.35.81,12.66,1.51,18.99,2.16,7.25,1,13.07-.29,14.08-8.57,1.17-12.27,4.98-24.56,3.31-36.98l-.06-.29Z"/><path class="cls-5" d="m482.36,583.56c-5.25-3.98-11.82-6.29-17.82-8.97-11.88-5.13-17.92-1.96-21.22,9.94-3.24,10.95-7.76,23.12-9.42,35.15-2.21,13.8,2.14,23.09,18.53,26.46,5.26,1.12,11.16,2.4,16.57,2.29,8.95-.08,8.23-10.09,8.79-16.49.54-9.05,1.96-17.87,4.25-26.6,1.5-7.27,7.05-16.07.54-21.6l-.21-.19Z"/><path class="cls-8" d="m421.41,560.96c-28.58-5.55-50.02,21.56-33.74,46.79,5.01,7.73,12,13.63,19.93,18.37,2.45,1.42,5.73,3.04,8.29,1.48,4.01-2.73,5.24-12.34,7.28-17.6,3.59-12.57,8.37-24.78,11.84-37.38,2.57-8.89-5.3-10.26-13.28-11.61l-.32-.05Z"/></g><g id="Beanie"><path id="fold" class="cls-6" d="m643.5,185.57c-6.93-.46-13.93-1.41-20.86-1.29-74.08,1.04-146.82,12.76-218.97,28.53-68.68,15-136.08,34.48-200.65,62.73-10.25,4.48-22.12,8.47-27.18,18.68-9.76,19.54-15.22,40.77-18.68,62.46-.98,6.07.43,9.45,6.38,12.18,24.73,11.32,44.97,28.5,60.92,50.28,6.1,8.34,11.27,5.4,20.38,1.14,36.04-16.84,76.05-29.26,114.28-39.69,97.27-26.57,191.24-43.72,291.92-50.47,23.9-1.6,51.09,2.3,73.79,12.45,6.01,2.67,11.63,6.56,7.42,13.8-3.62,6.2-8.74,2.55-13.53-.12-11.29-6.26-14.51-4.26-14.72,8.62-.06,3.5.83,7.03.52,10.46-.8,9.82,3.62,11.5,12.58,10.22,37.21-5.25,59.73-32.3,58.47-71.11-2.33-71.48-58.38-126.51-132.06-128.87Z"/><path class="cls-7" d="m651.89,164.09c-8.87-.02-17.85-.73-26.76-.67-2.62-.18-6.54.35-7.98-2.09-2.17-9.19-7.58-19.85-22.5-41.59-6.38-9.29-11.98-17.04-18.83-26.39-.93-1.21-2.43-3.67-1.64-4.48.47-.68,1.85-.75,3.68-.37,33.93,10.54,61.96,32.72,77.55,64.72,2.47,4.89,4.44,10.64-3.28,10.86l-.24.02Z"/><path class="cls-7" d="m598.22,162.87c-.96,1.13-3.44,1.31-5.16,1.39-13.66.47-27.37,1.35-40.98,2.64-10.96,1.7-9.76-5.84-13.04-13.76-3.04-8.58-6.94-18-10.23-24.95-7.19-15.26-16.03-29.86-23.18-45.17-2.65-7.54,8.02-6.46,12.71-6.38,21.17.46,37.25,10.45,47.88,28.75,9.67,14.99,22.16,36.44,30.82,52.05.91,1.58,2.23,4.25,1.26,5.32l-.08.1Z"/><path class="cls-7" d="m523.57,170.13c-1.29,1.78-4.31,1.96-6.49,2.3-11.22,1.46-22.43,3.13-33.61,4.96-8.89,1.91-9.8-3.05-11.42-10.34-5.74-24.17-17.27-54.21-26.32-77.75-.62-2.13-.83-4.66.42-6.24.93-1.31,2.52-2.13,4.55-2.76,4.21-1.23,9.06-2.05,13.48-2.81,20.39-4.41,23.21,7.45,31.75,22.75,9.55,17.81,17.22,36.46,23.69,55.56,1.07,2.85,2.55,6.23,3.71,9.31.57,1.52,1.08,3.73.33,4.88l-.09.14Z"/><path class="cls-7" d="m454.25,181.27c-1.05,1.52-3.27,2.22-5.19,2.61-12.81,2.44-25.75,5.01-38.59,7.69-5.69,1.4-9.33.57-10.09-5.88-3.67-20.52-8.21-48.09-11.08-68.46-.72-5.82-2.11-13.05,1.69-18,3.03-3.76,8.4-5.64,13.13-7.24,5.65-1.75,13.79-4.81,18.93-3.33,6.92,1.99,9.71,15.81,12.17,22.7,3.39,10.98,7.25,23.29,11.33,36.55,2.44,7.96,4.8,15.7,6.73,22.41.74,3.45,2.88,7.46,1.08,10.79l-.1.15Z"/><path class="cls-7" d="m382.52,197.46c-1.41,1.75-4.1,2.28-6.28,2.86-9.14,2.28-18.27,4.73-27.34,7.21-2.51.65-5.8,1.44-7.69-.62-1.05-1.09-1.59-3.13-1.9-4.8-3.6-18.89-5.11-45.32-4.39-64.31.36-14.34,5.18-20.04,18.24-25.64,3.08-1.48,6.14-3.01,9.2-4.55,3.69-1.7,7.28-4.32,9.75-2.85,1.59,1.21,1.59,3.88,1.7,5.86.18,8.75.74,17.31,1.59,25.71,1.58,16.35,4.35,31.01,6.78,47.37.26,4.3,2.57,9.69.46,13.6l-.11.15Z"/><path class="cls-7" d="m322.54,214.53c-1.08,1.45-3.13,2.13-4.88,2.68-5.65,1.63-11.47,3.21-17.18,4.8-8.2,1.85-15.91,5.94-24.05,7.76-3.35.31-3.7-3.26-3.68-6-.1-14.95,2.78-34.62,4.35-49.08.48-8.31,2.36-15.9,9.04-21.46,7.85-7.47,17.06-13.31,27.08-20.15,1.44-.95,3.68-2.42,5.05-1.81,1.6,1.12.96,4.02.85,5.89-1.21,9.76-2.32,18.26-2.65,27.07-.61,13.75,3.07,31.86,6.25,44.66.45,1.81.97,3.91-.07,5.51l-.1.14Z"/><path class="cls-7" d="m256.7,193.61c-1.85,9.48-2.25,20.93-2.63,30.98-.42,7.93,1.42,14.06-7.08,16.86-17.11,6.78-34.21,14.16-50.74,23.13-2.42,1.28-6.83,3.6-5.09-.95,8.11-22.13,39.5-64.8,63.13-84.81,7.41-5.2,2.98,11.03,2.45,14.56l-.05.24Z"/><path class="cls-12" d="m709.86,290.76c.51,3.29.97,6.81,3.31,8.79,2.74,2.37,7.68,1.78,9.61-1.09,2.7-4.13,2.18-10.27,1.55-15.05-2.72-18.05-5.35-36.89-15.63-53.59-2.21-3.33-4.72-7.96-9.04-8.3-2.39-.15-4.67,1.52-5.13,3.79-.65,3.61,1.9,7.12,3.16,10.42,7.6,17.43,9.55,36.17,12.13,54.72l.04.3Z"/><path class="cls-11" d="m627.62,234.46c-2.63-4.14-5.42-8.3-8.55-12.14-1.31-1.54-2.84-3.05-4.76-3.74-2.42-.94-5.67.05-6.48,2.66-.77,2.32.81,5.1,2.07,7.22,11.97,19.28,15.97,40.81,17.68,62.9.33,3.22,1.06,7.13,3.99,8.78,2.89,1.69,7.17.95,8.95-1.76,3.5-6.29.63-14.06.19-20.74-1.87-14.83-4.66-29.98-12.93-42.9l-.16-.26Z"/><path class="cls-12" d="m504.77,226.24c-3.33,2.11-1.58,6.82.19,9.71,14.34,23.54,21.95,49.62,26.9,76.47.71,3.99,3.14,8.76,7.74,8.02,6.86-1.36,5.74-10.83,4.59-16.12-5.68-24.9-13.08-49.93-28.76-71.8-2.29-3.19-6.19-8.46-10.46-6.4l-.21.12Z"/><path class="cls-10" d="m419.63,244.92c-6.08-8.84-14.82-3.53-9.72,6.12,11.65,25.59,22.35,51.52,26.26,79.51.52,3.68,1.99,8.5,6.13,8.8,2.43.24,4.7-1.38,5.74-3.94,2.65-6.98-.46-14.5-1.58-21.57-5.29-24.12-13.23-47.87-26.66-68.67l-.18-.25Z"/><path class="cls-11" d="m325.96,268.62c-1.96-6.6-11.29-8.46-10.62.32,6.84,27.92,16.19,55.22,24.09,82.85,1.45,4.76,3.41,11.71,9.48,11.47,2.62-.09,4.83-1.87,5.17-4.24.4-2.5-.68-5.27-1.41-7.74-8.74-27.42-17.44-55.12-26.6-82.41l-.11-.26Z"/><path class="cls-10" d="m240.33,294.59c-2.37-8.58-13.34-9.77-12.34.83,8.35,26.55,12.41,54.55,24.08,80.01,3.4,5.77,8.78,21.42,16.64,20.16,2.4-.34,4.06-2.22,4.03-4.49,0-2.63-1.52-5.34-2.52-7.84-12.31-28.63-19.72-59.03-29.79-88.4l-.1-.27Z"/></g></svg>